<svg width="203" height="140" viewBox="0 0 203 140" fill="none" xmlns="http://www.w3.org/2000/svg">
<path d="M160.472 36.0427C157.708 36.0427 155.009 36.318 152.396 36.8291C145.14 30.6163 135.731 26.8414 125.436 26.7955C115.797 11.2503 98.5678 0.889038 78.9027 0.889038C48.6992 0.889038 24.2146 25.3275 24.2146 55.4742C24.2146 57.46 24.3262 59.4195 24.5363 61.3463C10.4589 65.2522 0.117432 78.1104 0.117432 93.4066C0.117432 111.803 15.0551 126.712 33.4858 126.712C36.6309 126.712 39.6644 126.247 42.5534 125.434C48.6401 131.903 57.2612 135.966 66.8541 135.966C73.8535 135.966 80.3407 133.81 85.7051 130.133C92.9211 136.09 102.179 139.669 112.271 139.669C128.174 139.669 141.995 130.782 149.034 117.714C152.672 118.749 156.506 119.313 160.472 119.313C183.505 119.313 202.186 100.675 202.186 77.6779C202.179 54.6812 183.505 36.0427 160.472 36.0427Z" fill="url(#paint0_linear_1196_3465)"/>
<defs>
<linearGradient id="paint0_linear_1196_3465" x1="70.818" y1="9.91515" x2="217.624" y2="373.391" gradientUnits="userSpaceOnUse">
<stop offset="0.00155865" stop-color="white"/>
<stop offset="1" stop-color="#B9CECE"/>
</linearGradient>
</defs>
</svg>
