<svg width="113" height="78" viewBox="0 0 113 78" fill="none" xmlns="http://www.w3.org/2000/svg">
<path d="M89.4738 20.1166C87.9474 20.1166 86.4573 20.2686 85.0143 20.551C81.0081 17.1194 75.8126 15.0345 70.1278 15.0091C64.8054 6.42312 55.2919 0.700317 44.4334 0.700317C27.7558 0.700317 14.236 14.1983 14.236 30.8491C14.236 31.9459 14.2976 33.0282 14.4137 34.0924C6.64044 36.2498 0.930176 43.3517 0.930176 51.8001C0.930176 61.9607 9.17834 70.1956 19.3553 70.1956C21.092 70.1956 22.767 69.9386 24.3622 69.4898C27.7231 73.0625 32.4835 75.3067 37.7804 75.3067C41.6453 75.3067 45.2274 74.1158 48.1894 72.0851C52.1739 75.3755 57.286 77.3519 62.8585 77.3519C71.6396 77.3519 79.2714 72.4435 83.158 65.2257C85.1666 65.7977 87.2839 66.109 89.4738 66.109C102.192 66.109 112.507 55.8144 112.507 43.1128C112.503 30.4111 102.192 20.1166 89.4738 20.1166Z" fill="url(#paint0_linear_1196_3460)"/>
<defs>
<linearGradient id="paint0_linear_1196_3460" x1="39.9692" y1="5.68567" x2="121.07" y2="206.427" gradientUnits="userSpaceOnUse">
<stop offset="0.00155865" stop-color="white"/>
<stop offset="1" stop-color="#B9CECE"/>
</linearGradient>
</defs>
</svg>
