<svg width="146" height="100" viewBox="0 0 146 100" fill="none" xmlns="http://www.w3.org/2000/svg">
<path d="M115.143 25.6352C113.16 25.6352 111.224 25.832 109.349 26.1976C104.144 21.7547 97.3944 19.0552 90.0086 19.0224C83.0937 7.90574 70.7337 0.496216 56.6261 0.496216C34.9583 0.496216 17.3933 17.9726 17.3933 39.531C17.3933 40.951 17.4734 42.3523 17.6241 43.7302C7.52505 46.5234 0.106201 55.7185 0.106201 66.657C0.106201 79.8123 10.8223 90.4744 24.0444 90.4744C26.3006 90.4744 28.4768 90.1416 30.5494 89.5605C34.9159 94.1862 41.1007 97.0919 47.9825 97.0919C53.0038 97.0919 57.6577 95.55 61.506 92.9208C66.6827 97.1809 73.3244 99.7398 80.5642 99.7398C91.9728 99.7398 101.888 93.3848 106.938 84.0397C109.547 84.7801 112.298 85.1832 115.143 85.1832C131.667 85.1832 145.068 71.8545 145.068 55.4092C145.064 38.9639 131.667 25.6352 115.143 25.6352Z" fill="url(#paint0_linear_1196_3470)"/>
<defs>
<linearGradient id="paint0_linear_1196_3470" x1="50.8262" y1="6.95094" x2="155.57" y2="267.11" gradientUnits="userSpaceOnUse">
<stop offset="0.00155865" stop-color="white"/>
<stop offset="1" stop-color="#B9CECE"/>
</linearGradient>
</defs>
</svg>
