<svg width="317" height="307" viewBox="0 0 317 307" fill="none" xmlns="http://www.w3.org/2000/svg">
<path d="M50.8265 184.864C50.9423 183.439 51.4866 182.082 52.3878 180.973C53.2362 179.859 54.4111 179.038 55.7483 178.625C56.8896 178.3 58.1062 178.362 59.2089 178.8C60.3117 179.239 61.2388 180.03 61.8462 181.051C62.3607 180.025 63.1872 179.19 64.2066 178.666C65.2259 178.142 66.3852 177.956 67.5171 178.134C68.8939 178.389 70.1569 179.068 71.1297 180.076C72.1576 181.066 72.8566 182.348 73.132 183.749C73.4619 185.539 73.2065 187.388 72.4039 189.021C71.4505 190.682 70.1162 192.092 68.5113 193.136C65.9069 194.923 62.4833 197.167 62.4833 197.167C62.4833 197.167 59.3469 195.099 56.5604 193.662C54.8399 192.82 53.3464 191.577 52.2057 190.037C51.2016 188.507 50.7179 186.692 50.8265 184.864Z" fill="#F5F6F7"/>
<path d="M245.953 107.439C246.065 106.013 246.609 104.655 247.514 103.548C248.358 102.433 249.532 101.611 250.868 101.2C252.009 100.875 253.226 100.936 254.328 101.375C255.431 101.813 256.358 102.605 256.966 103.625C257.48 102.6 258.307 101.765 259.326 101.241C260.345 100.717 261.505 100.53 262.636 100.709C264.013 100.964 265.276 101.643 266.249 102.651C267.277 103.642 267.978 104.923 268.258 106.324C268.58 108.118 268.317 109.969 267.509 111.603C266.558 113.265 265.223 114.676 263.617 115.717C261.019 117.505 257.589 119.748 257.589 119.748C257.589 119.748 254.459 117.645 251.666 116.243C249.945 115.402 248.452 114.159 247.311 112.619C246.312 111.084 245.836 109.267 245.953 107.439Z" fill="#F5F6F7"/>
<path d="M69.7771 167.458C69.8459 166.543 70.1956 165.671 70.7783 164.962C71.3218 164.245 72.0757 163.715 72.9346 163.448C73.3924 163.323 73.8708 163.291 74.3411 163.355C74.8114 163.419 75.264 163.577 75.672 163.82C76.1537 164.116 76.5591 164.522 76.8552 165.004C77.1852 164.346 77.7161 163.811 78.3708 163.476C79.0254 163.14 79.7698 163.023 80.4958 163.14C81.3801 163.297 82.1916 163.731 82.8131 164.381C83.4742 165.017 83.924 165.842 84.1013 166.743C84.3123 167.893 84.1452 169.081 83.6253 170.129C83.0147 171.197 82.1577 172.103 81.1259 172.772C79.4526 173.921 77.2543 175.365 77.2543 175.365C77.2543 175.365 75.238 174.033 73.4457 173.094C72.3399 172.553 71.3796 171.755 70.6452 170.767C70.0089 169.786 69.7046 168.626 69.7771 167.458Z" fill="#F3F4F5"/>
<path d="M233.974 124.599C234.047 123.685 234.397 122.814 234.975 122.103C235.52 121.388 236.274 120.861 237.132 120.596C237.865 120.394 238.645 120.436 239.352 120.717C240.06 120.998 240.657 121.502 241.052 122.152C241.284 121.694 241.614 121.292 242.018 120.975C242.393 120.682 242.824 120.469 243.284 120.349C243.743 120.228 244.223 120.203 244.693 120.274C245.577 120.436 246.387 120.873 247.01 121.521C247.672 122.157 248.122 122.982 248.298 123.884C248.509 125.034 248.342 126.222 247.822 127.27C247.214 128.339 246.356 129.246 245.323 129.912C243.65 131.055 241.451 132.499 241.451 132.499C241.451 132.499 239.442 131.174 237.643 130.228C236.536 129.69 235.575 128.891 234.842 127.901C234.207 126.922 233.902 125.764 233.974 124.599Z" fill="#F3F4F5"/>
<path d="M269.365 160.035C269.434 159.119 269.783 158.248 270.366 157.539C270.91 156.822 271.664 156.292 272.522 156.025C272.98 155.9 273.459 155.868 273.929 155.932C274.399 155.996 274.852 156.154 275.26 156.396C275.742 156.693 276.147 157.099 276.443 157.581C276.771 156.922 277.302 156.385 277.957 156.049C278.612 155.714 279.358 155.597 280.084 155.716C280.966 155.88 281.775 156.313 282.401 156.957C283.062 157.594 283.512 158.419 283.689 159.32C283.897 160.47 283.73 161.657 283.213 162.705C282.602 163.775 281.742 164.682 280.707 165.348C279.041 166.498 276.835 167.942 276.835 167.942C276.835 167.942 274.826 166.61 273.034 165.671C271.928 165.13 270.968 164.332 270.233 163.343C269.597 162.362 269.292 161.202 269.365 160.035Z" fill="#F5F6F7"/>
<path d="M74.434 196.507C74.481 195.905 74.7134 195.332 75.0991 194.867C75.4511 194.396 75.9403 194.046 76.4993 193.865C76.8014 193.782 77.117 193.761 77.4274 193.803C77.7377 193.845 78.0364 193.95 78.3056 194.11C78.621 194.309 78.8869 194.577 79.0827 194.895C79.2368 194.593 79.4541 194.327 79.7198 194.117C79.9677 193.925 80.2519 193.786 80.5552 193.708C80.8585 193.629 81.1745 193.613 81.4841 193.661C82.0666 193.766 82.6009 194.053 83.0103 194.481C83.4525 194.897 83.7578 195.437 83.8854 196.031C84.0219 196.791 83.9115 197.574 83.5704 198.267C83.1679 198.973 82.6011 199.572 81.9181 200.012C80.819 200.769 79.3627 201.716 79.3627 201.716C79.3627 201.716 78.0395 200.84 76.8563 200.223C76.1306 199.863 75.4998 199.337 75.0151 198.687C74.5923 198.042 74.3886 197.278 74.434 196.507Z" fill="#F3F4F5"/>
<path d="M36.5505 26.893C36.5505 26.893 33.323 29.697 40.3311 36.1532C43.876 39.5293 47.6416 42.665 51.6029 45.5397C51.6029 45.5397 53.0031 47.1239 51.5609 47.9862C50.1186 48.8484 46.4991 49.5634 46.4991 51.7295C46.4991 53.8956 48.5994 55.3116 52.149 55.8724C55.6985 56.4332 63.3507 57.9754 64.0018 58.0876C64.6529 58.1998 65.556 58.8797 64.6599 59.6298C63.7638 60.3799 56.3496 64.0321 58.2959 67.446C60.2422 70.8599 70.2818 70.8178 71.3809 70.8388C72.4801 70.8599 72.8582 71.1753 72.9772 71.7361C73.0962 72.2969 70.4848 73.2853 68.4195 74.4069C66.3542 75.5285 64.1558 77.2109 65.437 79.0826C66.7182 80.9543 73.5723 83.3727 86.7693 79.9168L92.7833 77.9189L94.1835 71.694C96.3258 58.2068 93.2593 51.6173 91.264 50.5238C89.2687 49.4302 87.8265 51.7786 86.9094 53.9447C85.9922 56.1108 85.2641 58.8096 84.697 58.7535C84.1299 58.6975 83.7729 58.34 83.6468 57.2464C83.5208 56.1528 82.5897 46.1425 78.9981 44.5442C75.4066 42.946 72.5081 50.685 71.85 51.6524C71.1919 52.6198 70.4498 51.8066 70.2538 51.1477C70.0577 50.4887 67.7964 42.995 66.8932 39.5461C65.9901 36.0972 64.4569 34.1203 62.2235 34.3306C59.9902 34.5409 59.7171 38.2212 58.996 39.7494C58.2749 41.2776 56.5666 40.0368 56.5666 40.0368C53.3147 36.3667 49.8203 32.9194 46.107 29.718C38.9869 23.409 36.4875 26.9561 36.4875 26.9561" fill="#F5F6F7"/>
<path d="M93.5884 79.202C88.3796 74.5193 79.2572 66.0442 71.388 58.8099C63.5188 51.5756 56.3917 45.0282 51.2039 40.3245L45.0569 34.7585C44.3568 34.0996 43.7687 33.5949 43.3837 33.2373L42.9496 32.8448L42.8096 32.7046C42.8635 32.7408 42.915 32.7806 42.9636 32.8238C43.0686 32.9219 43.2226 33.0481 43.4117 33.2093L45.0989 34.6954C46.5692 35.9923 48.6835 37.878 51.2879 40.2193C56.5037 44.902 63.6448 51.4354 71.514 58.6627C79.3832 65.89 88.5057 74.3932 93.6865 79.0969" fill="#F3F4F5"/>
<path d="M51.6025 50.923C51.7676 50.9033 51.9345 50.9033 52.0996 50.923H53.3458C54.396 50.923 55.8522 50.923 57.4554 51.0212L61.5581 51.2035L62.8043 51.2526C62.9556 51.2386 63.108 51.2386 63.2593 51.2526C63.1098 51.2841 62.9571 51.2982 62.8043 51.2947C62.5032 51.2947 62.1042 51.2947 61.5511 51.2947C60.5009 51.2947 59.0517 51.2316 57.4484 51.1685L53.3388 51.0072L52.0996 50.9651C51.9328 50.9729 51.7657 50.9587 51.6025 50.923Z" fill="#F3F4F5"/>
<path d="M63.4909 50.7132C63.4348 50.7132 63.3717 47.7059 63.3507 44.0047C63.3296 40.3034 63.3507 37.2891 63.4138 37.2891C63.4769 37.2891 63.526 40.2964 63.547 43.9976C63.5681 47.6989 63.54 50.7132 63.4909 50.7132Z" fill="#F3F4F5"/>
<path d="M75.0713 62.3637C75.0917 62.2088 75.1269 62.0562 75.1763 61.908C75.2743 61.5856 75.3863 61.207 75.5264 60.6883C75.8204 59.6508 76.2265 58.2208 76.5975 56.6295C76.9686 55.0382 77.2976 53.5871 77.4867 52.5286C77.5917 52.0379 77.6687 51.6173 77.7387 51.2808C77.7574 51.125 77.7951 50.972 77.8507 50.8252C77.8567 50.9826 77.8449 51.1401 77.8157 51.2949C77.7737 51.5963 77.7177 51.9959 77.6267 52.5567C77.4517 53.6152 77.1786 55.0803 76.7936 56.6786C76.4085 58.2768 75.9884 59.6999 75.6594 60.7304C75.4914 61.2421 75.3583 61.6487 75.2533 61.9361C75.2102 62.0855 75.149 62.2291 75.0713 62.3637Z" fill="#F3F4F5"/>
<path d="M64.3662 64.9435C64.4941 64.8757 64.6307 64.8262 64.7723 64.7963L65.9065 64.4808C66.8656 64.2144 68.1888 63.871 69.659 63.4994C71.1293 63.1279 72.4595 62.7984 73.4256 62.5741L74.5668 62.3147C74.707 62.2798 74.8498 62.2563 74.9939 62.2446C74.8651 62.3102 74.7287 62.3597 74.5878 62.3918L73.4606 62.7073C72.5015 62.9737 71.1713 63.3172 69.708 63.6887C68.2448 64.0602 66.9076 64.3897 65.9415 64.614L64.7933 64.8734C64.6532 64.9089 64.5103 64.9323 64.3662 64.9435Z" fill="#F3F4F5"/>
<path d="M73.2852 76.524C73.4539 76.4481 73.6298 76.3894 73.8102 76.3488L75.2595 75.9352C76.4847 75.5917 78.1789 75.136 80.0552 74.6383C81.9315 74.1406 83.6328 73.706 84.872 73.3975L86.3352 73.047C86.5116 72.9968 86.6919 72.9617 86.8743 72.9419C86.7079 73.0195 86.5344 73.0805 86.3562 73.1242L84.907 73.5377C83.6818 73.8742 81.9805 74.3369 80.1042 74.8276C78.2279 75.3183 76.5267 75.7599 75.2945 76.0684L73.8312 76.4189C73.6536 76.4739 73.4705 76.5091 73.2852 76.524Z" fill="#F3F4F5"/>
<path d="M86.5312 72.9352C86.5526 72.738 86.5925 72.5432 86.6503 72.3534C86.7483 71.9539 86.8743 71.4211 87.0353 70.7902C87.3574 69.4653 87.7985 67.6357 88.2255 65.6028C88.6526 63.5699 89.0026 61.7122 89.2407 60.3733C89.3597 59.7284 89.4577 59.1956 89.5277 58.782C89.5546 58.5851 89.5968 58.3906 89.6537 58.2002C89.6537 58.3998 89.6373 58.5991 89.6047 58.796C89.5557 59.1746 89.4857 59.7214 89.3807 60.3943C89.1777 61.7473 88.8556 63.6049 88.4216 65.6378C87.9875 67.6707 87.5254 69.5074 87.1684 70.8252C86.9863 71.4842 86.8323 72.0099 86.7203 72.3745C86.6693 72.5652 86.6061 72.7525 86.5312 72.9352Z" fill="#F3F4F5"/>
<path d="M234.325 65.9108C225.027 57.7582 224.117 44.4041 225.783 32.6974C226.063 30.7346 226.07 28.6386 227.184 27.0122C228.297 25.3859 230.607 24.4466 232.28 25.463C233.681 26.3112 234.115 28.0778 234.78 29.5709C235.665 31.565 237.097 33.2665 238.91 34.4779C240.094 35.263 241.599 35.8238 242.908 35.2771C244.7 34.527 245.148 32.2067 245.351 30.2439C245.72 26.5986 246.089 22.9511 246.457 19.3012C246.549 17.3339 246.961 15.3947 247.676 13.56C248.481 11.7655 250.007 10.1882 251.925 9.86574C253.844 9.54328 256.021 10.8682 256.203 12.824C256.195 13.641 256.127 14.4563 256 15.2634C255.935 15.6735 255.995 16.0936 256.172 16.4689C256.35 16.8441 256.636 17.157 256.994 17.3665C257.75 17.6819 258.59 17.2122 259.234 16.6655C261.461 14.9059 263.106 12.5085 264.66 10.1181C266.215 7.72768 267.734 5.23913 269.834 3.25529C271.934 1.27146 274.609 -0.130549 277.423 0.00965127C280.238 0.149852 283.024 2.20379 283.444 5.02882C283.864 7.85386 281.946 10.4896 279.944 12.5295C276.994 15.5681 273.622 18.1651 269.932 20.2406C269.225 20.538 268.632 21.0538 268.238 21.7127C267.671 22.9675 268.77 24.3975 270.009 24.9653C271.409 25.6032 273.006 25.6243 274.511 25.9678C276.016 26.3112 277.591 27.1665 278.011 28.6666C278.599 30.7696 276.702 32.6693 274.91 33.861C271.324 36.2583 267.352 38.0179 263.169 39.0625C261.678 39.434 260.117 39.7635 258.849 40.6187C257.582 41.4739 256.672 43.2124 257.232 44.6144C257.792 46.0164 259.536 46.7174 261.069 46.5912C262.602 46.465 264.044 45.7991 265.535 45.4135C268.336 44.7125 271.773 45.2453 273.237 47.7549C273.676 48.6107 273.911 49.5569 273.923 50.5191C273.935 51.4813 273.724 52.4332 273.307 53.2998C272.454 55.0243 271.263 56.5596 269.806 57.8143C264.999 62.4717 259.044 65.7688 252.548 67.3689C246.093 68.855 240.262 68.82 234.311 65.8898" fill="#F3F4F5"/>
<path d="M238.161 58.8517C240.806 52.6455 243.803 46.5953 247.137 40.7308C248.019 39.1675 248.88 37.6253 249.734 36.1042C250.588 34.583 251.442 33.0828 252.359 31.6598C254.136 28.9378 256.06 26.3145 258.121 23.8016C260.075 21.3901 262.014 19.175 263.841 17.114C265.668 15.0531 267.426 13.1744 269.092 11.506C271.699 8.89305 274.508 6.49048 277.493 4.32074C278.55 3.54963 279.391 2.98182 279.965 2.60328L280.623 2.17567C280.695 2.12294 280.772 2.07828 280.854 2.04248C280.788 2.104 280.718 2.16025 280.644 2.21072L280.007 2.66637C279.447 3.05893 278.606 3.64777 277.577 4.4329C274.625 6.64164 271.84 9.06675 269.246 11.6883C267.601 13.3496 265.864 15.2353 264.044 17.2963C262.224 19.3572 260.299 21.5864 258.359 23.9979C256.307 26.5008 254.398 29.1173 252.639 31.8351C251.722 33.2371 250.882 34.7372 250.028 36.2584L247.431 40.885C244.103 46.7367 241.104 52.7701 238.448 58.9568" fill="#F3F4F5"/>
<path d="M252.464 31.6599C252.405 31.3785 252.372 31.0922 252.366 30.8047C252.317 30.2509 252.282 29.4517 252.247 28.4633C252.184 26.4865 252.184 23.7526 252.198 20.7523C252.212 17.752 252.198 15.0111 252.079 13.0413C252.03 12.0529 251.988 11.2537 251.946 10.707C251.911 10.4206 251.911 10.1311 251.946 9.84473C252.024 10.1219 252.076 10.4059 252.1 10.6929C252.184 11.2397 252.268 12.0389 252.345 13.0203C252.506 14.9971 252.583 17.731 252.569 20.7313C252.555 23.7316 252.534 26.3954 252.52 28.4423V30.7836C252.538 31.0769 252.519 31.3713 252.464 31.6599Z" fill="#F3F4F5"/>
<path d="M278.088 29.6692C277.751 29.6976 277.411 29.6976 277.073 29.6692C276.422 29.6692 275.477 29.6692 274.315 29.6692C271.99 29.6692 268.777 29.7814 265.213 30.0618C261.65 30.3422 258.478 30.7628 256.175 31.0993C255.02 31.2675 254.075 31.4288 253.452 31.5339C253.12 31.6089 252.783 31.6558 252.443 31.6741C252.76 31.5474 253.088 31.4534 253.424 31.3937C254.061 31.2465 254.985 31.0432 256.133 30.8399C258.436 30.4263 261.636 29.9847 265.185 29.6973C268.212 29.448 271.25 29.352 274.287 29.4099C275.449 29.4099 276.387 29.494 277.045 29.5501C277.396 29.5549 277.745 29.5949 278.088 29.6692Z" fill="#F3F4F5"/>
<path d="M238.518 58.4173C238.457 58.3171 238.41 58.2085 238.378 58.0949L238.049 57.1415C237.762 56.3073 237.349 55.0946 236.936 53.5874C236.033 50.5731 234.92 46.3741 233.751 41.7265C232.582 37.0788 231.51 32.8728 230.67 29.8445L229.669 26.2624C229.564 25.8768 229.473 25.5614 229.403 25.288C229.363 25.1751 229.34 25.0571 229.333 24.9375C229.388 25.0436 229.435 25.1537 229.473 25.267C229.557 25.5263 229.669 25.8418 229.802 26.2203C230.089 27.0545 230.467 28.2673 230.915 29.7744C231.818 32.7817 232.932 36.9807 234.101 41.6354C235.27 46.29 236.341 50.489 237.181 53.5524L238.182 57.1345C238.287 57.5201 238.378 57.8355 238.448 58.1089C238.484 58.2085 238.508 58.3121 238.518 58.4173Z" fill="#F3F4F5"/>
<path d="M273.048 51.2531C272.94 51.306 272.824 51.3392 272.705 51.3512L271.704 51.5756L268 52.3467C264.878 53.0056 260.579 53.952 255.825 55.0175C251.072 56.083 246.724 56.9873 243.615 57.5761C242.047 57.8776 240.773 58.1019 239.891 58.2771L238.876 58.4243C238.757 58.4445 238.637 58.4445 238.519 58.4243C238.63 58.3827 238.745 58.3499 238.862 58.3262L239.87 58.1089L243.566 57.3308C246.689 56.6789 250.995 55.7255 255.748 54.667C260.502 53.6085 264.815 52.6902 267.951 52.1013C269.519 51.8069 270.794 51.5826 271.676 51.4424L272.691 51.2882C272.808 51.2612 272.928 51.2494 273.048 51.2531Z" fill="#F3F4F5"/>
<path d="M317 294.746C317 294.851 246.989 294.935 160.624 294.935C74.2583 294.935 4.2334 294.872 4.2334 294.746C4.2334 294.62 74.2443 294.563 160.624 294.563C247.003 294.563 317 294.648 317 294.746Z" fill="#172A3F"/>
<path d="M206.614 124.851C206.997 118.36 207.384 111.868 207.776 105.377C207.825 104.592 207.944 103.688 208.617 103.274C208.944 103.145 209.296 103.09 209.648 103.115C209.999 103.139 210.34 103.241 210.647 103.414C222.143 108.048 230.579 120.89 231.587 133.249" fill="#F1463B"/>
<g opacity="0.3">
<path opacity="0.3" d="M210.52 110.004C213.213 111.77 215.461 114.137 217.088 116.918C218.716 119.699 219.679 122.82 219.901 126.035C220.029 126.812 219.864 127.609 219.439 128.272C219.221 128.509 218.956 128.699 218.661 128.828C218.365 128.957 218.046 129.023 217.724 129.022C217.079 129.015 216.437 128.916 215.82 128.727C214.273 128.328 212.641 127.893 211.493 126.772C210.444 125.658 209.843 124.195 209.806 122.664C209.778 121.146 209.933 119.63 210.268 118.149L212.228 121.5L210.128 110.648C210.095 110.553 210.083 110.452 210.092 110.351C210.102 110.251 210.133 110.154 210.184 110.067C210.303 109.912 210.639 109.969 210.618 110.165" fill="white"/>
</g>
<path d="M139.97 138.675C133.971 131.543 130.522 122.609 130.169 113.292L136.575 116.313L134.972 114.357C144.32 115.137 152.994 119.542 159.146 126.632" fill="#F1463B"/>
<g opacity="0.3">
<path opacity="0.3" d="M143.52 135.843C141.004 134.012 138.89 131.684 137.309 129.002C135.728 126.321 134.713 123.343 134.327 120.253C134.278 119.832 134.327 119.278 134.719 119.138C134.865 119.112 135.016 119.12 135.159 119.16C135.301 119.2 135.434 119.271 135.545 119.369L147.104 126.933C146.602 126.211 146.289 125.375 146.194 124.501L151.095 128.097C151.281 128.2 151.445 128.34 151.577 128.507C151.709 128.674 151.807 128.866 151.865 129.071C151.867 129.302 151.815 129.53 151.711 129.736C151.608 129.942 151.456 130.12 151.27 130.256C150.453 130.994 149.46 131.507 148.386 131.745C147.312 131.984 146.195 131.939 145.144 131.616L147.244 133.445C146.619 133.85 145.918 134.124 145.184 134.25C144.45 134.377 143.698 134.353 142.974 134.181C142.903 134.527 142.937 134.886 143.072 135.212C143.206 135.538 143.436 135.817 143.73 136.011" fill="white"/>
</g>
<path d="M270.535 199.851C270.535 199.851 279.496 209.125 283.571 208.354C283.571 208.354 269.414 193.276 263.463 179.361C260.621 172.781 257.235 166.45 253.34 160.434C256.021 155.807 258.409 150.571 259.501 145.278C256.491 148.773 253.06 151.882 249.286 154.531C248.978 154.097 248.663 153.669 248.341 153.235C251.508 150.366 253.618 146.514 254.334 142.299L240.185 141.689C240.628 141.051 241.028 140.383 241.382 139.691C234.431 133.709 226.649 128.772 218.278 125.033C202.001 115.759 165.77 112.696 148.128 127.774C132.326 136.999 128.09 148.804 115.643 151.727L108.263 150.921C108.263 150.921 105.393 166.343 114.823 173.234L107.822 171.608C107.822 171.608 109.111 177.749 116 184.52L111.701 183.994C111.701 183.994 113.563 193.654 119.514 195.975C119.514 195.975 110.217 197.138 107.612 193.654C107.612 193.654 104.518 208.095 118.597 213.542C118.597 213.542 76.4085 218.491 88.2683 270.204C91.0687 282.282 107.696 290.974 126.844 295.173L264.766 294.634C273.167 291.886 283.193 264.014 283.564 252.805C283.935 241.596 278.362 219.942 278.362 219.942L283.585 226.903L270.535 199.851Z" fill="#F1463B"/>
<path d="M112.897 221.4C104.979 220.924 97.2008 227.086 95.8496 234.916C101.001 231.494 106.884 229.333 113.023 228.607C110.605 230.833 108.92 233.743 108.191 236.951C107.462 240.158 107.724 243.511 108.942 246.566C109.962 243.836 111.526 241.341 113.538 239.234C115.55 237.126 117.969 235.45 120.647 234.306C118.818 236.515 117.589 239.16 117.078 241.985C116.568 244.809 116.794 247.718 117.735 250.429" fill="#F1463B"/>
<path d="M117.734 250.442C117.687 250.351 117.65 250.254 117.622 250.155C117.559 249.966 117.447 249.685 117.335 249.314C117.027 248.211 116.835 247.078 116.761 245.935C116.654 244.128 116.836 242.315 117.3 240.565C117.908 238.251 119.015 236.097 120.542 234.256L120.703 234.474C118.05 235.621 115.656 237.292 113.663 239.386C111.67 241.481 110.118 243.956 109.102 246.664L108.948 247.085L108.78 246.671C107.934 244.538 107.542 242.251 107.63 239.957C107.718 237.664 108.284 235.414 109.291 233.352C110.178 231.531 111.404 229.896 112.904 228.536L113.044 228.852C106.934 229.573 101.076 231.709 95.933 235.09L95.625 235.294L95.695 234.929C96.0061 233.237 96.5977 231.61 97.4453 230.113C98.1964 228.758 99.1397 227.518 100.246 226.433C102.013 224.642 104.149 223.26 106.505 222.381C108.012 221.816 109.596 221.485 111.202 221.4C111.763 221.4 112.19 221.4 112.47 221.4H112.799H112.904H112.799H112.47C112.183 221.4 111.77 221.4 111.209 221.4C109.619 221.522 108.054 221.879 106.568 222.458C104.252 223.351 102.157 224.735 100.428 226.517C99.3503 227.593 98.4331 228.818 97.7043 230.155C96.8832 231.628 96.3107 233.227 96.0101 234.887L95.765 234.726C100.942 231.304 106.848 229.144 113.009 228.417L113.576 228.354L113.149 228.732C111.695 230.064 110.507 231.66 109.648 233.436C108.657 235.455 108.099 237.66 108.01 239.908C107.921 242.156 108.302 244.397 109.13 246.489H108.808C109.917 243.553 111.646 240.892 113.877 238.687C115.819 236.763 118.109 235.228 120.626 234.165L121.158 233.941L120.787 234.382C119.271 236.189 118.165 238.303 117.545 240.579C117.072 242.306 116.871 244.097 116.95 245.886C117.005 247.019 117.174 248.144 117.454 249.244C117.545 249.622 117.643 249.91 117.692 250.099C117.718 250.212 117.732 250.327 117.734 250.442Z" fill="#172A3F"/>
<path d="M257.463 243.152C261.737 242.246 266.193 242.843 270.079 244.841C273.966 246.839 277.046 250.117 278.802 254.123" fill="#F1463B"/>
<path d="M278.802 254.123C278.732 254.158 278.193 252.791 276.828 250.891C275.049 248.414 272.707 246.396 269.997 245.003C267.286 243.61 264.283 242.882 261.236 242.879C258.898 242.879 257.47 243.229 257.463 243.152C257.782 243.036 258.113 242.953 258.45 242.907C259.374 242.732 260.311 242.639 261.25 242.626C264.352 242.556 267.422 243.262 270.182 244.679C272.942 246.097 275.306 248.181 277.059 250.744C277.592 251.512 278.06 252.324 278.459 253.169C278.609 253.473 278.724 253.793 278.802 254.123Z" fill="#172A3F"/>
<g opacity="0.3">
<path opacity="0.3" d="M208.833 254.803C203.751 255.616 197.282 259.464 194.922 264.028C194.418 265.002 194.88 265.136 194.922 266.229C194.923 266.78 195.078 267.32 195.37 267.787C195.662 268.255 196.08 268.63 196.574 268.872C196.825 268.974 197.095 269.022 197.365 269.013C197.636 269.004 197.901 268.938 198.145 268.82C198.389 268.702 198.605 268.534 198.779 268.326C198.954 268.119 199.083 267.877 199.158 267.617C198.551 271.352 199.365 275.179 201.44 278.342C202.87 277.535 204.022 276.313 204.745 274.837C204.612 277.576 205.04 280.313 206.003 282.88C206.967 285.446 208.444 287.788 210.346 289.762L207.867 280.081C206.978 276.576 206.117 273.597 206.355 270C206.607 266.159 208.889 262.92 210.661 259.738C208.224 260.796 205.403 265.591 203.001 268.514C202.857 265.97 203.292 263.427 204.274 261.076C205.255 258.725 206.756 256.628 208.665 254.943" fill="#172A3F"/>
</g>
<path d="M207.881 280.193C207.801 280.063 207.735 279.924 207.685 279.779C207.58 279.499 207.377 279.078 207.209 278.539C206.684 276.965 206.366 275.33 206.264 273.674C206.098 271.153 206.395 268.622 207.139 266.208C208.055 263.14 209.689 260.335 211.907 258.027L212.152 258.28C210.105 260.116 208.163 262.066 206.334 264.119C205.152 265.469 204.108 266.935 203.218 268.493L202.945 268.977L202.882 268.43C202.573 265.539 203.098 262.62 204.395 260.018C205.468 257.813 207.064 255.905 209.043 254.459L209.176 254.698C207.785 255.216 206.51 256.005 205.424 257.018C204.605 257.779 203.897 258.652 203.323 259.612C202.959 260.223 202.646 260.863 202.385 261.525C202.311 261.764 202.222 261.998 202.119 262.226C202.111 262.166 202.111 262.105 202.119 262.044C202.154 261.918 202.196 261.736 202.273 261.504C202.504 260.82 202.802 260.16 203.162 259.535C203.73 258.545 204.437 257.643 205.263 256.857C206.362 255.812 207.656 254.995 209.071 254.452L210.009 254.095L209.197 254.691C207.288 256.131 205.753 258.012 204.724 260.172C203.477 262.72 202.975 265.568 203.274 268.388L202.938 268.318C203.841 266.739 204.896 265.253 206.089 263.881C207.928 261.816 209.885 259.86 211.949 258.02L212.194 258.273C210.009 260.536 208.387 263.284 207.461 266.292C206.709 268.672 206.391 271.167 206.523 273.66C206.604 275.302 206.884 276.929 207.356 278.504C207.51 279.057 207.692 279.464 207.776 279.751C207.82 279.896 207.856 280.044 207.881 280.193Z" fill="#172A3F"/>
<path d="M124.812 279.45C127.562 282.505 131.181 284.643 135.181 285.577C135.399 285.664 135.635 285.693 135.867 285.661C136.099 285.629 136.318 285.537 136.504 285.395C136.91 284.946 136.574 284.238 136.238 283.74L131.793 277.165C134.957 279.669 138.71 281.32 142.693 281.96C143.358 282.065 144.178 282.065 144.514 281.49C144.609 281.237 144.645 280.965 144.617 280.696C144.589 280.427 144.498 280.169 144.353 279.941C143.652 278.441 142.952 276.962 142.126 275.518" fill="#F1463B"/>
<path d="M142.127 275.489C142.213 275.597 142.285 275.715 142.344 275.84L142.904 276.891C143.156 277.361 143.443 277.922 143.779 278.56C143.957 278.887 144.139 279.237 144.325 279.611C144.558 280.004 144.708 280.441 144.766 280.894C144.786 281.165 144.706 281.434 144.542 281.651C144.362 281.866 144.116 282.014 143.842 282.072C143.301 282.155 142.749 282.128 142.218 281.995C141.061 281.796 139.921 281.507 138.808 281.132C136.231 280.271 133.822 278.969 131.688 277.284L131.954 277.038L132.725 278.181L135.203 281.854L136.386 283.6C136.596 283.899 136.75 284.234 136.841 284.588C136.895 284.783 136.885 284.99 136.813 285.179C136.741 285.368 136.611 285.53 136.442 285.64C136.113 285.806 135.734 285.846 135.378 285.752C135.049 285.696 134.755 285.598 134.447 285.528C133.838 285.352 133.257 285.17 132.711 284.96C131.689 284.575 130.7 284.106 129.756 283.558C128.387 282.77 127.12 281.816 125.982 280.719C125.583 280.326 125.282 280.018 125.1 279.786C124.995 279.677 124.901 279.558 124.82 279.429C124.943 279.517 125.056 279.618 125.156 279.73C125.359 279.941 125.667 280.242 126.081 280.614C127.242 281.66 128.517 282.572 129.882 283.333C130.822 283.86 131.803 284.31 132.816 284.679C133.362 284.883 133.936 285.058 134.531 285.226C135.126 285.394 135.791 285.626 136.267 285.359C136.378 285.285 136.461 285.176 136.505 285.049C136.548 284.922 136.548 284.785 136.505 284.658C136.423 284.35 136.282 284.06 136.092 283.803C135.707 283.235 135.315 282.653 134.909 282.065C134.106 280.873 133.278 279.649 132.423 278.391L131.653 277.249L130.953 276.267L131.912 276.996C134.932 279.388 138.489 281.005 142.274 281.707C142.767 281.839 143.281 281.872 143.786 281.805C144 281.777 144.195 281.669 144.331 281.502C144.468 281.336 144.536 281.123 144.521 280.908C144.473 280.484 144.34 280.074 144.129 279.702C143.947 279.331 143.772 279.001 143.611 278.644L142.792 276.954L142.288 275.875C142.217 275.754 142.163 275.624 142.127 275.489Z" fill="#172A3F"/>
<g opacity="0.3">
<path opacity="0.3" d="M142.085 235.834C143.632 238.448 145.897 240.563 148.61 241.925C148.455 240.485 147.858 239.129 146.901 238.042C149.856 240.859 153.356 243.04 157.186 244.449C155.555 245.176 153.775 245.505 151.993 245.408C150.21 245.311 148.476 244.791 146.934 243.892C145.391 242.992 144.084 241.738 143.121 240.234C142.157 238.729 141.564 237.017 141.392 235.238" fill="#172A3F"/>
</g>
<g opacity="0.3">
<path opacity="0.3" d="M123.35 190.15C128.908 200.854 146.887 206.139 160.987 206.371C165.342 206.434 171.489 209.658 175.802 209.238C185.484 208.305 193.346 203.083 203.05 202.228C209.092 201.716 215.169 201.527 221.141 200.51C227.113 199.494 226.84 198.786 231.586 195.007C236.333 191.229 241.465 187.486 241.388 181.415C232.469 192.351 223.654 195.737 209.925 198.94C196.196 202.144 181.921 202.074 167.842 201.422C152.348 200.721 136.085 199.01 123.35 190.143" fill="#172A3F"/>
</g>
<path d="M171.18 108.048C171.243 108.048 171.299 108.84 171.509 110.095C171.787 111.728 172.233 113.328 172.84 114.869C173.461 116.407 174.237 117.877 175.157 119.257C175.576 119.806 175.966 120.377 176.326 120.967C176.326 120.967 176.165 120.848 175.92 120.582C175.571 120.21 175.246 119.817 174.947 119.404C173.951 118.048 173.13 116.571 172.504 115.009C171.876 113.435 171.457 111.785 171.257 110.102C171.191 109.597 171.154 109.089 171.145 108.581C171.131 108.402 171.143 108.223 171.18 108.048Z" fill="#F1463B"/>
<path d="M175.753 106.303C175.816 106.303 175.536 107.004 175.263 108.174C174.918 109.686 174.802 111.241 174.92 112.787C175.046 114.331 175.408 115.846 175.991 117.28C176.439 118.388 176.824 119.026 176.768 119.054C176.712 119.082 176.635 118.921 176.446 118.64C176.183 118.24 175.949 117.82 175.746 117.386C174.403 114.481 174.142 111.191 175.011 108.111C175.136 107.65 175.297 107.2 175.494 106.765C175.641 106.429 175.732 106.261 175.753 106.303Z" fill="#F1463B"/>
<path d="M90.0674 222.809C90.1506 222.708 90.2445 222.616 90.3474 222.535C90.5365 222.367 90.8095 222.101 91.1946 221.834C92.2703 220.978 93.4076 220.203 94.5971 219.514C98.5486 217.272 102.849 215.713 107.318 214.902C111.774 214.089 116.288 213.639 120.816 213.556C122.552 213.514 123.953 213.5 124.919 213.5H126.039C126.169 213.488 126.301 213.488 126.431 213.5C126.303 213.531 126.171 213.548 126.039 213.549L124.926 213.605L120.823 213.78C116.317 213.924 111.827 214.392 107.388 215.182C102.957 215.992 98.6818 217.502 94.7231 219.654C93.5345 220.324 92.3866 221.064 91.2856 221.869C90.5085 222.493 90.0884 222.83 90.0674 222.809Z" fill="#F1463B"/>
<path d="M190.427 109.345C190.427 109.408 189.23 109.008 187.284 108.531C186.152 108.253 184.991 108.114 183.825 108.118C182.409 108.128 181.023 108.523 179.814 109.26C179.2 109.643 178.665 110.141 178.238 110.726C177.855 111.279 177.586 111.903 177.447 112.562C177.247 113.704 177.297 114.876 177.594 115.997C178.077 117.932 178.596 119.081 178.526 119.11C178.367 118.862 178.237 118.596 178.14 118.317C177.823 117.584 177.556 116.83 177.342 116.06C177.001 114.905 176.924 113.688 177.118 112.499C177.256 111.79 177.537 111.118 177.944 110.522C178.395 109.893 178.964 109.358 179.618 108.945C180.884 108.177 182.338 107.774 183.818 107.781C185.002 107.793 186.18 107.963 187.319 108.286C188.292 108.545 189.062 108.812 189.594 108.987C189.883 109.078 190.162 109.198 190.427 109.345Z" fill="#F1463B"/>
<path d="M295.464 285.016C294.708 279.983 292.244 275.027 288.036 272.159C283.829 269.292 277.773 268.956 273.768 272.103L257.147 294.606L292.531 294.753C294.505 292.923 295.863 287.68 295.464 285.016Z" fill="#F1463B"/>
<g opacity="0.3">
<path opacity="0.3" d="M271.934 294.283C274.923 293.035 277.129 290.351 278.487 287.406C279.845 284.462 280.44 281.238 281.035 278.048C281.526 275.405 281.988 272.552 280.839 270.113C280.565 270.098 280.292 270.155 280.047 270.278C279.801 270.401 279.592 270.585 279.439 270.814C279.132 271.279 278.907 271.793 278.774 272.335C276.037 280.985 271.815 288.458 264.919 294.311" fill="#172A3F"/>
</g>
<g opacity="0.3">
<path opacity="0.3" d="M166.833 118.507C170.334 128.609 170.775 139.537 170.397 150.186C170.208 155.499 169.809 160.869 168.149 165.923C166.49 170.977 163.445 175.737 158.922 178.541C154.651 181.184 149.372 181.878 144.388 181.219C139.403 180.56 134.67 178.646 130.182 176.389C125.058 173.809 120.122 170.725 116.145 166.575C112.169 162.425 108.906 156.628 108.248 150.929L115.627 151.735C115.627 151.735 121.305 151.132 130.133 142.58C139.781 133.242 141.538 132.1 148.763 127.235C154.367 123.525 160.445 120.589 166.833 118.507Z" fill="white"/>
</g>
<g opacity="0.3">
<path opacity="0.3" d="M197.331 180.77C198.726 179.982 200.341 179.673 201.929 179.889C203.516 180.105 204.99 180.836 206.124 181.969C207.247 180.499 208.767 179.381 210.503 178.748C212.24 178.114 214.122 177.991 215.926 178.393C213.738 179.255 211.701 180.459 209.891 181.962C208.162 183.553 206.915 185.838 207.132 188.179C204.969 185.846 202.481 183.837 199.746 182.214C198.612 181.513 197.121 180.945 196.057 181.73" fill="#172A3F"/>
</g>
<path d="M221.442 259.745C217.378 262.666 214.382 266.841 212.914 271.629C211.446 276.418 211.587 281.556 213.314 286.257" fill="#F1463B"/>
<path d="M213.314 286.257C213.257 286.173 213.212 286.08 213.181 285.983C213.111 285.794 212.992 285.528 212.873 285.163C212.532 284.15 212.272 283.112 212.096 282.058C211.485 278.56 211.709 274.968 212.749 271.574C213.789 268.179 215.617 265.08 218.082 262.528C218.819 261.762 219.618 261.059 220.47 260.425C220.764 260.193 221.016 260.032 221.17 259.92C221.324 259.808 221.429 259.759 221.436 259.773C221.153 260.043 220.856 260.298 220.547 260.537C219.74 261.219 218.978 261.952 218.264 262.731C215.881 265.293 214.11 268.362 213.084 271.709C212.058 275.056 211.804 278.592 212.341 282.051C212.497 283.097 212.719 284.131 213.006 285.149C213.134 285.511 213.237 285.881 213.314 286.257Z" fill="#172A3F"/>
<path d="M235.368 235.476C238.231 233.275 241.928 230.962 245.169 232.511C246.067 233.004 246.837 233.701 247.417 234.545C247.997 235.39 248.371 236.36 248.509 237.376C248.761 239.41 248.632 241.473 248.131 243.46C245.78 255.056 240.672 265.912 233.239 275.111C230.544 278.447 226.707 281.826 222.521 280.908C218.614 280.046 216.395 275.573 216.626 271.571C216.857 267.568 218.873 263.93 220.742 260.355C225.181 251.943 229.494 242.717 235.347 235.448" fill="#F1463B"/>
<path d="M235.368 235.476C235.312 235.568 235.251 235.657 235.186 235.742L234.626 236.492C234.128 237.151 233.407 238.14 232.525 239.437C230.085 243.133 227.851 246.962 225.832 250.905L221.632 259.065C220.147 262.009 218.278 265.051 217.305 268.612C216.782 270.421 216.684 272.326 217.018 274.178C217.37 276.107 218.324 277.874 219.741 279.225C220.476 279.888 221.356 280.368 222.311 280.627C223.288 280.881 224.311 280.907 225.3 280.705C227.325 280.182 229.172 279.124 230.649 277.641C232.16 276.177 233.535 274.579 234.759 272.867C236.019 271.213 237.153 269.503 238.259 267.806C242.18 261.538 245.146 254.719 247.059 247.575C247.48 245.986 247.839 244.439 248.138 242.935C248.454 241.508 248.598 240.049 248.565 238.588C248.481 235.833 247.038 233.331 244.987 232.497C244.044 232.098 243.008 231.974 241.998 232.139C241.146 232.283 240.317 232.54 239.533 232.903C238.448 233.418 237.41 234.028 236.432 234.726L235.662 235.273C235.494 235.392 235.396 235.448 235.396 235.448L235.641 235.245C235.809 235.104 236.054 234.915 236.39 234.67C237.353 233.941 238.385 233.307 239.47 232.777C240.261 232.391 241.103 232.12 241.97 231.971C243.093 231.764 244.253 231.916 245.285 232.407C246.317 232.898 247.168 233.702 247.718 234.705C248.395 235.885 248.772 237.214 248.817 238.574C248.865 240.055 248.731 241.536 248.418 242.984C248.117 244.498 247.767 246.054 247.354 247.652C245.454 254.83 242.493 261.682 238.567 267.981C237.475 269.692 236.334 271.402 235.067 273.071C233.831 274.802 232.441 276.419 230.915 277.901C229.391 279.429 227.482 280.516 225.391 281.048C224.348 281.26 223.27 281.229 222.241 280.957C221.229 280.677 220.297 280.161 219.524 279.45C218.058 278.044 217.077 276.208 216.724 274.206C216.379 272.302 216.482 270.344 217.025 268.486C218.026 264.855 219.916 261.813 221.401 258.882C222.885 255.952 224.355 253.232 225.657 250.744C227.699 246.804 229.971 242.989 232.462 239.317C233.358 238.028 234.1 237.053 234.612 236.408L235.207 235.707C235.257 235.628 235.311 235.551 235.368 235.476Z" fill="#172A3F"/>
<g opacity="0.3">
<path opacity="0.3" d="M235.717 245.473V245.508C236.418 243.531 237.909 242.963 239.512 242.381C241.115 241.799 243.055 241.862 244.343 242.984C245.827 244.274 246.016 246.545 245.617 248.473C245.523 249.154 245.244 249.796 244.812 250.331C244.588 250.59 244.288 250.771 243.954 250.848C243.621 250.925 243.271 250.894 242.957 250.758C242.257 250.373 242.039 249.356 241.297 249.048C240.555 248.739 239.575 249.433 238.679 249.658C238.066 249.776 237.431 249.679 236.881 249.383C236.331 249.086 235.9 248.609 235.661 248.031C235.501 247.622 235.423 247.186 235.432 246.746C235.442 246.307 235.539 245.874 235.717 245.473Z" fill="#172A3F"/>
</g>
<g opacity="0.3">
<path opacity="0.3" d="M238.77 235.602C239.13 235.763 239.43 236.033 239.627 236.374C239.825 236.715 239.909 237.11 239.87 237.502C239.835 238.382 239.643 239.248 239.302 240.061C239.057 240.762 238.644 241.54 237.902 241.568C237.694 241.562 237.491 241.503 237.312 241.396C237.133 241.289 236.984 241.138 236.88 240.958C236.679 240.592 236.567 240.184 236.551 239.766C236.481 238.811 236.63 237.852 236.985 236.962C237.138 236.498 237.426 236.091 237.811 235.791C238.006 235.644 238.243 235.564 238.487 235.564C238.731 235.564 238.968 235.644 239.162 235.791" fill="#172A3F"/>
</g>
<g opacity="0.3">
<path opacity="0.3" d="M247.157 237.327C247.516 237.487 247.816 237.757 248.014 238.098C248.211 238.439 248.296 238.834 248.256 239.226C248.22 240.106 248.028 240.973 247.689 241.785C247.444 242.486 247.024 243.264 246.289 243.292C246.08 243.287 245.877 243.228 245.697 243.122C245.518 243.015 245.37 242.863 245.266 242.682C245.059 242.319 244.946 241.909 244.937 241.491C244.869 240.536 245.015 239.578 245.364 238.687C245.52 238.222 245.81 237.815 246.198 237.516C246.392 237.367 246.629 237.287 246.873 237.287C247.117 237.287 247.355 237.367 247.549 237.516" fill="#172A3F"/>
</g>
<g opacity="0.3">
<path opacity="0.3" d="M243.615 234.116C243.973 234.28 244.271 234.552 244.468 234.894C244.665 235.236 244.751 235.63 244.714 236.023C244.676 236.9 244.484 237.764 244.147 238.575C243.895 239.276 243.482 240.061 242.746 240.082C242.538 240.077 242.335 240.018 242.155 239.911C241.976 239.804 241.828 239.653 241.724 239.472C241.523 239.109 241.412 238.702 241.402 238.287C241.326 237.332 241.473 236.372 241.829 235.483C241.982 235.017 242.272 234.609 242.662 234.313C242.856 234.166 243.092 234.086 243.335 234.086C243.577 234.086 243.813 234.166 244.007 234.313" fill="#172A3F"/>
</g>
<g opacity="0.3">
<path opacity="0.3" d="M240.898 262.773C240.339 267.014 239.187 271.156 237.474 275.076C235.748 279.011 233.107 282.477 229.773 285.184C228.233 286.39 226.426 287.427 224.473 287.476C221.708 287.546 219.187 285.563 217.941 283.088C216.695 280.613 216.541 277.739 216.667 274.977C218.004 277.214 219.509 279.597 221.932 280.585C223.002 280.945 224.138 281.068 225.26 280.947C226.383 280.826 227.466 280.464 228.436 279.884C230.368 278.712 232.058 277.18 233.414 275.37C236.413 271.704 238.879 267.63 240.737 263.271" fill="#172A3F"/>
</g>
<path d="M84.095 236.037C80.6504 234.978 76.3938 234.102 73.8594 236.696C73.1953 237.476 72.7228 238.401 72.4797 239.397C72.2366 240.392 72.2295 241.431 72.4592 242.43C72.9324 244.426 73.7728 246.316 74.9376 248.003C81.1957 258.039 89.7729 266.42 99.9454 272.44C103.635 274.613 108.41 276.436 112.008 274.101C115.376 271.928 115.88 266.958 114.27 263.292C112.659 259.626 109.509 256.899 106.491 254.214C99.3924 247.905 92.1252 240.769 84.088 235.988" fill="#F1463B"/>
<path d="M84.0947 236.037C84.0947 236.037 84.1927 236.079 84.3818 236.184L85.1869 236.661C85.887 237.088 86.9302 237.74 88.2254 238.63C91.8417 241.198 95.3039 243.976 98.594 246.951L105.434 253.078C107.849 255.3 110.685 257.487 112.89 260.537C114.05 262.085 114.834 263.883 115.18 265.787C115.539 267.79 115.257 269.856 114.374 271.69C113.895 272.623 113.205 273.432 112.358 274.052C111.488 274.671 110.486 275.079 109.432 275.244C107.279 275.486 105.101 275.137 103.131 274.234C101.177 273.381 99.3025 272.356 97.5298 271.171C95.7655 270.049 94.0923 268.844 92.475 267.631C89.4063 265.256 86.5271 262.645 83.8637 259.822C81.441 257.265 79.2042 254.538 77.1706 251.662C76.2255 250.309 75.3504 248.97 74.5452 247.659C73.743 246.414 73.0964 245.074 72.6199 243.671C72.1867 242.38 72.0761 241.004 72.2979 239.661C72.4612 238.529 72.9767 237.477 73.771 236.656C74.5653 235.834 75.5981 235.284 76.7226 235.083C77.588 234.923 78.4712 234.88 79.348 234.957C80.5506 235.078 81.7391 235.313 82.8975 235.658C83.2966 235.77 83.5976 235.861 83.7937 235.931L84.0947 236.044L83.7867 235.967L82.8765 235.728C81.7157 235.419 80.5305 235.21 79.334 235.104C78.4721 235.041 77.6057 235.093 76.7576 235.259C75.7513 235.462 74.8238 235.949 74.0832 236.661C72.4519 238.168 71.9828 241.014 72.865 243.621C73.344 245 73.9882 246.316 74.7833 247.54C75.5954 248.844 76.4729 250.169 77.4157 251.515C81.7096 257.533 86.8747 262.877 92.7411 267.371C94.3513 268.584 96.0176 269.783 97.7748 270.876C99.521 272.051 101.37 273.064 103.299 273.905C105.198 274.78 107.297 275.124 109.376 274.9C110.384 274.747 111.343 274.36 112.176 273.772C112.979 273.188 113.632 272.422 114.08 271.535C114.934 269.773 115.208 267.785 114.864 265.857C114.533 264.004 113.773 262.254 112.645 260.747C110.489 257.747 107.674 255.553 105.259 253.316L98.454 247.155C95.1838 244.162 91.7504 241.354 88.1694 238.742C86.8952 237.831 85.873 237.165 85.1799 236.717L84.3888 236.212L84.0947 236.037Z" fill="#172A3F"/>
<g opacity="0.3">
<path opacity="0.3" d="M87.2732 245.515C85.922 243.909 84.3327 243.895 82.6245 243.916C80.9162 243.937 79.1239 244.68 78.3118 246.174C77.3736 247.912 77.9897 250.099 79.0119 251.782C79.333 252.388 79.8183 252.89 80.4121 253.233C80.7106 253.4 81.0551 253.467 81.3944 253.423C81.7337 253.378 82.0497 253.226 82.2954 252.987C82.8205 252.377 82.6735 251.361 83.2476 250.8C83.8216 250.239 85.0048 250.555 85.915 250.457C86.5306 250.352 87.0915 250.039 87.5034 249.569C87.9152 249.099 88.1529 248.502 88.1763 247.877C88.1951 247.002 87.8709 246.154 87.2732 245.515Z" fill="#172A3F"/>
</g>
<g opacity="0.3">
<path opacity="0.3" d="M80.9515 237.341C80.6709 237.619 80.4848 237.979 80.4195 238.369C80.3542 238.759 80.4129 239.159 80.5875 239.514C80.9211 240.322 81.3951 241.065 81.9877 241.708C82.4568 242.262 83.1289 242.865 83.815 242.633C84.0084 242.555 84.1783 242.428 84.3083 242.265C84.4384 242.101 84.524 241.907 84.5571 241.701C84.6201 241.29 84.5841 240.869 84.4521 240.474C84.1778 239.552 83.6991 238.704 83.0518 237.993C82.746 237.609 82.3309 237.328 81.8617 237.187C81.6271 237.122 81.378 237.136 81.1519 237.226C80.9258 237.315 80.7351 237.476 80.6085 237.684" fill="#172A3F"/>
</g>
<g opacity="0.3">
<path opacity="0.3" d="M73.7046 241.904C73.4246 242.181 73.2388 242.539 73.1735 242.928C73.1081 243.317 73.1666 243.716 73.3406 244.07C73.6738 244.879 74.1479 245.622 74.7408 246.264C75.2168 246.818 75.882 247.421 76.5751 247.19C76.7677 247.11 76.937 246.983 77.0668 246.82C77.1967 246.657 77.2829 246.463 77.3172 246.257C77.3779 245.845 77.3395 245.425 77.2052 245.03C76.9336 244.107 76.4546 243.258 75.8049 242.549C75.4991 242.165 75.084 241.884 74.6148 241.743C74.3802 241.678 74.1311 241.692 73.905 241.782C73.6789 241.871 73.4882 242.032 73.3616 242.24" fill="#172A3F"/>
</g>
<g opacity="0.3">
<path opacity="0.3" d="M75.9038 237.656C75.6238 237.934 75.438 238.292 75.3727 238.681C75.3074 239.069 75.3658 239.469 75.5398 239.822C75.873 240.631 76.3471 241.374 76.94 242.017C77.4161 242.57 78.0812 243.173 78.7743 242.942C78.9673 242.863 79.1369 242.736 79.2669 242.573C79.3968 242.41 79.4827 242.216 79.5164 242.01C79.5772 241.598 79.5388 241.177 79.4044 240.783C79.1328 239.86 78.6538 239.011 78.0042 238.301C77.6983 237.918 77.2832 237.637 76.814 237.495C76.5794 237.431 76.3303 237.444 76.1042 237.534C75.8781 237.624 75.6874 237.785 75.5608 237.993" fill="#172A3F"/>
</g>
<g opacity="0.3">
<path opacity="0.3" d="M88.5049 263.537C90.5053 267.306 93.0246 270.775 95.989 273.842C98.9692 276.929 102.645 279.256 106.708 280.628C108.57 281.223 110.621 281.56 112.47 280.922C115.088 280.018 116.747 277.277 117.048 274.522C117.349 271.767 116.509 269.012 115.403 266.474C114.934 269.04 114.36 271.802 112.428 273.554C111.558 274.267 110.545 274.783 109.457 275.066C108.369 275.35 107.233 275.393 106.127 275.195C103.906 274.777 101.786 273.937 99.8816 272.72C95.7926 270.335 92.0594 267.385 88.7919 263.958" fill="#172A3F"/>
</g>
<g opacity="0.3">
<path opacity="0.3" d="M85.9012 259.731C85.6982 260.011 85.4952 260.299 85.2991 260.586C86.1638 259.19 87.3021 257.983 88.6455 257.04C89.9889 256.096 91.5093 255.435 93.115 255.096C94.7207 254.758 96.3783 254.749 97.9876 255.069C99.597 255.39 101.125 256.034 102.478 256.963C103.832 257.892 104.984 259.085 105.864 260.472C106.744 261.859 107.334 263.41 107.598 265.031C107.863 266.653 107.796 268.311 107.403 269.906C107.009 271.501 106.297 273 105.308 274.312C97.4374 271.09 90.3122 266.282 84.375 260.187" fill="white"/>
</g>
<path d="M283.556 252.812C283.562 252.969 283.55 253.127 283.521 253.282C283.472 253.632 283.409 254.074 283.339 254.628C283.178 255.798 282.905 257.481 282.52 259.535C281.567 264.958 280.133 270.286 278.235 275.454C277.144 278.29 275.826 281.033 274.294 283.656C273.937 284.259 273.551 284.82 273.201 285.381L272.669 286.201L272.102 286.965L271.024 288.402C270.653 288.843 270.282 289.257 269.932 289.65C269.582 290.042 269.267 290.442 268.917 290.764L267.951 291.697L267.103 292.503L266.333 293.113L265.262 293.954C265.144 294.06 265.012 294.149 264.87 294.22C264.976 294.102 265.091 293.992 265.213 293.891L266.242 293.007L266.984 292.377L267.804 291.549L268.749 290.61C269.092 290.281 269.393 289.874 269.736 289.481L270.8 288.227L271.857 286.783L272.41 286.025C272.585 285.759 272.753 285.486 272.928 285.205C273.278 284.644 273.628 284.084 274.007 283.488C275.498 280.87 276.787 278.142 277.864 275.328C279.761 270.186 281.234 264.897 282.268 259.514C282.681 257.453 282.968 255.777 283.199 254.607C283.297 254.06 283.381 253.618 283.444 253.275C283.47 253.118 283.507 252.963 283.556 252.812Z" fill="#172A3F"/>
<path d="M122.489 210.289C122.581 210.163 122.689 210.05 122.811 209.953L123.784 209.041C124.212 208.642 124.737 208.165 125.367 207.639C125.997 207.114 126.697 206.476 127.509 205.831C129.112 204.506 131.08 203.027 133.327 201.414C135.574 199.802 138.116 198.197 140.86 196.599C143.605 195 146.3 193.626 148.778 192.449C151.257 191.271 153.553 190.346 155.499 189.596C156.466 189.21 157.355 188.895 158.132 188.628C158.909 188.362 159.588 188.13 160.141 187.962L161.422 187.57C161.567 187.516 161.717 187.478 161.87 187.458C161.733 187.53 161.59 187.591 161.443 187.64L160.183 188.095C159.637 188.285 158.972 188.523 158.202 188.796C157.432 189.07 156.55 189.406 155.59 189.806C153.665 190.57 151.39 191.558 148.925 192.729C146.461 193.9 143.815 195.33 141.014 196.9C138.214 198.47 135.749 200.125 133.488 201.681C131.227 203.237 129.287 204.723 127.642 206.02C126.823 206.651 126.109 207.261 125.472 207.787C124.835 208.312 124.289 208.761 123.854 209.147L122.832 210.009C122.729 210.115 122.614 210.209 122.489 210.289Z" fill="#172A3F"/>
<path d="M102.78 198.582C102.78 198.582 102.822 198.547 102.906 198.484L103.298 198.218L104.839 197.236C105.504 196.809 106.323 196.297 107.303 195.743C108.283 195.19 109.403 194.517 110.635 193.872L112.596 192.827C113.296 192.47 113.996 192.126 114.759 191.762C116.243 191.012 117.882 190.311 119.59 189.546C123.041 188.088 126.892 186.63 131.023 185.34C135.153 184.051 139.165 183.118 142.84 182.389C144.682 182.06 146.432 181.723 148.084 181.506C148.903 181.394 149.702 181.261 150.465 181.177L152.677 180.931C154.077 180.763 155.358 180.693 156.479 180.609C157.599 180.525 158.579 180.476 159.363 180.454L161.183 180.405H161.652C161.708 180.395 161.765 180.395 161.82 180.405H161.659L161.183 180.447L159.37 180.567C158.579 180.609 157.613 180.665 156.5 180.777C155.386 180.889 154.105 180.966 152.705 181.155L150.5 181.422C149.737 181.513 148.945 181.653 148.126 181.772C146.481 181.997 144.738 182.347 142.904 182.684C139.249 183.434 135.251 184.401 131.128 185.656C127.004 186.911 123.167 188.376 119.723 189.813C118.015 190.563 116.376 191.257 114.892 191.993C114.143 192.357 113.408 192.694 112.722 193.037L110.755 194.061C109.494 194.692 108.388 195.337 107.408 195.877C106.428 196.416 105.588 196.907 104.909 197.314L103.34 198.239L102.927 198.47C102.836 198.568 102.78 198.589 102.78 198.582Z" fill="#172A3F"/>
<path d="M186.212 175.478C186.254 175.583 184.448 176.347 182.453 177.686C180.457 179.025 179.05 180.392 178.952 180.307C180.864 178.049 183.373 176.375 186.191 175.478H186.212Z" fill="#172A3F"/>
<path d="M198.059 179.284C198.059 179.354 197.023 178.885 195.308 178.45C193.073 177.866 190.757 177.652 188.453 177.819C186.149 177.915 183.893 178.516 181.844 179.579C181.029 180.07 180.327 180.729 179.786 181.513C179.858 181.258 179.979 181.02 180.143 180.812C180.568 180.231 181.101 179.736 181.711 179.354C183.238 178.352 185.695 177.658 188.425 177.447C190.769 177.278 193.123 177.529 195.378 178.191C196.057 178.381 196.724 178.615 197.373 178.892C197.615 178.997 197.845 179.129 198.059 179.284Z" fill="#172A3F"/>
<path d="M175.053 185.13L175.872 187.093C176.114 187.601 176.279 188.142 176.362 188.698C176.401 188.978 176.381 189.263 176.301 189.533C176.221 189.804 176.084 190.055 175.9 190.268C175.585 190.535 175.191 190.691 174.779 190.713C174.367 190.734 173.959 190.62 173.617 190.388C172.954 189.896 172.464 189.206 172.217 188.418C171.923 187.647 171.727 186.834 171.37 186.091C171.824 185.676 172.167 185.154 172.366 184.572C172.565 183.99 172.615 183.367 172.511 182.761C172.511 182.761 173.218 185.004 175.053 185.13Z" fill="#F3F4F5"/>
<path d="M163.62 177.98C164.24 176.73 165.114 175.623 166.186 174.729C167.257 173.836 168.503 173.177 169.844 172.793C174.311 171.615 178.945 176.298 178.945 176.298C178.945 176.298 173.548 174.707 173.625 177.392C173.702 180.076 175.291 180.013 173.499 181.78C171.706 183.546 168.633 181.689 167.898 179.607L166.456 177.574L163.62 177.98Z" fill="#172A3F"/>
<path d="M182.117 180.608C182.117 180.608 182.117 180.7 182.152 180.861C182.175 181.106 182.175 181.352 182.152 181.597C182.024 182.495 181.661 183.344 181.102 184.057C180.693 184.599 180.179 185.052 179.591 185.39C179.002 185.727 178.352 185.941 177.678 186.02C176.847 186.084 176.012 185.95 175.242 185.629C174.472 185.309 173.788 184.811 173.246 184.176C172.71 183.56 172.333 182.821 172.147 182.024L172.49 181.926C172.701 182.586 172.758 183.285 172.657 183.971C172.557 184.656 172.301 185.309 171.909 185.88C171.38 186.623 170.63 187.18 169.767 187.473C168.904 187.766 167.971 187.78 167.1 187.513C166.916 187.457 166.738 187.385 166.567 187.296C166.455 187.233 166.399 187.198 166.399 187.184C166.399 187.17 166.658 187.282 167.135 187.394C167.807 187.548 168.506 187.548 169.179 187.394C170.187 187.166 171.071 186.562 171.65 185.705C172.004 185.171 172.232 184.564 172.32 183.929C172.407 183.294 172.35 182.648 172.154 182.038L172.497 181.947C172.676 182.684 173.029 183.367 173.527 183.938C174.031 184.53 174.666 184.997 175.382 185.301C176.098 185.605 176.874 185.739 177.65 185.691C178.284 185.622 178.898 185.427 179.457 185.119C180.016 184.811 180.508 184.396 180.906 183.896C181.462 183.224 181.842 182.424 182.012 181.569C182.103 180.98 182.082 180.608 182.117 180.608Z" fill="#172A3F"/>
<path d="M173.464 173.452C173.001 173.521 172.531 173.542 172.064 173.515C170.931 173.503 169.802 173.649 168.71 173.949C167.631 174.264 166.652 174.854 165.868 175.66C165.287 176.298 165.077 176.809 165.021 176.788C165.113 176.302 165.341 175.853 165.679 175.491C166.442 174.581 167.462 173.921 168.605 173.599C169.732 173.286 170.904 173.17 172.071 173.255C172.542 173.248 173.012 173.314 173.464 173.452Z" fill="white"/>
<path d="M174.807 190.872C174.132 189.735 173.623 188.508 173.295 187.226C172.858 185.98 172.603 184.677 172.539 183.357C172.644 183.357 173.015 185.053 173.645 187.121C174.275 189.189 174.905 190.83 174.807 190.872Z" fill="#172A3F"/>
<path d="M124.96 198.729C125.045 198.639 125.139 198.557 125.24 198.484L126.087 197.825C126.787 197.257 127.928 196.479 129.322 195.568C130.715 194.657 132.409 193.633 134.348 192.582C136.288 191.53 138.472 190.479 140.824 189.518C143.177 188.558 145.466 187.773 147.573 187.135C149.681 186.497 151.613 186.034 153.244 185.733C154.876 185.431 156.206 185.172 157.13 185.032L158.194 184.899C158.317 184.885 158.442 184.885 158.565 184.899C158.449 184.949 158.327 184.982 158.201 184.997L157.151 185.193C156.234 185.347 154.918 185.614 153.3 185.978C151.683 186.343 149.8 186.833 147.699 187.471C145.599 188.109 143.331 188.915 140.985 189.869C138.64 190.822 136.477 191.881 134.53 192.897C132.584 193.914 130.89 194.916 129.483 195.799C128.075 196.683 126.962 197.426 126.199 197.958L125.31 198.554C125.079 198.68 124.967 198.743 124.96 198.729Z" fill="#172A3F"/>
<path d="M160.04 167.849C162.063 159.356 156.826 150.831 148.345 148.806C139.863 146.781 131.349 152.024 129.326 160.516C127.304 169.009 132.541 177.534 141.022 179.559C149.503 181.584 158.018 176.341 160.04 167.849Z" fill="#F3F4F5"/>
<path d="M160.484 164.205C160.484 171.832 155.338 178.022 150.983 178.022C146.629 178.022 143.114 171.832 143.114 164.205C143.114 156.578 146.615 150.381 151.011 150.381C155.408 150.381 160.484 156.571 160.484 164.205Z" fill="#172A3F"/>
<path d="M154.484 159.095C155.976 159.095 157.186 157.883 157.186 156.389C157.186 154.895 155.976 153.683 154.484 153.683C152.991 153.683 151.781 154.895 151.781 156.389C151.781 157.883 152.991 159.095 154.484 159.095Z" fill="white"/>
<path d="M147.497 174.244C147.34 174.041 147.208 173.82 147.105 173.585C146.775 172.964 146.492 172.32 146.258 171.657C145.895 170.677 145.611 169.669 145.411 168.643C145.173 167.385 145.042 166.109 145.019 164.829C145.014 163.547 145.12 162.266 145.334 161.002C145.513 159.973 145.776 158.96 146.118 157.973C146.337 157.307 146.606 156.658 146.923 156.032C147.018 155.782 147.145 155.547 147.301 155.331C147.364 155.331 146.881 156.347 146.363 158.029C146.062 159.013 145.828 160.015 145.663 161.03C145.472 162.275 145.378 163.534 145.383 164.794C145.406 166.054 145.525 167.31 145.74 168.551C145.924 169.566 146.179 170.566 146.503 171.545C147.056 173.241 147.56 174.216 147.497 174.244Z" fill="white"/>
<path d="M140.684 144.072C140.642 144.584 140.054 144.977 139.284 145.341C138.514 145.706 137.471 146.042 136.442 146.512C135.413 146.981 134.509 147.388 133.739 147.739C132.969 148.089 132.339 148.299 131.884 148.026C131.429 147.753 131.373 146.988 131.884 145.972C132.575 144.689 133.699 143.695 135.056 143.168C136.355 142.595 137.805 142.462 139.186 142.789C140.173 143.056 140.726 143.582 140.684 144.072Z" fill="#172A3F"/>
<path d="M65.3389 278.749L68.8884 273.183C85.789 291.774 141.63 313.883 191.624 263.909C213.097 242.444 211.361 206.174 211.361 206.174L207.09 192.743H211.361C211.361 192.743 223.738 215.603 210.779 245.536C210.779 245.536 197.477 281.013 156.752 293.905C92.5101 314.22 65.3389 278.749 65.3389 278.749Z" fill="#F1463B"/>
<g opacity="0.7">
<path opacity="0.7" d="M65.3389 278.749L68.8884 273.183C85.789 291.774 141.63 313.883 191.624 263.909C213.097 242.444 211.361 206.174 211.361 206.174L207.09 192.743H211.361C211.361 192.743 223.738 215.603 210.779 245.536C210.779 245.536 197.477 281.013 156.752 293.905C92.5101 314.22 65.3389 278.749 65.3389 278.749Z" fill="white"/>
</g>
<path d="M64.4385 285.531C76.3014 273.674 76.3014 254.451 64.4385 242.594C52.5757 230.737 33.3423 230.737 21.4795 242.594C9.61671 254.451 9.6167 273.674 21.4795 285.531C33.3423 297.388 52.5757 297.388 64.4385 285.531Z" fill="#F1463B"/>
<g opacity="0.7">
<path opacity="0.7" d="M64.4385 285.531C76.3014 273.674 76.3014 254.451 64.4385 242.594C52.5757 230.737 33.3423 230.737 21.4795 242.594C9.61671 254.451 9.6167 273.674 21.4795 285.531C33.3423 297.388 52.5757 297.388 64.4385 285.531Z" fill="white"/>
</g>
<path d="M50.1958 234.523C50.1795 234.718 50.1443 234.91 50.0908 235.098C50.0068 235.504 49.8808 236.051 49.7337 236.745C49.6497 237.103 49.5587 237.502 49.4607 237.93C49.3627 238.357 49.2086 238.82 49.0686 239.332C48.7676 240.327 48.4805 241.477 48.0185 242.704L47.3184 244.638C47.0803 245.339 46.7793 245.991 46.4922 246.706C45.9461 248.143 45.218 249.623 44.4829 251.186C42.7986 254.542 40.8753 257.773 38.728 260.853C36.5366 263.903 34.1291 266.791 31.5239 269.496C30.2847 270.709 29.1365 271.879 27.9603 272.875C27.3863 273.379 26.8402 273.891 26.2871 274.34L24.6838 275.623C23.6827 276.464 22.6955 277.116 21.8834 277.726C21.4563 278.027 21.0713 278.315 20.7002 278.56L19.6711 279.212L18.2708 280.095C18.1112 280.209 17.9399 280.305 17.7598 280.382C17.9085 280.256 18.0652 280.139 18.2288 280.032L19.6291 279.093L20.6372 278.392C21.0013 278.132 21.3793 277.838 21.7994 277.536C22.6255 276.913 23.5987 276.24 24.5998 275.391L26.1821 274.102C26.7352 273.646 27.2672 273.134 27.8343 272.622C28.9965 271.62 30.1377 270.442 31.3349 269.23C33.9014 266.533 36.2781 263.661 38.448 260.635C40.5866 257.572 42.5096 254.363 44.2029 251.032C44.945 249.475 45.6731 248.01 46.2332 246.587C46.5272 245.886 46.8353 245.185 47.0803 244.533C47.3254 243.881 47.5564 243.222 47.7804 242.613C48.2565 241.393 48.5645 240.25 48.8796 239.269C49.0266 238.771 49.1806 238.308 49.2997 237.867C49.4187 237.425 49.5097 237.047 49.6007 236.689C49.7827 235.988 49.9228 235.462 50.0278 235.063C50.0685 234.878 50.1247 234.698 50.1958 234.523Z" fill="#F1463B"/>
<path d="M57.3712 237.621C57.3496 237.828 57.3098 238.032 57.2522 238.231C57.1542 238.659 57.0211 239.233 56.8461 239.962C56.7551 240.341 56.6501 240.762 56.5381 241.217C56.4261 241.673 56.265 242.157 56.104 242.682C55.775 243.727 55.4599 244.947 54.9488 246.229L54.1997 248.269C53.9407 248.97 53.5976 249.671 53.2826 250.442C52.6735 251.95 51.8823 253.499 51.0632 255.132C49.2018 258.642 47.0718 262.003 44.6922 265.184C42.2752 268.332 39.6235 271.292 36.76 274.038C35.4158 275.279 34.1416 276.471 32.8674 277.48C32.2373 277.992 31.6492 278.518 31.0401 278.959L29.2968 280.256C28.2117 281.104 27.1405 281.763 26.2304 282.359C25.3202 282.955 24.5151 283.467 23.85 283.852L22.3098 284.749C22.1349 284.86 21.9524 284.959 21.7637 285.044C21.9247 284.912 22.0956 284.792 22.2748 284.686L23.773 283.733C24.4311 283.326 25.2292 282.829 26.1183 282.191C27.0075 281.553 28.0717 280.887 29.1498 280.032L30.8651 278.749C31.4672 278.3 32.0483 277.767 32.6714 277.256C33.9386 276.239 35.1918 275.048 36.529 273.807C39.361 271.051 41.9908 268.095 44.3982 264.96C46.7642 261.797 48.8892 258.46 50.7552 254.978C51.5813 253.352 52.3794 251.816 53.0025 250.316C53.3176 249.573 53.7026 248.872 53.9267 248.164C54.1507 247.456 54.4517 246.762 54.6968 246.145C55.2219 244.862 55.5509 243.664 55.901 242.64C56.069 242.115 56.244 241.631 56.37 241.182C56.4961 240.734 56.6011 240.32 56.6991 239.941C56.9021 239.24 57.0562 238.652 57.1752 238.231C57.2283 238.024 57.2937 237.82 57.3712 237.621Z" fill="#F1463B"/>
<path d="M64.0013 243.082C63.9661 243.287 63.9146 243.488 63.8473 243.685C63.7213 244.113 63.5462 244.68 63.3292 245.409C63.2172 245.781 63.0842 246.194 62.9511 246.643C62.8181 247.092 62.6151 247.575 62.4261 248.101C62.034 249.132 61.6349 250.33 61.0259 251.606L60.1647 253.618C59.8637 254.319 59.4996 255.02 59.1426 255.763C58.4424 257.249 57.5883 258.777 56.7062 260.397C54.7145 263.857 52.49 267.179 50.0481 270.337C47.5473 273.463 44.8338 276.412 41.9269 279.163C40.5267 280.403 39.2805 281.595 37.9853 282.612C37.3482 283.123 36.7531 283.642 36.137 284.098L34.3797 285.402C33.2735 286.25 32.2024 286.916 31.2852 287.505C30.8232 287.806 30.3961 288.1 29.99 288.346L28.8769 289.005L27.3226 289.902C27.145 290.012 26.9602 290.111 26.7695 290.196C26.9324 290.064 27.1056 289.944 27.2876 289.839L28.7998 288.885L29.899 288.184C30.2981 287.932 30.7181 287.631 31.1732 287.322C32.0764 286.684 33.1335 286.011 34.2257 285.149C34.7858 284.729 35.3669 284.294 35.969 283.831C36.5711 283.369 37.1591 282.85 37.7962 282.331C39.0704 281.315 40.3446 280.116 41.6958 278.882C44.5753 276.126 47.2696 273.183 49.7611 270.071C52.2125 266.93 54.4531 263.631 56.4681 260.193C57.3573 258.581 58.2324 257.074 58.9325 255.595C59.2896 254.894 59.6326 254.193 59.9687 253.492C60.3047 252.791 60.5638 252.125 60.8438 251.494C61.4319 250.232 61.845 249.041 62.244 247.989C62.4471 247.477 62.6361 247.001 62.7971 246.552C62.9581 246.103 63.0842 245.697 63.2102 245.325C63.4552 244.624 63.6513 244.049 63.7913 243.629C63.8485 243.442 63.9187 243.259 64.0013 243.082Z" fill="#F1463B"/>
<path d="M71.962 271.914C71.717 271.853 71.4815 271.758 71.2618 271.634C70.8418 271.437 70.2327 271.129 69.4906 270.743C68.0063 269.972 65.99 268.851 63.7847 267.533C61.5793 266.215 59.661 264.946 58.2818 263.993C57.5817 263.516 57.0426 263.124 56.6646 262.836C56.46 262.705 56.2719 262.55 56.1045 262.374C56.3336 262.462 56.5502 262.579 56.7486 262.724L58.4219 263.776C59.8221 264.673 61.7894 265.879 63.9737 267.217C66.1581 268.556 68.1744 269.692 69.6166 270.519L71.3319 271.508C71.5606 271.612 71.7729 271.749 71.962 271.914Z" fill="#F1463B"/>
<path d="M73.2441 265.339C72.5381 264.941 71.8598 264.496 71.2138 264.007C69.9746 263.159 68.2523 262.009 66.313 260.817C64.3737 259.626 62.5464 258.63 61.2302 257.901C60.5018 257.54 59.7999 257.128 59.1299 256.667C59.3456 256.717 59.5531 256.797 59.746 256.906C60.131 257.074 60.6771 257.333 61.3492 257.67C62.6934 258.371 64.5347 259.317 66.502 260.509C68.4693 261.701 70.1706 262.892 71.4028 263.797C72.0049 264.252 72.488 264.624 72.803 264.897C73.1181 265.171 73.2651 265.325 73.2441 265.339Z" fill="#F1463B"/>
<path d="M54.5426 291.508C54.4376 291.508 54.1995 285.942 54.0105 279.065C53.8215 272.188 53.7445 266.608 53.8425 266.608C53.9405 266.608 54.1785 272.174 54.3746 279.051C54.5706 285.928 54.6406 291.508 54.5426 291.508Z" fill="#F1463B"/>
<path d="M39.5826 294.991C39.3978 292.676 39.337 290.352 39.4003 288.03C39.3368 285.708 39.3977 283.385 39.5826 281.069C39.7634 283.385 39.8242 285.708 39.765 288.03C39.824 290.352 39.7632 292.676 39.5826 294.991Z" fill="#F1463B"/>
<path d="M46.933 294.171C46.8348 294.171 46.7787 289.615 46.8208 284C46.8629 278.385 46.9681 273.821 47.0733 273.821C47.1785 273.821 47.2205 278.378 47.1855 284C47.1504 289.622 47.0312 294.171 46.933 294.171Z" fill="#F1463B"/>
<path d="M31.419 269.489C31.363 269.573 27.4004 267.014 22.5766 263.769C17.7529 260.523 13.8743 257.824 13.9303 257.719C13.9863 257.614 17.9489 260.193 22.7797 263.439C27.6104 266.685 31.475 269.405 31.419 269.489Z" fill="#F1463B"/>
<path d="M26.1329 273.842C25.9228 273.81 25.7194 273.744 25.5308 273.646C25.1597 273.498 24.6206 273.26 23.9695 272.945C22.287 272.122 20.651 271.207 19.0688 270.204C17.2065 269.026 15.5682 267.855 14.434 266.986C13.7906 266.546 13.1884 266.049 12.6348 265.5C13.3143 265.88 13.967 266.306 14.5881 266.776C15.7713 267.596 17.3885 268.725 19.2648 269.895C21.1411 271.066 22.8493 272.033 24.1165 272.699C24.8105 273.04 25.4837 273.422 26.1329 273.842Z" fill="#F1463B"/>
<path d="M44.3497 251.129C44.0072 251.295 43.6512 251.431 43.2856 251.536C42.8636 251.692 42.4336 251.825 41.9974 251.935C41.4933 252.076 40.9192 252.237 40.2751 252.37C38.7645 252.696 37.2354 252.931 35.6964 253.071C33.8111 253.239 31.9176 253.297 30.0255 253.246C28.1338 253.178 26.2475 253.002 24.3756 252.72C22.8486 252.485 21.3362 252.162 19.8459 251.753C19.2088 251.592 18.6418 251.41 18.1447 251.248C17.6476 251.087 17.2135 250.94 16.8775 250.8C16.5128 250.681 16.1591 250.531 15.8203 250.351C16.1947 250.426 16.5623 250.532 16.9195 250.667C17.2695 250.786 17.6966 250.919 18.2007 251.052C18.7048 251.185 19.2718 251.361 19.9089 251.508C21.1831 251.837 22.7094 252.118 24.4246 252.391C26.2821 252.649 28.1515 252.813 30.0255 252.882C31.8938 252.93 33.7632 252.881 35.6264 252.734C37.1605 252.61 38.6866 252.401 40.1981 252.111C40.8492 251.998 41.4233 251.851 41.9274 251.732C42.4314 251.613 42.8725 251.501 43.2226 251.396C43.5886 251.27 43.9662 251.181 44.3497 251.129Z" fill="#F1463B"/>
<path d="M47.7037 243.264C47.374 243.45 47.0298 243.61 46.6745 243.741C46.3385 243.895 45.9184 244.049 45.4283 244.225C44.9382 244.4 44.3782 244.603 43.7551 244.785C42.2853 245.237 40.7918 245.606 39.2814 245.893C37.4291 246.232 35.5591 246.466 33.6805 246.594C31.8012 246.706 29.9169 246.706 28.0376 246.594C26.5043 246.495 24.9793 246.294 23.4729 245.991C22.8218 245.879 22.2477 245.725 21.7436 245.591C21.3124 245.486 20.8871 245.357 20.4694 245.206C20.1044 245.099 19.7486 244.963 19.4053 244.799C19.782 244.854 20.1524 244.946 20.5114 245.073C20.8545 245.178 21.2886 245.283 21.7926 245.388C22.2967 245.493 22.8708 245.641 23.5149 245.739C25.0183 245.999 26.5354 246.172 28.0586 246.257C29.9251 246.342 31.7948 246.326 33.6595 246.208C35.523 246.068 37.3783 245.834 39.2183 245.507C40.9056 245.178 42.4248 244.848 43.671 244.484C44.3011 244.316 44.8612 244.133 45.3583 243.972C45.8554 243.811 46.2754 243.685 46.6185 243.552C46.9705 243.422 47.3338 243.326 47.7037 243.264Z" fill="#F1463B"/>
<path d="M49.7755 236.338C49.4833 236.502 49.1732 236.631 48.8513 236.724C48.2492 236.955 47.3601 237.257 46.2609 237.593C43.383 238.481 40.4407 239.144 37.4606 239.577C34.478 240.013 31.4628 240.185 28.4502 240.089C27.295 240.04 26.3498 239.97 25.7197 239.892C25.3841 239.873 25.0512 239.822 24.7256 239.738C25.061 239.708 25.3984 239.708 25.7337 239.738C26.3708 239.773 27.302 239.801 28.4572 239.815C31.448 239.841 34.4365 239.641 37.3976 239.219C40.3624 238.779 43.2969 238.154 46.1839 237.348C47.2901 237.039 48.1862 236.78 48.8023 236.591C49.1191 236.479 49.4446 236.395 49.7755 236.338Z" fill="#F1463B"/>
<path d="M62.0412 266.236C60.839 267.821 59.5414 269.331 58.1556 270.757C56.8588 272.267 55.4724 273.697 54.0039 275.04C55.207 273.454 56.5045 271.942 57.8895 270.512C59.1851 269.003 60.5716 267.575 62.0412 266.236Z" fill="#F1463B"/>
<path d="M67.8661 269.685C67.7905 269.896 67.6844 270.094 67.551 270.274C67.327 270.646 66.977 271.157 66.5219 271.781C64.1326 275.021 61.0797 277.712 57.5675 279.675C56.8674 280.046 56.3423 280.326 55.9502 280.502C55.7547 280.61 55.5449 280.69 55.3271 280.74C55.3271 280.691 56.1393 280.249 57.4275 279.45C59.1172 278.416 60.7188 277.243 62.2162 275.945C63.6967 274.625 65.0643 273.183 66.3049 271.634C67.278 270.428 67.8171 269.636 67.8661 269.685Z" fill="#F1463B"/>
<path d="M69.6376 272.798C69.5081 274.176 69.0917 275.512 68.4153 276.719C67.7388 277.927 66.8172 278.979 65.71 279.808C66.5896 278.779 67.39 277.684 68.1043 276.534C68.7065 275.328 69.2189 274.079 69.6376 272.798Z" fill="#F1463B"/>
<path d="M75.5107 279.24C75.2988 280.369 74.7832 281.418 74.0195 282.275C73.3484 283.207 72.4323 283.935 71.373 284.378C72.2103 283.651 73.0007 282.871 73.7394 282.044C74.3835 281.144 74.9749 280.208 75.5107 279.24Z" fill="#F1463B"/>
<path d="M85.0049 285.058C85.0378 286.269 84.7219 287.464 84.0947 288.5C83.5694 289.591 82.7341 290.503 81.6934 291.121C82.4762 290.252 83.1791 289.313 83.7937 288.317C84.2921 287.268 84.6974 286.178 85.0049 285.058Z" fill="#F1463B"/>
<path d="M95.8776 290.288C96.1371 291.426 96.0166 292.618 95.5346 293.68C95.1635 294.784 94.4465 295.738 93.4902 296.4C94.9505 294.69 95.7916 292.536 95.8776 290.288Z" fill="#F1463B"/>
<path d="M105.917 299.253C105.812 299.218 106.232 297.851 106.33 296.141C106.428 294.431 106.183 293.022 106.288 293C106.958 295.057 106.825 297.291 105.917 299.253Z" fill="#F1463B"/>
<path d="M114.143 299.856C114.045 299.814 114.549 298.594 114.682 297.003C114.816 295.412 114.542 294.129 114.682 294.108C115.029 295.044 115.163 296.045 115.074 297.04C114.986 298.034 114.677 298.996 114.171 299.856H114.143Z" fill="#F1463B"/>
<path d="M125.653 299.779C125.548 299.779 125.716 298.581 125.527 297.144C125.338 295.707 124.889 294.606 124.987 294.564C125.519 295.309 125.832 296.188 125.891 297.102C126.066 297.999 125.983 298.927 125.653 299.779Z" fill="#F1463B"/>
<path d="M133.607 299.078C133.495 299.078 133.495 297.95 133.117 296.639C132.739 295.328 132.172 294.353 132.263 294.297C132.823 294.947 133.234 295.712 133.466 296.538C133.699 297.364 133.747 298.231 133.607 299.078Z" fill="#F1463B"/>
<path d="M142.938 297.024C142.826 297.024 142.882 295.923 142.469 294.669C142.056 293.414 141.391 292.566 141.482 292.481C142.103 293.043 142.564 293.759 142.82 294.557C143.075 295.354 143.116 296.205 142.938 297.024Z" fill="#F1463B"/>
<path d="M154.428 294.683C154.316 294.683 154.302 293.456 153.79 292.061C153.279 290.666 152.509 289.713 152.593 289.643C153.285 290.27 153.814 291.057 154.134 291.935C154.453 292.814 154.554 293.757 154.428 294.683Z" fill="#F1463B"/>
<path d="M164.118 290.897C164.013 290.897 163.628 289.656 162.802 288.268C161.976 286.88 161.058 285.927 161.135 285.85C162.738 287.088 163.805 288.894 164.118 290.897Z" fill="#F1463B"/>
<path d="M174.948 285.212C174.843 285.212 174.514 283.894 173.632 282.478C172.75 281.062 171.714 280.165 171.784 280.081C172.657 280.648 173.394 281.403 173.941 282.29C174.489 283.178 174.832 284.176 174.948 285.212Z" fill="#F1463B"/>
<path d="M185.526 277.62C185.065 276.803 184.548 276.018 183.979 275.272C183.325 274.601 182.623 273.978 181.879 273.407C182.831 273.674 183.669 274.245 184.266 275.034C184.952 275.738 185.394 276.645 185.526 277.62Z" fill="#F1463B"/>
<path d="M194.585 269.874C194.494 269.937 193.654 268.809 192.38 267.659C191.106 266.509 189.916 265.759 189.972 265.661C190.972 266.034 191.878 266.622 192.625 267.386C193.452 268.062 194.121 268.912 194.585 269.874Z" fill="#F1463B"/>
<path d="M202.7 259.773C202.609 259.829 201.909 258.693 200.677 257.67C199.445 256.646 198.22 256.128 198.262 256.022C199.237 256.273 200.143 256.741 200.911 257.392C201.68 258.042 202.292 258.859 202.7 259.78V259.773Z" fill="#F1463B"/>
<path d="M209.932 247.751C209.115 247.096 208.262 246.488 207.377 245.928C206.434 245.479 205.466 245.084 204.479 244.743C205.564 244.737 206.63 245.038 207.552 245.613C208.534 246.082 209.36 246.824 209.932 247.751Z" fill="#F1463B"/>
<path d="M214.329 234.762C212.438 233.664 210.265 233.151 208.084 233.289C209.163 232.976 210.305 232.946 211.399 233.204C212.493 233.462 213.502 233.999 214.329 234.762Z" fill="#F1463B"/>
<path d="M216.283 220.811C216.248 220.916 215.106 220.516 213.643 220.362C212.18 220.208 210.983 220.362 210.969 220.222C212.749 219.719 214.655 219.93 216.283 220.811Z" fill="#F1463B"/>
<path d="M215.561 206.84C214.902 206.924 214.237 206.952 213.573 206.924C212.916 207.009 212.254 207.042 211.592 207.023C212.846 206.469 214.262 206.404 215.561 206.84Z" fill="#F1463B"/>
<path d="M212.704 197.244C212.013 197.1 211.309 197.037 210.604 197.055C209.92 197.188 209.253 197.397 208.615 197.679C208.615 197.644 208.741 197.44 209.077 197.216C209.524 196.927 210.033 196.747 210.562 196.69C211.09 196.63 211.625 196.698 212.123 196.886C212.529 197.034 212.725 197.202 212.704 197.244Z" fill="#F1463B"/>
<g opacity="0.3">
<path opacity="0.3" d="M165.223 244.4C168.619 250.856 176.537 254.172 183.776 253.288C191.015 252.405 197.463 247.898 201.979 242.149C205.305 237.901 207.769 232.399 206.397 227.183C202.805 234.658 196.523 240.497 188.811 243.526C181.099 246.556 172.527 246.552 164.817 243.516" fill="#172A3F"/>
</g>
<path d="M207.595 188.845C205.968 186.335 205.372 183.293 205.93 180.353C206.488 177.414 208.158 174.803 210.591 173.066C212.523 171.664 214.855 170.914 216.682 169.399C217.799 168.418 218.709 167.223 219.359 165.884C220.008 164.546 220.383 163.09 220.463 161.604C220.597 158.623 219.938 155.659 218.551 153.017L220.498 152.057L220.666 152.267C221.958 153.966 222.858 155.931 223.301 158.02C223.744 160.109 223.718 162.271 223.227 164.349C222.736 166.427 221.79 168.37 220.459 170.039C219.127 171.707 217.443 173.059 215.527 173.998C214.069 174.668 212.699 175.513 211.445 176.515C209.016 178.618 210.01 181.008 210.01 181.008" fill="#F1463B"/>
<g opacity="0.7">
<path opacity="0.7" d="M207.595 188.845C205.968 186.335 205.372 183.293 205.93 180.353C206.488 177.414 208.158 174.803 210.591 173.066C212.523 171.664 214.855 170.914 216.682 169.399C217.799 168.418 218.709 167.223 219.359 165.884C220.008 164.546 220.383 163.09 220.463 161.604C220.597 158.623 219.938 155.659 218.551 153.017L220.498 152.057L220.666 152.267C221.958 153.966 222.858 155.931 223.301 158.02C223.744 160.109 223.718 162.271 223.227 164.349C222.736 166.427 221.79 168.37 220.459 170.039C219.127 171.707 217.443 173.059 215.527 173.998C214.069 174.668 212.699 175.513 211.445 176.515C209.016 178.618 210.01 181.008 210.01 181.008" fill="white"/>
</g>
<path d="M210.325 181.135C209.532 180.977 208.725 180.907 207.916 180.924C207.115 181.054 206.331 181.272 205.578 181.576C206.214 180.997 207.021 180.64 207.878 180.56C208.734 180.481 209.593 180.682 210.325 181.135Z" fill="#F1463B"/>
<path d="M212.159 175.786C212.061 175.821 211.753 175.211 211.179 174.636C210.605 174.061 210.003 173.739 210.038 173.641C210.073 173.542 210.801 173.732 211.438 174.377C212.075 175.022 212.25 175.758 212.159 175.786Z" fill="#F1463B"/>
<path d="M219.027 171.72C218.929 171.755 218.677 171.075 218.123 170.409C217.57 169.743 216.975 169.351 217.024 169.26C217.073 169.168 217.808 169.442 218.425 170.185C219.041 170.928 219.125 171.706 219.027 171.72Z" fill="#F1463B"/>
<path d="M223.627 163C223.091 162.963 222.56 162.881 222.038 162.755C221.502 162.742 220.967 162.684 220.441 162.579C220.966 162.382 221.531 162.317 222.087 162.39C222.642 162.464 223.171 162.673 223.627 163Z" fill="#F1463B"/>
<path d="M222.064 154.574C222.064 154.679 221.469 154.644 220.818 154.84C220.167 155.037 219.684 155.352 219.614 155.275C219.544 155.198 219.964 154.7 220.713 154.49C221.462 154.279 222.092 154.483 222.064 154.574Z" fill="#F1463B"/>
<path d="M157.264 206.468C159.742 204.856 163.026 205.389 165.84 206.321C168.654 207.254 171.476 208.543 174.423 208.263C177.637 207.962 180.388 205.816 182.51 203.391C185.131 200.392 187.081 196.867 188.229 193.051C189.392 189.168 189.987 184.604 193.326 182.305C196.666 180.006 201.3 181.162 204.171 183.882C207.041 186.602 208.428 190.528 209.338 194.397C211.438 203.314 211.473 212.826 208.589 221.526C205.704 230.225 199.774 238.021 191.723 242.381C183.672 246.741 173.52 247.365 165.329 243.285" fill="#F1463B"/>
<path d="M165.329 243.264C165.458 243.308 165.584 243.36 165.707 243.418L166.799 243.895C167.289 244.084 167.898 244.309 168.619 244.596C169.341 244.883 170.195 245.08 171.168 245.297C173.526 245.807 175.939 246.021 178.351 245.935C179.855 245.874 181.353 245.701 182.832 245.416C184.49 245.113 186.119 244.663 187.697 244.07C191.335 242.709 194.687 240.682 197.583 238.091C200.916 235.138 203.688 231.606 205.767 227.667C208.062 223.315 209.565 218.589 210.206 213.71C210.896 208.47 210.783 203.156 209.87 197.951C209.449 195.31 208.791 192.713 207.903 190.191C207.068 187.737 205.639 185.529 203.744 183.763C201.873 182.108 199.441 181.231 196.946 181.309C195.751 181.361 194.591 181.723 193.578 182.361C192.601 183.007 191.786 183.871 191.198 184.885C189.994 186.875 189.476 189.147 188.888 191.292C188.372 193.407 187.63 195.462 186.675 197.419C185.777 199.244 184.681 200.965 183.406 202.55C182.253 204.036 180.896 205.351 179.373 206.454C177.984 207.471 176.365 208.128 174.661 208.368C173.139 208.507 171.604 208.343 170.146 207.884C167.422 207.078 165.196 206.041 163.229 205.725C161.739 205.394 160.191 205.433 158.72 205.838C158.343 205.956 157.977 206.108 157.628 206.293C157.39 206.426 157.264 206.482 157.264 206.482L157.607 206.265C157.951 206.063 158.314 205.896 158.692 205.767C160.174 205.325 161.744 205.263 163.257 205.585C165.245 205.887 167.499 206.91 170.202 207.688C171.635 208.129 173.141 208.281 174.633 208.137C176.297 207.894 177.874 207.244 179.226 206.244C180.724 205.15 182.059 203.847 183.189 202.375C184.44 200.799 185.517 199.093 186.402 197.285C187.344 195.344 188.074 193.306 188.58 191.208C189.161 189.07 189.672 186.77 190.911 184.709C191.522 183.649 192.374 182.746 193.396 182.074C194.446 181.402 195.653 181.017 196.897 180.959C198.167 180.9 199.436 181.098 200.628 181.541C201.847 181.979 202.975 182.64 203.954 183.49C205.892 185.294 207.355 187.55 208.211 190.058C209.11 192.604 209.775 195.228 210.199 197.895C211.124 203.135 211.235 208.486 210.528 213.759C209.879 218.679 208.357 223.444 206.033 227.828C203.931 231.806 201.125 235.369 197.751 238.343C194.82 240.935 191.432 242.955 187.76 244.301C186.169 244.888 184.529 245.334 182.86 245.633C181.369 245.909 179.859 246.073 178.344 246.124C175.916 246.197 173.488 245.961 171.119 245.423C170.146 245.213 169.306 244.932 168.57 244.722C167.835 244.512 167.24 244.224 166.757 244.021L165.679 243.509C165.448 243.334 165.329 243.264 165.329 243.264Z" fill="#172A3F"/>
<path d="M195.461 190.528C195.103 190.231 194.816 189.857 194.621 189.434C194.092 188.433 193.827 187.314 193.851 186.181C193.865 185.051 194.161 183.943 194.712 182.957C194.915 182.535 195.215 182.167 195.587 181.884C195.636 181.926 195.3 182.333 194.943 183.076C194.479 184.049 194.231 185.111 194.215 186.189C194.2 187.267 194.417 188.336 194.852 189.322C195.195 190.072 195.517 190.493 195.461 190.528Z" fill="#172A3F"/>
<path d="M199.71 189.911C199.39 189.58 199.138 189.19 198.968 188.761C198.499 187.747 198.223 186.653 198.156 185.537C198.086 184.422 198.228 183.304 198.576 182.242C198.689 181.795 198.892 181.375 199.171 181.008C198.648 182.45 198.426 183.984 198.519 185.516C198.612 187.047 199.017 188.543 199.71 189.911Z" fill="#172A3F"/>
<path d="M203.113 191.123C202.671 190.06 202.488 188.907 202.581 187.759C202.55 186.607 202.79 185.464 203.281 184.422C203.386 184.457 202.987 185.915 202.945 187.766C202.903 189.616 203.218 191.123 203.113 191.123Z" fill="#172A3F"/>
<path d="M261.565 199.887C255.159 203.798 246.639 203.055 240.002 199.543C233.365 196.031 228.338 190.15 224.144 183.981C222.954 182.228 221.75 180.371 219.902 179.312C216.268 177.209 211.248 179.242 209.162 182.817C207.076 186.392 207.468 190.977 209.078 194.804C209.078 194.804 213.349 215.526 235.612 228.41" fill="#F1463B"/>
<path d="M235.612 228.431C235.545 228.408 235.481 228.375 235.423 228.333L234.877 228.01C234.387 227.709 233.694 227.274 232.777 226.727C232.336 226.433 231.804 226.153 231.278 225.76L229.563 224.505C228.954 224.036 228.254 223.594 227.596 223.012L225.496 221.211C222.031 218.103 218.949 214.592 216.317 210.752C214.728 208.44 213.324 206.007 212.117 203.475C210.76 200.721 209.69 197.834 208.924 194.86V194.895C207.859 192.455 207.414 189.789 207.629 187.135C207.765 185.749 208.159 184.401 208.791 183.16C209.614 181.595 210.877 180.306 212.423 179.452C213.97 178.597 215.732 178.215 217.493 178.351C218.519 178.473 219.503 178.828 220.371 179.389C221.201 179.956 221.938 180.649 222.555 181.443C223.178 182.214 223.724 183.027 224.256 183.819C224.788 184.611 225.342 185.389 225.888 186.146C226.994 187.668 228.128 189.119 229.297 190.472C231.491 193.059 233.99 195.371 236.739 197.356C239.141 199.083 241.805 200.411 244.63 201.288C248.707 202.617 253.079 202.753 257.232 201.681C257.578 201.595 257.919 201.49 258.254 201.365C258.569 201.253 258.87 201.162 259.136 201.05C259.668 200.811 260.13 200.629 260.48 200.447L261.285 200.019C261.375 199.967 261.468 199.922 261.565 199.886C261.484 199.949 261.397 200.006 261.306 200.054L260.515 200.51C260.165 200.706 259.71 200.896 259.178 201.148C258.905 201.267 258.611 201.365 258.296 201.484C257.96 201.617 257.616 201.73 257.267 201.821C253.083 202.961 248.659 202.861 244.532 201.533C241.678 200.665 238.984 199.337 236.557 197.601C233.78 195.611 231.255 193.29 229.038 190.689C227.855 189.329 226.714 187.885 225.601 186.357C225.048 185.593 224.501 184.808 223.962 184.015C223.423 183.223 222.884 182.417 222.275 181.667C221.679 180.906 220.971 180.239 220.175 179.69C219.354 179.161 218.422 178.827 217.451 178.716C215.439 178.532 213.428 179.088 211.794 180.279C210.697 181.081 209.788 182.113 209.13 183.303C208.473 184.494 208.082 185.813 207.986 187.17C207.778 189.763 208.211 192.368 209.246 194.755V194.79C210.001 197.743 211.057 200.611 212.397 203.349C213.606 205.871 215.011 208.294 216.597 210.597C219.206 214.428 222.262 217.935 225.699 221.042L227.799 222.858C228.45 223.447 229.143 223.888 229.738 224.365L231.44 225.641C231.958 226.04 232.483 226.342 232.924 226.622L234.975 227.954L235.5 228.305C235.541 228.343 235.579 228.386 235.612 228.431Z" fill="#172A3F"/>
<path d="M215.099 191.047C214.568 189.353 213.822 187.734 212.879 186.231C211.241 183.778 209.155 182.488 209.239 182.39C209.727 182.593 210.179 182.875 210.576 183.224C212.599 184.824 214.081 187.01 214.819 189.484C215.002 189.985 215.096 190.514 215.099 191.047Z" fill="#172A3F"/>
<path d="M219.426 188.236C219.151 186.457 218.642 184.722 217.914 183.076C217.074 181.485 216.032 180.01 214.812 178.688C215.273 178.967 215.686 179.317 216.038 179.725C216.933 180.671 217.677 181.749 218.243 182.922C218.806 184.094 219.188 185.344 219.377 186.63C219.485 187.159 219.502 187.702 219.426 188.236Z" fill="#172A3F"/>
<g opacity="0.3">
<path opacity="0.3" d="M204.955 229.377C206.699 226.706 199.516 226.076 196.351 226.447C191.717 226.98 187.445 229.219 184.366 232.728C181.287 236.237 179.62 240.767 179.689 245.437C179.689 245.437 193.523 246.916 204.955 229.377Z" fill="white"/>
</g>
<g opacity="0.3">
<path opacity="0.3" d="M216.752 217.453C220.392 223.027 225.789 227.222 232.084 229.37C232.745 229.657 233.471 229.759 234.185 229.665C234.537 229.613 234.859 229.439 235.097 229.174C235.335 228.909 235.473 228.57 235.487 228.214C228.003 224.137 221.588 218.346 216.766 211.312C216.399 213.47 216.707 215.688 217.648 217.664" fill="#172A3F"/>
</g>
<path d="M207.119 170.149C213.285 163.976 213.285 153.967 207.119 147.794C200.954 141.62 190.958 141.62 184.792 147.794C178.627 153.967 178.627 163.976 184.792 170.149C190.958 176.322 200.954 176.322 207.119 170.149Z" fill="#F3F4F5"/>
<path d="M211.725 159.635C211.725 167.269 207.721 173.655 203.261 173.655C198.801 173.655 195.182 167.465 195.182 159.838C195.182 152.211 198.801 146.021 203.261 146.021C207.721 146.021 211.725 152.008 211.725 159.635Z" fill="#172A3F"/>
<path d="M199.333 166.189C199.201 166.033 199.092 165.858 199.011 165.67C198.757 165.175 198.54 164.662 198.359 164.135C197.14 160.617 197.242 156.774 198.646 153.325C198.854 152.809 199.102 152.309 199.389 151.832C199.477 151.648 199.593 151.478 199.732 151.328C199.788 151.328 199.368 152.113 198.892 153.431C198.277 155.133 197.937 156.921 197.883 158.73C197.837 160.536 198.073 162.339 198.583 164.072C199.011 165.383 199.396 166.161 199.333 166.189Z" fill="white"/>
<path d="M205.277 153.683C206.769 153.683 207.979 152.472 207.979 150.977C207.979 149.483 206.769 148.271 205.277 148.271C203.784 148.271 202.574 149.483 202.574 150.977C202.574 152.472 203.784 153.683 205.277 153.683Z" fill="white"/>
<path d="M206.179 139.46C205.878 139.873 205.115 139.866 204.155 139.712C203.196 139.558 201.992 139.277 200.69 139.067C199.388 138.857 198.211 138.731 197.266 138.598C196.321 138.464 195.593 138.275 195.404 137.798C195.215 137.322 195.67 136.642 196.734 136.074C197.36 135.754 198.034 135.538 198.73 135.436C199.579 135.303 200.443 135.303 201.292 135.436C202.822 135.669 204.247 136.357 205.381 137.413C206.221 138.282 206.466 139.06 206.179 139.46Z" fill="#172A3F"/>
<path d="M199.024 178.709C197.806 176.202 197.537 173.337 198.269 170.647C199.001 167.957 200.684 165.624 203.004 164.082C205.324 162.54 208.124 161.894 210.885 162.263C213.645 162.633 216.177 163.993 218.011 166.091" fill="#F1463B"/>
<path d="M218.025 166.091C218.025 166.091 217.689 165.775 217.066 165.235C216.176 164.479 215.175 163.864 214.098 163.413C212.506 162.739 210.791 162.409 209.064 162.445C206.94 162.426 204.859 163.042 203.088 164.215C201.317 165.388 199.936 167.064 199.122 169.028C198.419 170.607 198.057 172.318 198.058 174.047C198.058 175.214 198.235 176.375 198.583 177.489C198.835 178.274 199.031 178.695 198.996 178.709C198.931 178.62 198.877 178.523 198.835 178.421C198.688 178.135 198.56 177.84 198.45 177.538C198.038 176.415 197.82 175.229 197.806 174.033C197.759 172.26 198.103 170.498 198.814 168.874C199.636 166.845 201.05 165.112 202.871 163.902C204.692 162.691 206.836 162.059 209.022 162.088C210.792 162.067 212.546 162.433 214.161 163.16C215.248 163.639 216.247 164.298 217.115 165.109C217.353 165.327 217.575 165.561 217.78 165.81C217.873 165.893 217.955 165.987 218.025 166.091Z" fill="#172A3F"/>
<path d="M167.674 118.85C167.562 118.909 167.442 118.949 167.317 118.969L166.274 119.25C165.819 119.362 165.266 119.523 164.628 119.719L163.613 120.021L162.479 120.406C158.364 121.846 154.416 123.727 150.703 126.014C146.986 128.31 143.431 130.858 140.062 133.641C138.766 134.707 137.723 135.576 137.016 136.193L136.183 136.894C135.994 137.055 135.889 137.132 135.875 137.118C135.951 137.018 136.038 136.926 136.134 136.845L136.918 136.095C137.618 135.45 138.619 134.553 139.894 133.452C143.231 130.612 146.782 128.034 150.514 125.741C154.248 123.421 158.243 121.552 162.416 120.175L163.557 119.803L164.593 119.53C165.238 119.348 165.791 119.208 166.253 119.116L167.317 118.906C167.433 118.873 167.553 118.854 167.674 118.85Z" fill="#172A3F"/>
</svg>
