<svg width="105" height="122" viewBox="0 0 105 122" fill="none" xmlns="http://www.w3.org/2000/svg">
<path d="M16.5211 117.581C-0.0650282 103.037 -1.68869 79.2145 1.28383 58.3303C1.78341 54.8288 1.7959 51.0896 3.78174 48.1884C5.76758 45.2871 9.88913 43.6114 12.8741 45.4246C15.372 46.9378 16.1464 50.0892 17.3329 52.7529C18.9125 56.3102 21.4677 59.3457 24.7017 61.5067C26.8125 62.9073 29.4978 63.9078 31.8333 62.9323C35.0306 61.5942 35.83 57.4549 36.1922 53.9534C36.8499 47.4505 37.5077 40.9435 38.1655 34.4323C38.3288 30.9227 39.0628 27.4633 40.3387 24.1903C41.775 20.9889 44.4977 18.1752 47.9199 17.5999C51.342 17.0247 55.2262 19.3882 55.551 22.8773C55.5359 24.3348 55.4149 25.7893 55.1888 27.2292C55.0726 27.9606 55.1798 28.7101 55.4962 29.3795C55.8127 30.049 56.3237 30.6071 56.9623 30.9808C58.3112 31.5436 59.8099 30.7057 60.9589 29.7303C64.9306 26.5914 67.8657 22.3145 70.6383 18.0501C73.411 13.7858 76.1213 9.34631 79.8681 5.80726C83.615 2.26821 88.386 -0.232892 93.4068 0.0172173C98.4276 0.267327 103.398 3.93143 104.148 8.97115C104.897 14.0109 101.475 18.7129 97.9031 22.352C92.6406 27.7726 86.6254 32.4056 80.043 36.1081C78.7818 36.6386 77.7228 37.5587 77.0205 38.7342C76.0089 40.9727 77.9697 43.5238 80.1804 44.5368C82.6783 45.6748 85.5259 45.7123 88.2112 46.325C90.8964 46.9378 93.7066 48.4635 94.4559 51.1397C95.5051 54.8913 92.1204 58.2803 88.9231 60.4062C82.5266 64.6828 75.4409 67.8219 67.9781 69.6853C65.3178 70.3481 62.5326 70.9358 60.272 72.4615C58.0114 73.9872 56.3878 77.0885 57.3869 79.5896C58.3861 82.0907 61.496 83.3413 64.2312 83.1162C66.9664 82.8911 69.5393 81.7031 72.1995 81.0153C77.1954 79.7647 83.3277 80.7151 85.938 85.1921C86.7219 86.7188 87.1412 88.4068 87.1628 90.1233C87.1845 91.8398 86.808 93.5379 86.0629 95.0839C84.5415 98.1604 82.4178 100.899 79.8182 103.137C71.2426 111.446 60.619 117.328 49.0314 120.182C37.516 122.834 27.1123 122.771 16.4961 117.544" fill="#F3F4F5"/>
</svg>
