<svg width="375" height="348" viewBox="0 0 375 348" fill="none" xmlns="http://www.w3.org/2000/svg">
<path d="M334.404 280.204C356.981 280.204 375.284 269.639 375.284 256.607C375.284 243.574 356.981 233.009 334.404 233.009C311.827 233.009 293.524 243.574 293.524 256.607C293.524 269.639 311.827 280.204 334.404 280.204Z" fill="#EBF3F4"/>
<path d="M285.632 297.925C269.308 296.418 255.419 297.456 244.383 299.741C242.926 289.324 234.405 279.127 218.76 271.164C184.296 253.593 128.409 253.593 93.9455 271.164C59.4817 288.735 59.4817 317.222 93.9455 334.794C128.409 352.365 184.296 352.355 218.76 334.794C222.371 332.969 225.829 330.853 229.097 328.468C240.387 331.029 251.946 332.212 263.521 331.99L264.708 332.379C274.086 335.397 283.863 336.995 293.714 337.118C301.327 337.118 307.683 335.911 311.275 333.466C311.651 333.213 312.011 332.937 312.353 332.638C317.062 332.778 322.181 332.968 327.569 331.89C335.382 330.313 339.213 326.901 338.994 322.79C338.445 312.503 308.471 300.02 285.632 297.925ZM263.97 328.677C257.264 326.212 253.692 322.85 254.091 319.318C254.62 314.668 261.485 310.477 269.727 309.789C270.864 309.699 272.032 309.649 273.189 309.649C279.545 309.649 286.061 311.006 290.152 312.992C288.313 313.017 286.489 313.323 284.744 313.9C282.279 314.748 281.142 316.723 281.75 319.058C282.229 320.814 283.746 322.74 286.061 324.586C280.343 327.13 272.541 328.408 263.97 328.677ZM290.79 316.235C291.997 316.237 293.202 316.337 294.392 316.534C294.431 316.62 294.461 316.711 294.482 316.803C294.971 318.539 293.145 320.715 289.413 322.9C286.849 321.184 285.312 319.457 284.973 318.2C284.863 317.811 284.744 317.362 285.851 316.983C287.439 316.465 289.101 316.212 290.77 316.235H290.79ZM272.95 331.271C278.418 330.701 283.757 329.242 288.755 326.951L289.264 326.691C294.623 329.635 300.508 331.5 306.585 332.179C299.361 334.754 286.061 334.374 272.95 331.271ZM310.976 329.276C304.61 329.003 298.364 327.445 292.616 324.696C296.168 322.311 297.915 319.817 297.835 317.252C301.321 318.2 304.602 319.783 307.513 321.922C310.158 323.918 311.594 326.093 311.505 327.819C311.46 328.358 311.271 328.876 310.956 329.316L310.976 329.276ZM326.94 328.647C322.51 329.545 318.339 329.356 314.488 329.376C314.614 328.943 314.694 328.498 314.727 328.048C314.927 325.175 313.071 322.062 309.499 319.338C305.599 316.481 301.126 314.503 296.388 313.541C292.008 308.093 278.657 305.738 269.448 306.496C259.549 307.334 251.547 312.662 250.839 318.909C250.569 321.273 251.198 325.115 256.516 328.627C248.423 328.343 240.367 327.391 232.429 325.783C240.551 318.799 244.612 310.817 244.622 302.954C255.389 300.679 269.088 299.631 285.342 301.128C309.24 303.323 335.372 315.796 335.751 322.92C335.811 325.085 332.648 327.54 326.92 328.687L326.94 328.647Z" fill="#EBF3F4"/>
<g opacity="0.4">
<path d="M128.102 6.20806L116.667 12.8035C116.729 12.3036 116.763 11.8005 116.767 11.2968V7.98413C116.767 2.08717 112.626 -0.297556 107.517 2.64594C105.309 4.00368 103.423 5.82514 101.989 7.98413C101.161 0.570524 95.3441 -2.19337 88.2797 1.88761C80.6466 6.29786 74.4503 17.0142 74.4503 25.8347V30.8236C74.4027 32.8006 74.8053 34.7625 75.6277 36.561L66.1287 42.0388C64.6365 43.0124 63.3947 44.3237 62.5037 45.8665C61.6127 47.4093 61.0975 49.1403 61 50.9192C61 54.192 63.2949 55.519 66.1287 53.9126L128.082 18.1417C129.573 17.1676 130.815 15.8561 131.706 14.3134C132.597 12.7708 133.112 11.0401 133.21 9.26131C133.23 5.89874 130.925 4.57168 128.102 6.20806Z" fill="#ECF8FB"/>
<path d="M174.549 25.9446L167.255 30.1553C167.296 29.8243 167.316 29.491 167.315 29.1575V27.0721C167.315 23.3204 164.681 21.7938 161.428 23.6796C160.027 24.5369 158.829 25.6874 157.916 27.0522C157.377 22.3226 153.675 20.5665 149.175 23.1707C144.306 25.9746 140.354 32.8094 140.354 38.437V41.6C140.322 42.8585 140.578 44.1076 141.103 45.2519L135.046 48.7542C134.094 49.373 133.301 50.2079 132.732 51.191C132.164 52.1741 131.835 53.2776 131.773 54.4117C131.773 56.4971 133.24 57.3452 135.046 56.2975L174.549 33.4979C175.501 32.8769 176.294 32.0402 176.863 31.0554C177.431 30.0707 177.76 28.9659 177.822 27.8304C177.822 25.7451 176.355 24.9468 174.549 25.9446Z" fill="#ECF8FB"/>
</g>
<g opacity="0.4">
<path d="M325.102 140.208L313.667 146.803C313.729 146.304 313.763 145.801 313.767 145.297V141.984C313.767 136.087 309.626 133.702 304.517 136.646C302.309 138.004 300.423 139.825 298.989 141.984C298.161 134.571 292.344 131.807 285.28 135.888C277.647 140.298 271.45 151.014 271.45 159.835V164.824C271.403 166.801 271.805 168.763 272.628 170.561L263.129 176.039C261.637 177.012 260.395 178.324 259.504 179.866C258.613 181.409 258.098 183.14 258 184.919C258 188.192 260.295 189.519 263.129 187.913L325.082 152.142C326.573 151.168 327.815 149.856 328.706 148.313C329.597 146.771 330.112 145.04 330.21 143.261C330.23 139.899 327.925 138.572 325.102 140.208Z" fill="#D9F1F8" fill-opacity="0.5"/>
<path d="M371.549 159.945L364.255 164.155C364.296 163.824 364.316 163.491 364.315 163.158V161.072C364.315 157.32 361.681 155.794 358.428 157.68C357.027 158.537 355.829 159.687 354.916 161.052C354.377 156.323 350.675 154.567 346.175 157.171C341.306 159.975 337.354 166.809 337.354 172.437V175.6C337.322 176.858 337.578 178.108 338.103 179.252L332.046 182.754C331.094 183.373 330.301 184.208 329.732 185.191C329.164 186.174 328.835 187.278 328.773 188.412C328.773 190.497 330.24 191.345 332.046 190.298L371.549 167.498C372.501 166.877 373.294 166.04 373.863 165.055C374.431 164.071 374.76 162.966 374.822 161.83C374.822 159.745 373.355 158.947 371.549 159.945Z" fill="#D9F1F8" fill-opacity="0.5"/>
</g>
<g opacity="0.4">
<path d="M0.101657 126.208L-11.3331 132.803C-11.2706 132.304 -11.2373 131.801 -11.2333 131.297V127.984C-11.2333 122.087 -15.3741 119.702 -20.4828 122.646C-22.6905 124.004 -24.5767 125.825 -26.0106 127.984C-26.8388 120.571 -32.6559 117.807 -39.7203 121.888C-47.3534 126.298 -53.5497 137.014 -53.5497 145.835V150.824C-53.5973 152.801 -53.1947 154.763 -52.3723 156.561L-61.8713 162.039C-63.3635 163.012 -64.6053 164.324 -65.4963 165.866C-66.3873 167.409 -66.9025 169.14 -67 170.919C-67 174.192 -64.7051 175.519 -61.8713 173.913L0.0816965 138.142C1.57326 137.168 2.8147 135.856 3.70564 134.313C4.59659 132.771 5.11205 131.04 5.21036 129.261C5.23031 125.899 2.92541 124.572 0.101657 126.208Z" fill="#ECF8FB"/>
<path d="M46.5489 145.945L39.255 150.155C39.2958 149.824 39.3158 149.491 39.3149 149.158V147.072C39.3149 143.32 36.6807 141.794 33.4279 143.68C32.0272 144.537 30.829 145.687 29.9156 147.052C29.3768 142.323 25.675 140.567 21.175 143.171C16.3057 145.975 12.3545 152.809 12.3545 158.437V161.6C12.3221 162.858 12.5781 164.108 13.1028 165.252L7.0462 168.754C6.09385 169.373 5.30107 170.208 4.73236 171.191C4.16366 172.174 3.8351 173.278 3.77344 174.412C3.77344 176.497 5.24019 177.345 7.0462 176.298L46.5489 153.498C47.5014 152.877 48.2942 152.04 48.8628 151.055C49.4314 150.071 49.7599 148.966 49.8216 147.83C49.8216 145.745 48.3549 144.947 46.5489 145.945Z" fill="#ECF8FB"/>
</g>
<path d="M292.617 332.22C282.765 332.093 272.988 330.492 263.611 327.471L262.424 327.081C246.01 327.55 227.122 324.417 213.332 319.279L214.47 316.225C225.814 320.446 241.161 323.3 255.379 323.759C250.051 320.247 249.392 316.405 249.702 314.05C250.41 307.794 258.402 302.466 268.31 301.628C277.51 300.869 290.861 303.224 295.251 308.682C299.989 309.637 304.463 311.612 308.362 314.469C311.934 317.213 313.79 320.306 313.59 323.18C313.557 323.63 313.477 324.074 313.351 324.507C317.202 324.507 321.333 324.677 325.803 323.779C331.531 322.631 334.734 320.177 334.624 318.051C334.245 310.927 308.113 298.455 284.215 296.26C252.386 293.326 230.334 300.141 221.045 306.866L219.129 304.232C228.828 297.178 251.787 290.003 284.515 293.017C307.344 295.112 337.328 307.545 337.877 317.882C338.096 321.963 334.255 325.405 326.452 326.982C321.054 328.059 315.935 327.87 311.226 327.73C310.889 328.031 310.533 328.307 310.158 328.558C306.576 331.013 300.22 332.22 292.617 332.22ZM271.833 326.383C284.964 329.486 298.264 329.855 305.468 327.281C299.391 326.603 293.506 324.739 288.147 321.793L287.638 322.053C282.639 324.343 277.301 325.805 271.833 326.383V326.383ZM291.499 319.847C297.249 322.591 303.494 324.146 309.859 324.417C310.143 323.981 310.315 323.48 310.358 322.961C310.477 321.244 309.03 319.089 306.366 317.064C303.453 314.928 300.172 313.346 296.688 312.394C296.798 314.958 295.051 317.493 291.499 319.847V319.847ZM272.072 304.751C270.905 304.751 269.747 304.751 268.61 304.891C260.368 305.579 253.493 309.77 252.974 314.419C252.575 317.952 256.147 321.314 262.843 323.779C271.434 323.509 279.236 322.232 285.004 319.688C282.669 317.842 281.182 315.916 280.703 314.16C280.074 311.825 281.212 309.85 283.696 309.001C285.442 308.424 287.266 308.118 289.105 308.093C284.924 306.108 278.428 304.751 272.072 304.751V304.751ZM289.673 311.336C287.997 311.31 286.328 311.563 284.734 312.085C283.627 312.464 283.736 312.913 283.856 313.302C284.195 314.559 285.722 316.295 288.296 318.002C292.028 315.816 293.854 313.641 293.365 311.905C293.344 311.812 293.314 311.722 293.275 311.636C292.084 311.444 290.88 311.344 289.673 311.336V311.336Z" fill="#F8A19B"/>
<path d="M302.006 328.199C304.239 328.712 306.497 329.111 308.771 329.397C309.257 329.151 309.727 328.874 310.178 328.568C310.553 328.318 310.909 328.041 311.245 327.74C311.245 327.74 308.052 327.581 305.468 327.281C304.338 327.671 303.181 327.978 302.006 328.199V328.199Z" fill="#B6B7B8"/>
<path d="M285.742 322.911C286.391 322.641 287.029 322.352 287.638 322.053L288.147 321.793C287.038 321.188 285.986 320.484 285.004 319.688C284.235 320.027 283.417 320.337 282.579 320.636C283.513 321.548 284.58 322.315 285.742 322.911V322.911Z" fill="#B6B7B8"/>
<path d="M293.365 311.905C293.515 312.513 293.429 313.154 293.126 313.701C294.226 313.841 295.306 314.116 296.339 314.519C296.606 313.843 296.735 313.121 296.718 312.394C295.601 312.019 294.447 311.764 293.276 311.636C293.314 311.722 293.345 311.813 293.365 311.905V311.905Z" fill="#B6B7B8"/>
<path d="M251.458 323.569C252.965 324.953 254.642 326.139 256.447 327.102C258.443 327.141 260.438 327.141 262.434 327.102C260.022 326.179 257.687 325.068 255.449 323.779C254.102 323.719 252.785 323.659 251.458 323.569Z" fill="#B6B7B8"/>
<path d="M219.149 304.242L221.065 306.876C224.717 304.222 230.375 301.558 237.838 299.483C238.203 298.317 238.483 297.126 238.676 295.92C229.916 298.175 223.31 301.219 219.149 304.242Z" fill="#B6B7B8"/>
<path d="M224.308 319.299C220.815 318.381 217.493 317.363 214.47 316.235L213.332 319.289C215.787 320.207 218.411 321.045 221.145 321.823C222.232 321.035 223.29 320.187 224.308 319.299Z" fill="#B6B7B8"/>
<path d="M161.198 181.164H161.128C148.735 180.695 137.001 171.486 125.656 162.585C115.958 154.972 106.788 147.778 98.9555 147.778C98.5242 147.778 98.1105 147.607 97.8055 147.302C97.5005 146.997 97.3291 146.583 97.3291 146.152C97.3291 145.72 97.5005 145.307 97.8055 145.002C98.1105 144.697 98.5242 144.525 98.9555 144.525C107.936 144.525 117.514 152.049 127.672 160.021C138.648 168.602 149.913 177.473 161.258 177.902C161.668 177.94 162.049 178.133 162.324 178.441C162.599 178.748 162.747 179.148 162.74 179.561C162.732 179.973 162.569 180.368 162.283 180.665C161.997 180.962 161.61 181.141 161.198 181.164V181.164Z" fill="#F8A19B"/>
<path d="M80.6466 252.686C71.8261 249.414 64.2828 237.35 67.5655 223.92C71.5567 207.736 89.2875 196.271 99.036 186.882C117.156 169.43 128.251 155.481 122.474 130.377C117.415 108.425 97.0703 101.081 84.9771 101.53C70.0101 102.099 60.551 108.345 61.3792 113.205C61.7484 115.36 65.8294 116.318 69.0523 117.505C79.0302 121.157 82.1433 123.392 85.3363 127.693C90.1955 134.238 91.0137 142.789 89.966 143.378C88.9183 143.967 87.5314 139.048 80.8961 136.214C74.2607 133.38 71.0179 135.426 71.0778 136.902C71.1376 138.379 77.2441 139.776 79.0601 148.557C80.5967 155.86 80.2275 165.27 69.2418 180.306C62.4768 189.566 47.1008 206.898 50.4534 229.019C53.806 251.14 70.6487 259.222 77.5834 259.621L80.6466 252.686Z" fill="#F1463B"/>
<path opacity="0.05" d="M80.6466 252.686C71.8261 249.414 64.2828 237.35 67.5655 223.92C71.5567 207.736 89.2875 196.271 99.036 186.882C117.156 169.43 128.251 155.481 122.474 130.377C117.415 108.425 97.0703 101.081 84.9771 101.53C70.0101 102.099 60.551 108.345 61.3792 113.205C61.7484 115.36 65.8294 116.318 69.0523 117.505C79.0302 121.157 82.1433 123.392 85.3363 127.693C90.1955 134.238 91.0137 142.789 89.966 143.378C88.9183 143.967 87.5314 139.048 80.8961 136.214C74.2607 133.38 71.0179 135.426 71.0778 136.902C71.1376 138.379 77.2441 139.776 79.0601 148.557C80.5967 155.86 80.2275 165.27 69.2418 180.306C62.4768 189.566 47.1008 206.898 50.4534 229.019C53.806 251.14 70.6487 259.222 77.5834 259.621L80.6466 252.686Z" fill="black"/>
<path opacity="0.15" d="M77.5834 259.621L80.6466 252.696C78.0969 251.706 75.7947 250.17 73.9015 248.196C72.5414 251.262 71.508 254.463 70.8184 257.745C72.946 258.762 75.2359 259.397 77.5834 259.621V259.621Z" fill="black"/>
<path d="M106.32 127.313C107.667 126.425 107.188 124.32 106.519 122.903C104.799 119.096 102.36 115.657 99.3354 112.775C101.537 113.239 103.703 113.852 105.821 114.611C108.894 115.609 110.88 116.916 111.339 115.779C111.498 114.913 111.457 114.022 111.219 113.175C110.68 111.059 110.161 110.291 109.433 109.722C102.42 104.317 93.791 101.431 84.9372 101.53C69.9703 102.099 60.5112 108.345 61.3394 113.204C61.7086 115.36 65.7895 116.318 69.0124 117.505C78.9904 121.157 82.1035 123.392 85.2964 127.692C85.2964 127.752 88.9084 129.479 90.5348 130.516C91.2419 131.029 92.0582 131.37 92.9196 131.514C93.3151 131.555 93.7129 131.46 94.0471 131.245C95.1646 130.506 94.9251 128.83 94.516 127.563C93.7055 125.078 92.7047 122.66 91.5227 120.329C95.4034 121.219 98.9903 123.092 101.94 125.767C103.187 126.914 104.893 128.211 106.32 127.313Z" fill="#92140C"/>
<path d="M154.882 246.869C156.149 264.211 161.866 275.007 173.66 285.024C185.454 295.042 202.287 300.989 209.721 304.262C217.154 307.535 222.692 311.446 228.04 306.896C233.388 302.346 232.949 292.498 242.478 284.675C252.007 276.853 255.35 274.697 255.599 268.99C255.918 261.497 248.704 261.686 246.499 262.814C246.499 262.814 244.633 259.621 239.315 260.818C236.578 261.485 234.21 263.197 232.72 265.587C232.72 265.587 229.407 265.388 225.905 268.661C222.802 271.554 216.765 279.327 216.765 279.327C216.765 279.327 223.211 269.199 220.397 258.373C217.853 248.575 211.586 245.901 211.586 245.901C211.586 245.901 214.281 244.524 221.485 245.811C221.485 245.811 218.491 237.45 205.34 234.207C192.189 230.964 183.499 240.373 183.499 240.373L154.882 246.869Z" fill="#F1463B"/>
<path opacity="0.15" d="M235.034 262.903C234.11 263.657 233.315 264.557 232.68 265.567C234.675 265.567 238.856 265.777 240.323 270.866C240.363 270.866 242.019 265.128 235.034 262.903Z" fill="black"/>
<path opacity="0.15" d="M247.746 268.781C247.746 268.781 250.45 267.254 248.884 262.245C248.06 262.284 247.251 262.476 246.499 262.814C247.164 263.639 247.623 264.61 247.84 265.647C248.057 266.684 248.025 267.758 247.746 268.781Z" fill="black"/>
<path d="M239.285 278.449C235.945 279.248 232.849 280.845 230.263 283.105C227.676 285.364 225.678 288.218 224.438 291.42C221.444 298.534 222.512 303.294 225.435 304.022C228.359 304.751 229.726 304.342 232.25 300.5C234.346 295.721 236.321 289.794 242.518 284.705L247.347 280.764C247.008 278.668 244.274 277.222 239.285 278.449Z" fill="#F28F8F"/>
<path d="M237.768 271.664C235.772 270.876 233.777 275.495 236.032 276.373C237.898 277.102 240.372 272.721 237.768 271.664Z" fill="#FFA8A7"/>
<path d="M245.412 270.097C243.466 269.309 241.421 273.929 243.676 274.807C245.542 275.585 248.006 271.155 245.412 270.097Z" fill="#F28F8F"/>
<path d="M251.687 269.938C249.742 269.14 247.696 273.76 249.951 274.638C251.827 275.366 254.302 270.996 251.687 269.938Z" fill="#F28F8F"/>
<path d="M134.328 202.327C133.33 207.865 112.486 213.133 98.1781 223.92C83.8698 234.706 71.2377 249.413 73.4827 274.907C75.9473 302.845 101.132 313.152 114.392 313.152C127.653 313.152 172.933 309.64 196.112 276.663C219.29 243.686 188.069 200.262 134.328 202.327Z" fill="#F1463B"/>
<path opacity="0.15" d="M101.72 266.915C101.72 266.915 108.934 254.193 128.74 257.705C148.546 261.217 146.77 291.899 146.77 291.899C146.77 291.899 146.99 309.051 134.328 307.255C121.666 305.459 101.72 266.915 101.72 266.915Z" fill="black"/>
<path opacity="0.15" d="M134.328 202.327C134.178 202.97 133.861 203.562 133.41 204.044C132.562 214.261 135.715 227.432 147.379 231.054C160.061 235.045 174.38 232.73 183.988 229.348C187.151 228.22 190.229 226.866 193.198 225.297C181.404 211.138 160.55 201.32 134.328 202.327Z" fill="black"/>
<path d="M142.32 274.777H141.971C98.0681 265.348 81.9038 237.639 76.1166 221.954C68.6332 201.559 67.9846 179.218 74.5002 166.367C74.6934 165.977 75.0337 165.679 75.4463 165.54C75.8589 165.4 76.31 165.43 76.7003 165.624C77.0906 165.817 77.3883 166.157 77.5277 166.57C77.6671 166.982 77.6368 167.433 77.4437 167.824C71.3172 179.917 72.0256 201.21 79.2197 220.816C84.7375 235.863 100.323 262.464 142.659 271.564C143.059 271.642 143.415 271.866 143.657 272.193C143.9 272.52 144.01 272.926 143.968 273.331C143.925 273.736 143.732 274.11 143.427 274.38C143.122 274.649 142.727 274.795 142.32 274.787V274.777Z" fill="#F8A19B"/>
<path d="M239.555 263.861C244.604 293.096 225.586 320.795 197.059 325.724C168.532 330.653 141.312 310.957 136.253 281.721C132.003 257.116 145.333 236.611 166.676 227.841C172.948 225.277 179.599 223.763 186.363 223.36C212.156 221.774 234.905 236.99 239.555 263.861Z" fill="#F8A19B"/>
<path opacity="0.15" d="M260.799 264.429C249.632 268.103 237.891 269.892 226.093 269.715C228.466 268.8 230.779 267.744 233.016 266.552C238.1 263.931 244.452 260.995 245.838 255.193C246.11 254.11 244.733 254.319 244.198 254.748C240.229 257.902 235.454 261.912 230.27 264.971C224.439 268.335 217.488 269.406 210.86 267.959C209.492 267.67 208.142 267.347 206.746 266.989C211.451 266.097 215.977 264.48 220.149 262.201C229.799 256.897 234.756 249.453 236.46 239.081C236.659 237.91 235.417 237.526 234.647 238.286C233.161 239.71 232.889 241.222 232.21 243.161C230.026 249.278 226.99 252.825 221.58 256.652C217.764 259.321 213.46 261.272 208.894 262.402C206.574 262.961 204.173 263.057 201.826 263.407C199.416 263.833 196.931 263.603 194.649 262.742C192.871 261.943 191.148 261.032 189.493 260.016C199.651 259.44 210.996 250.781 217.521 244.918C224.426 238.705 229.419 230.938 228.304 221.711C228.114 220.059 226.138 221.055 225.903 222.174C224.997 226.481 224.589 229.312 222.505 233.419C220.4 237.397 217.456 240.906 213.86 243.721C206.357 249.986 196.026 256.731 185.832 257.631C184.409 256.617 182.996 255.56 181.655 254.433C189.294 251.681 195.818 246.185 201.155 240.243C204.361 236.793 206.852 232.783 208.495 228.43C209.519 225.651 211.803 221.064 210.598 218.154C210.027 216.791 208.278 218.085 208.178 219.028C207.462 226.114 203.249 233.008 198.564 238.434C196.335 232.458 194.785 227.207 195.211 220.601C195.462 217.478 195.913 214.373 196.561 211.304C196.76 210.317 197.096 209.347 196.561 208.429C195.827 207.11 194.105 209.163 194.359 210.125C194.296 209.88 193.453 211.147 193.371 211.234C192.601 212.527 192.674 214.467 192.465 215.918C192.023 218.349 191.766 220.807 191.695 223.275C191.532 229.775 193.399 235.368 195.999 241.23C193.542 243.48 190.892 245.525 188.079 247.347C186.367 246.124 185.171 242.978 184.21 241.292C182.649 238.857 181.28 236.313 180.114 233.681C177.604 227.381 178.202 219.937 175.466 213.96C175.148 213.261 173.816 214.065 173.789 214.616C173.554 222.812 174.958 231.27 178.682 238.731C180.132 241.65 182.235 246.718 184.953 249.54C184.266 250.036 183.517 250.447 182.724 250.763C181.889 251.143 180.995 251.388 180.078 251.488C177.921 251.628 176.716 249.741 175.429 248.369C173.93 246.752 172.524 245.057 171.216 243.293C168.001 239.018 165.503 234.282 163.812 229.26C162.489 225.075 162.797 220.251 160.713 216.302C159.707 214.397 157.279 216.363 157.832 218.006C159.291 222.375 158.502 227.154 159.907 231.619C161.908 237.561 164.902 243.147 168.769 248.159C174.933 256.137 182.933 262.628 192.139 267.12C204.825 273.114 221.073 276.583 236.197 275.159C219.762 278.166 202.777 276.555 187.264 270.519C169.594 263.642 151.923 248.229 147.32 229.837C147.13 229.138 145.834 229.522 145.78 230.134C144.873 239.23 152.123 248.858 158.312 255.071C165.398 262.148 172.919 268.833 182.425 272.843C192.764 277.212 203.131 280.122 214.503 280.323C219.087 280.454 223.675 280.361 228.25 280.043C222.568 281.886 216.642 282.94 210.652 283.171C202.886 283.267 195.175 281.939 187.635 280.27C175.384 277.553 165.144 272.703 155.874 264.42C152.166 260.959 148.849 257.128 145.979 252.991C143.17 249.121 139.038 244.673 137.987 239.998C137.751 238.941 135.93 240.103 136.002 240.872C136.292 244.726 138.186 248.387 140.243 251.637C141.394 253.472 142.717 255.176 144.013 256.88C145.329 258.41 146.143 260.284 146.351 262.262C146.423 263.94 145.789 265.338 145.535 266.945C145.281 268.553 144.982 269.89 144.719 271.366C144.205 274.426 143.947 277.52 143.949 280.62C143.859 290.598 148.797 299.239 154.379 307.296C154.959 308.169 156.454 306.798 156.191 306.029C153.129 296.741 147.239 289.383 147.791 279.16C148.072 274.075 149.604 269.383 150.809 264.534C150.909 264.639 151.017 264.761 151.117 264.848C152.875 266.596 154.742 268.343 156.645 269.925C158.185 271.2 159.925 272.642 159.698 274.8C159.4 276.252 158.972 277.675 158.421 279.056C157.996 280.646 157.694 282.264 157.514 283.896C157.152 286.701 157.034 289.532 156.817 292.346C156.137 301.503 158.629 313.237 165.498 320.079C165.673 320.217 165.892 320.293 166.118 320.293C166.345 320.293 166.564 320.217 166.739 320.079C167.696 322.181 169.027 324.106 170.672 325.767C170.808 325.897 170.987 325.978 171.179 325.996C171.37 326.014 171.562 325.968 171.721 325.865C171.881 325.762 172 325.609 172.056 325.432C172.112 325.255 172.104 325.065 172.031 324.893C169.346 318.194 168.205 311.011 168.687 303.844C175.257 306.693 184.591 306.23 190.861 304.351C195.696 303.011 200.283 300.947 204.454 298.235C209.08 295.321 213.051 291.542 216.134 287.12C224.145 286.483 230.814 284.088 237.828 280.052C238.117 279.836 238.344 279.552 238.488 279.228C238.633 278.904 238.689 278.55 238.652 278.199C240.392 277.704 242.088 277.079 243.727 276.329C244.137 276.048 244.437 275.641 244.577 275.175C244.717 274.708 244.689 274.21 244.497 273.761C250.48 272.449 256.153 270.059 261.216 266.718C262.158 266.159 262.503 263.887 260.799 264.429ZM172.557 288.816C172.928 288.02 173.327 287.217 173.753 286.439C174.601 284.843 175.551 283.299 176.598 281.817C176.659 281.725 176.71 281.629 176.752 281.528C178.45 282.111 180.184 282.653 181.954 283.154C185.578 284.115 189.339 284.953 193.172 285.609C192.855 285.609 191.74 286.614 191.478 286.797C190.879 287.208 190.263 287.618 189.665 287.994C188.463 288.743 187.199 289.394 185.886 289.943C183.391 291.047 180.685 291.642 177.939 291.69C176.583 291.623 175.242 291.382 173.952 290.974C172.892 290.677 172.058 289.943 172.557 288.816ZM164.619 301.459C164.175 305.131 164.175 308.84 164.619 312.512C162.154 306.055 160.45 299.528 160.904 292.459C161.275 286.662 162.321 280.923 164.021 275.351C164.021 275.63 167.718 277.492 168.098 277.701C169.095 278.234 171.678 278.951 172.077 280.087C172.149 280.305 172.149 280.541 172.077 280.759C171.911 281.269 171.656 281.747 171.324 282.175C167.265 288.02 165.389 294.469 164.619 301.459ZM204.046 293.971C200.44 296.499 196.443 298.463 192.202 299.79C185.651 301.913 175.946 302.883 169.204 299.79C169.51 297.886 169.945 296.003 170.509 294.154C173.834 295.692 178.873 295.535 181.872 295.028C187.309 294.058 194.64 291.114 197.658 286.334C202.509 286.978 207.406 287.235 212.301 287.103C209.803 289.661 207.036 291.962 204.046 293.971V293.971Z" fill="#F1463B"/>
<g opacity="0.15">
<path opacity="0.15" d="M146.561 284.386C142.14 271.894 135.744 272.782 135.744 272.782C135.744 272.782 138.369 271.265 145.623 272.173C145.623 272.173 143.627 266.725 136.343 263.482C135.208 269.507 135.178 275.687 136.253 281.722C137.537 289.18 140.353 296.292 144.525 302.606C146.501 298.535 149.035 291.381 146.561 284.386Z" fill="black"/>
<path opacity="0.15" d="M161.937 319.209C163.498 315.667 165.782 312.489 168.642 309.88C177.742 301.568 180.964 299.204 180.905 293.526C180.835 286.023 173.641 286.542 171.495 287.829C171.495 287.829 169.5 284.736 164.221 286.202C161.522 287.011 159.248 288.845 157.885 291.311C157.885 291.311 154.323 290.942 150.622 294.913C148.457 297.422 146.457 300.068 144.635 302.836C149.104 309.52 155.016 315.115 161.937 319.209V319.209Z" fill="black"/>
</g>
<path d="M237.649 241.76C237.469 237.33 234.785 231.373 231.313 226.464C225.526 218.282 217.194 213.213 208.793 210.499L187.141 223.969C210.23 223.191 218.182 235.344 220.317 242.129C221.794 246.819 223.041 250.431 225.775 250.431C226.477 250.495 227.178 250.289 227.734 249.856C228.29 249.422 228.66 248.793 228.769 248.096C230.654 249.892 233.478 248.824 233.598 246.519C234.072 246.763 234.613 246.843 235.137 246.75C235.662 246.656 236.141 246.393 236.502 246.001C236.972 245.41 237.317 244.728 237.515 243.999C237.712 243.27 237.758 242.508 237.649 241.76V241.76Z" fill="#F1463B"/>
<path opacity="0.15" d="M208.793 210.459L187.141 223.969C189.865 223.865 192.593 223.965 195.303 224.268C201.507 221.008 207.117 216.724 211.896 211.596C210.878 211.177 209.844 210.798 208.793 210.459Z" fill="black"/>
<path opacity="0.15" d="M236.511 246C236.516 245.984 236.516 245.967 236.511 245.95C236.288 246.028 236.051 246.058 235.816 246.039C235.581 246.02 235.352 245.952 235.144 245.839C234.937 245.727 234.755 245.572 234.61 245.385C234.466 245.198 234.363 244.983 234.306 244.753C233.568 242.987 233.308 242.159 232.949 241.76C233.414 243.302 233.623 244.91 233.568 246.519C234.046 246.772 234.596 246.859 235.129 246.765C235.662 246.671 236.148 246.402 236.511 246V246Z" fill="black"/>
<path opacity="0.15" d="M231.951 248.804C231.377 248.751 230.836 248.51 230.412 248.119C229.988 247.728 229.705 247.207 229.606 246.639C229.048 244.783 228.718 244.204 228.319 243.805C228.715 245.199 228.87 246.65 228.778 248.096C229.183 248.507 229.697 248.793 230.26 248.918C230.823 249.044 231.41 249.004 231.951 248.804V248.804Z" fill="black"/>
<path d="M73.4824 274.907C75.6576 292.158 81.9038 302.635 94.2465 312.025C106.589 321.414 123.681 326.473 131.265 329.336C138.848 332.2 144.585 335.822 149.704 331.003C154.823 326.183 153.845 316.365 162.955 308.053C172.064 299.742 175.277 297.377 175.227 291.699C175.148 284.196 167.964 284.765 165.808 286.002C165.808 286.002 163.813 282.909 158.534 284.376C155.837 285.188 153.564 287.021 152.198 289.484C152.198 289.484 148.636 289.115 144.934 293.086C142.041 296.19 136.952 304.062 136.952 304.062C136.952 304.062 144.555 293.086 140.834 282.58C136.413 270.087 130.017 270.975 130.017 270.975C130.017 270.975 132.642 269.459 139.906 270.367C139.906 270.367 136.543 261.387 123.173 259.63C119.271 259.139 115.308 259.542 111.585 260.807C107.862 262.072 104.475 264.167 101.68 266.934L73.4824 274.907Z" fill="#F1463B"/>
<path opacity="0.15" d="M154.413 286.701C153.523 287.497 152.774 288.438 152.198 289.485C155.062 289.435 158.534 289.684 160.31 294.843C160.31 294.843 162.545 289.026 154.413 286.701Z" fill="black"/>
<path opacity="0.15" d="M167.364 291.899C167.364 291.899 169.988 290.233 168.162 285.314C167.341 285.395 166.543 285.628 165.808 286.002C166.517 286.791 167.028 287.737 167.299 288.763C167.569 289.788 167.592 290.864 167.364 291.899Z" fill="black"/>
<path d="M159.433 301.997C156.145 302.969 153.142 304.723 150.68 307.109C148.217 309.495 146.37 312.441 145.294 315.697C142.68 322.97 143.987 327.67 146.91 328.239C149.834 328.808 151.211 328.339 153.536 324.367C155.372 319.478 157.038 313.452 162.955 308.053C164.701 306.457 166.238 305.06 167.565 303.853C167.186 301.807 164.352 300.53 159.433 301.997Z" fill="#F28F8F"/>
<path d="M157.068 295.801C155.072 295.112 153.286 299.792 155.581 300.59C157.487 301.219 159.732 296.719 157.068 295.801Z" fill="#F28F8F"/>
<path d="M165.11 293.336C163.114 292.648 161.328 297.327 163.623 298.135C165.529 298.764 167.774 294.254 165.11 293.336Z" fill="#F28F8F"/>
<path d="M171.376 292.847C169.38 292.159 167.584 296.838 169.889 297.637C171.795 298.265 174.03 293.765 171.376 292.847Z" fill="#F28F8F"/>
<path opacity="0.05" d="M143.887 331.003C132.043 328.449 133.629 322.023 128.331 318.251C123.033 314.479 111.229 315.886 92.3006 300.4C73.3724 284.915 72.4944 251.309 84.5876 236.671C76.9545 246.061 72.0055 258.164 73.4822 274.917C73.7159 277.584 74.1868 280.226 74.8891 282.809C77.8825 295.541 83.8692 304.172 94.2463 312.035C106.599 321.414 123.681 326.513 131.264 329.347C138.848 332.18 144.585 335.832 149.704 331.013C150.113 330.621 150.487 330.193 150.821 329.736C149.814 330.41 148.678 330.871 147.485 331.089C146.293 331.307 145.068 331.277 143.887 331.003Z" fill="black"/>
<path opacity="0.15" d="M188.538 248.056C182.362 239.565 177.502 235.594 170.009 231.403V226.544C168.881 226.933 167.764 227.352 166.676 227.801C156.303 231.927 147.57 239.344 141.821 248.914C164.631 247.198 174.898 258.833 177.443 265.528C179.229 270.227 180.715 273.839 183.509 273.68C184.224 273.693 184.918 273.437 185.452 272.962C185.987 272.486 186.323 271.827 186.393 271.115C188.388 272.832 191.252 271.584 191.232 269.23C191.731 269.448 192.288 269.497 192.818 269.369C193.348 269.241 193.821 268.943 194.166 268.521C194.609 267.889 194.919 267.172 195.075 266.415C195.231 265.658 195.231 264.877 195.074 264.121C194.625 259.621 192.13 253.025 188.538 248.056Z" fill="black"/>
<path d="M196.021 260.778C195.582 256.268 193.108 249.673 189.496 244.714C183.31 236.223 178.46 232.251 170.957 228.061V222.154C170.957 222.154 143.927 227.692 143.428 245.652C166.966 243.487 175.806 255.43 178.351 262.235C180.137 266.935 181.623 270.547 184.417 270.387C185.132 270.401 185.826 270.144 186.36 269.669C186.895 269.194 187.231 268.535 187.301 267.823C189.296 269.539 192.16 268.292 192.14 265.937C192.639 266.156 193.196 266.205 193.726 266.077C194.256 265.949 194.729 265.651 195.074 265.229C196.121 263.961 196.181 262.375 196.021 260.778Z" fill="#F1463B"/>
<path opacity="0.15" d="M195.124 265.178V265.129C194.9 265.221 194.66 265.266 194.418 265.26C194.175 265.254 193.937 265.198 193.718 265.094C193.499 264.991 193.305 264.843 193.146 264.66C192.988 264.477 192.87 264.263 192.799 264.031C191.941 262.275 191.661 261.437 191.232 261.038C191.805 262.585 192.115 264.217 192.15 265.867C192.652 266.098 193.217 266.155 193.755 266.03C194.293 265.906 194.774 265.606 195.124 265.178V265.178Z" fill="black"/>
<path opacity="0.15" d="M190.623 268.312C190.033 268.29 189.467 268.075 189.011 267.7C188.554 267.325 188.234 266.811 188.099 266.236C187.421 264.37 187.041 263.802 186.612 263.422C187.099 264.821 187.345 266.292 187.341 267.773C187.778 268.168 188.321 268.429 188.903 268.525C189.485 268.62 190.082 268.546 190.623 268.312V268.312Z" fill="black"/>
<path opacity="0.15" d="M150.442 231.872C159.283 233.918 168.632 233.249 176.495 231.483C174.789 230.296 172.973 229.188 170.957 228.061V222.154C170.957 222.154 158.604 224.698 150.442 231.872Z" fill="black"/>
<path d="M176.784 163.064C179.508 154.433 191.422 143.547 201.46 146.71C207.107 148.486 204.842 169.33 204.842 169.33C204.842 169.33 186.493 170.737 176.784 163.064Z" fill="#F1463B"/>
<path opacity="0.15" d="M176.784 163.064C179.508 154.433 191.422 143.547 201.46 146.71C207.107 148.486 204.842 169.33 204.842 169.33C204.842 169.33 186.493 170.737 176.784 163.064Z" fill="black"/>
<path d="M185.314 167.295C194.554 170.119 204.841 169.291 204.841 169.291C204.841 169.291 207.106 148.447 201.459 146.671C197.797 146.172 188.916 151.749 185.314 167.295Z" fill="#FFA8A7"/>
<path d="M197.179 159.622C196.321 157.307 197.977 154.324 197.977 154.324C194.595 154.324 190.184 157.796 189.775 163.394C189.775 163.394 196.67 171.695 203.745 167.295C204.014 166.108 204.516 164.985 205.221 163.992C205.281 162.556 205.321 160.939 205.291 159.273C202.591 158.839 199.831 158.957 197.179 159.622Z" fill="#F28F8F"/>
<path d="M153.385 171.286C145.872 166.297 129.767 165.19 123.9 173.93C120.597 178.849 135.415 193.727 135.415 193.727C135.415 193.727 150.591 183.34 153.385 171.286Z" fill="#F1463B"/>
<path opacity="0.15" d="M153.385 171.286C145.872 166.297 129.767 165.19 123.9 173.93C120.597 178.849 135.415 193.727 135.415 193.727C135.415 193.727 150.591 183.34 153.385 171.286Z" fill="black"/>
<path d="M149.364 179.917C143.906 187.899 135.395 193.726 135.395 193.726C135.395 193.726 120.578 178.849 123.881 173.93C126.425 171.216 136.842 170.029 149.364 179.917Z" fill="#FFA8A7"/>
<path d="M131.784 177.422C131.784 177.422 134.947 178.719 135.725 181.064C135.725 181.064 131.135 183.06 128.87 186.253C129.718 187.35 130.586 188.388 131.395 189.336C132.857 189.606 134.229 190.237 135.386 191.172C143.657 190.174 143.368 179.977 143.368 179.977C140.455 175.806 134.428 175.307 131.784 177.422Z" fill="#F28F8F"/>
<path d="M185.035 224.768C175.427 228.15 161.088 230.425 148.426 226.484C133.31 221.775 132.462 201.02 136.153 191.462C139.845 181.903 147.379 172.164 164.67 166.068C181.962 159.971 193.956 162.835 202.806 167.983C211.656 173.132 224.019 189.825 215.189 202.966C207.775 213.982 194.644 221.385 185.035 224.768Z" fill="#F1463B"/>
<path d="M184.956 222.603C204.104 215.847 203.106 204.642 198.267 200.132C193.427 195.622 185.405 194.644 176.245 197.867C167.085 201.09 161.458 206.907 160.5 213.433C159.542 219.958 165.798 229.348 184.956 222.603Z" fill="#F0F0F0"/>
<path d="M179.717 214.58C179.717 214.58 180.495 217.823 182.91 217.015C185.324 216.207 183.908 213.143 183.908 213.143L180.914 210.968L179.717 214.58Z" fill="#F28F8F"/>
<path d="M179.598 207.426L175.098 206.927C174.934 206.909 174.784 206.826 174.681 206.696C174.578 206.567 174.53 206.403 174.549 206.239C174.567 206.075 174.65 205.925 174.779 205.822C174.909 205.719 175.073 205.671 175.237 205.69L179.159 206.129L182.002 203.365C182.06 203.307 182.128 203.261 182.204 203.23C182.279 203.198 182.36 203.182 182.441 203.182C182.523 203.182 182.604 203.198 182.679 203.23C182.755 203.261 182.823 203.307 182.88 203.365C182.995 203.482 183.059 203.64 183.059 203.804C183.059 203.968 182.995 204.126 182.88 204.243L179.598 207.426Z" fill="#575757"/>
<path d="M176.345 216.715C175.29 216.714 174.261 216.387 173.4 215.777C172.539 215.168 171.888 214.307 171.536 213.313C171.481 213.157 171.491 212.986 171.563 212.837C171.635 212.688 171.764 212.574 171.92 212.52C172.076 212.466 172.247 212.475 172.396 212.548C172.545 212.62 172.659 212.748 172.713 212.904C173.053 213.868 173.762 214.658 174.685 215.1C175.607 215.542 176.667 215.599 177.632 215.259C178.597 214.919 179.387 214.209 179.828 213.287C180.27 212.364 180.327 211.304 179.987 210.34L178.799 206.967C178.771 206.89 178.758 206.808 178.761 206.726C178.764 206.643 178.784 206.563 178.819 206.488C178.854 206.414 178.903 206.347 178.964 206.292C179.025 206.237 179.097 206.194 179.175 206.167C179.252 206.14 179.334 206.128 179.417 206.133C179.499 206.138 179.579 206.16 179.653 206.196C179.727 206.233 179.792 206.283 179.846 206.345C179.9 206.408 179.941 206.48 179.967 206.558L181.154 209.93C181.377 210.561 181.473 211.23 181.437 211.898C181.401 212.566 181.234 213.221 180.945 213.824C180.656 214.427 180.25 214.968 179.752 215.414C179.254 215.861 178.672 216.205 178.041 216.426C177.497 216.62 176.923 216.718 176.345 216.715V216.715Z" fill="#575757"/>
<path d="M184.786 213.723C184.027 213.72 183.277 213.55 182.591 213.224C181.986 212.937 181.445 212.532 180.997 212.033C180.55 211.535 180.207 210.953 179.987 210.32L178.8 206.948C178.771 206.87 178.758 206.788 178.761 206.706C178.765 206.624 178.784 206.543 178.819 206.469C178.854 206.394 178.904 206.328 178.965 206.272C179.026 206.217 179.097 206.175 179.175 206.148C179.252 206.12 179.335 206.109 179.417 206.114C179.499 206.119 179.579 206.14 179.653 206.177C179.727 206.213 179.793 206.264 179.847 206.326C179.9 206.388 179.941 206.46 179.967 206.538L181.154 209.911C181.325 210.391 181.589 210.833 181.931 211.21C182.274 211.586 182.688 211.891 183.15 212.106C183.838 212.435 184.608 212.552 185.363 212.443C186.118 212.335 186.823 212.005 187.391 211.496C187.959 210.987 188.363 210.322 188.553 209.583C188.743 208.845 188.71 208.066 188.458 207.347C188.404 207.192 188.414 207.022 188.485 206.874C188.556 206.726 188.683 206.613 188.838 206.558C188.914 206.53 188.996 206.518 189.077 206.521C189.159 206.525 189.238 206.546 189.312 206.581C189.386 206.616 189.451 206.666 189.505 206.727C189.559 206.789 189.6 206.86 189.626 206.938C190.073 208.212 189.996 209.611 189.413 210.829C188.829 212.047 187.786 212.983 186.513 213.433C185.959 213.631 185.374 213.729 184.786 213.723V213.723Z" fill="#575757"/>
<path d="M198.176 187.859C198.47 188.693 198.509 189.596 198.29 190.452C198.07 191.309 197.602 192.081 196.943 192.672C196.285 193.262 195.466 193.644 194.591 193.768C193.715 193.893 192.823 193.756 192.025 193.373C191.228 192.991 190.562 192.38 190.112 191.619C189.662 190.858 189.447 189.981 189.496 189.098C189.545 188.215 189.854 187.366 190.385 186.659C190.916 185.952 191.644 185.418 192.479 185.125C193.597 184.733 194.825 184.8 195.893 185.313C196.962 185.826 197.783 186.742 198.176 187.859V187.859Z" fill="#262525"/>
<path d="M152.877 203.814C153.171 204.645 153.705 205.37 154.412 205.898C155.118 206.425 155.965 206.731 156.846 206.778C157.726 206.824 158.6 206.609 159.358 206.158C160.116 205.708 160.724 205.043 161.104 204.248C161.485 203.452 161.621 202.562 161.495 201.689C161.37 200.817 160.988 200.001 160.399 199.345C159.811 198.688 159.04 198.222 158.186 198.003C157.332 197.784 156.432 197.824 155.6 198.116C154.485 198.512 153.571 199.334 153.06 200.402C152.55 201.47 152.484 202.697 152.877 203.814V203.814Z" fill="#262525"/>
<path d="M139.856 204.573C139.734 204.573 139.613 204.55 139.5 204.504C139.387 204.457 139.284 204.389 139.197 204.303C135.785 200.821 130.027 197.249 121.995 200.053C121.762 200.135 121.506 200.121 121.284 200.014C121.061 199.907 120.89 199.717 120.808 199.484C120.726 199.251 120.74 198.995 120.846 198.772C120.953 198.55 121.144 198.379 121.377 198.296C130.357 195.183 136.733 199.135 140.524 202.996C140.611 203.082 140.68 203.185 140.727 203.298C140.774 203.411 140.798 203.532 140.798 203.655C140.798 203.777 140.774 203.898 140.727 204.011C140.68 204.124 140.611 204.227 140.524 204.313C140.437 204.4 140.332 204.468 140.217 204.513C140.102 204.557 139.979 204.578 139.856 204.573V204.573Z" fill="#92140C"/>
<path d="M137.79 206.887C137.617 206.891 137.446 206.842 137.301 206.748C134.218 204.852 128.61 204.842 125.667 206.109C125.555 206.159 125.434 206.186 125.312 206.188C125.189 206.191 125.067 206.17 124.953 206.125C124.839 206.081 124.735 206.014 124.647 205.929C124.559 205.844 124.488 205.742 124.439 205.63C124.357 205.401 124.362 205.15 124.452 204.924C124.542 204.698 124.711 204.513 124.928 204.403C128.301 202.956 134.617 202.906 138.279 205.171C138.488 205.301 138.637 205.508 138.693 205.748C138.749 205.987 138.708 206.239 138.578 206.448C138.496 206.584 138.381 206.696 138.242 206.773C138.104 206.85 137.948 206.889 137.79 206.887Z" fill="#92140C"/>
<path d="M123.402 214.72C123.212 214.717 123.027 214.656 122.873 214.546C122.718 214.436 122.601 214.281 122.536 214.103C122.471 213.925 122.462 213.731 122.51 213.547C122.557 213.363 122.659 213.198 122.803 213.074C128.321 208.424 135.465 207.566 139.765 208.733C139.988 208.811 140.173 208.969 140.282 209.178C140.392 209.386 140.418 209.628 140.356 209.855C140.294 210.082 140.148 210.277 139.948 210.4C139.747 210.524 139.507 210.566 139.276 210.519C135.425 209.522 129.009 210.28 124 214.511C123.832 214.65 123.62 214.725 123.402 214.72V214.72Z" fill="#92140C"/>
<path d="M207.556 180.725H207.466C207.223 180.702 206.999 180.585 206.842 180.398C206.686 180.211 206.609 179.97 206.628 179.727C207.157 174.339 209.621 167.255 218.601 164.072C218.833 163.991 219.086 164.004 219.307 164.109C219.529 164.214 219.699 164.403 219.782 164.633C219.865 164.864 219.854 165.117 219.75 165.339C219.647 165.561 219.46 165.733 219.23 165.818C211.248 168.682 208.963 175.058 208.484 179.907C208.459 180.135 208.35 180.345 208.178 180.496C208.007 180.647 207.785 180.729 207.556 180.725V180.725Z" fill="#92140C"/>
<path d="M210.609 181.234C210.505 181.232 210.4 181.215 210.3 181.184C210.185 181.144 210.078 181.081 209.987 181C209.897 180.918 209.823 180.819 209.771 180.708C209.719 180.598 209.689 180.478 209.684 180.356C209.679 180.234 209.699 180.112 209.741 179.997C211.168 175.946 216.117 172.015 219.659 171.017C219.777 170.984 219.901 170.974 220.022 170.989C220.144 171.003 220.262 171.042 220.368 171.102C220.475 171.162 220.569 171.243 220.644 171.34C220.719 171.437 220.775 171.547 220.807 171.665C220.84 171.783 220.85 171.905 220.835 172.026C220.82 172.147 220.781 172.264 220.721 172.37C220.661 172.476 220.58 172.569 220.483 172.643C220.387 172.717 220.276 172.772 220.158 172.803C217.065 173.671 212.695 177.183 211.487 180.596C211.427 180.781 211.309 180.942 211.152 181.057C210.994 181.171 210.804 181.234 210.609 181.234V181.234Z" fill="#92140C"/>
<path d="M211.556 185.176C211.362 185.176 211.173 185.112 211.018 184.996C210.919 184.925 210.835 184.834 210.77 184.731C210.706 184.627 210.663 184.511 210.644 184.391C210.624 184.27 210.629 184.147 210.657 184.028C210.685 183.91 210.737 183.798 210.808 183.699C213.432 180.097 219.519 176.315 226.773 176.465C227.019 176.465 227.255 176.563 227.429 176.737C227.603 176.911 227.701 177.147 227.701 177.393C227.701 177.639 227.603 177.875 227.429 178.049C227.255 178.223 227.019 178.321 226.773 178.321V178.321C220.207 178.171 214.729 181.573 212.385 184.796C212.291 184.925 212.165 185.028 212.02 185.095C211.875 185.161 211.715 185.189 211.556 185.176V185.176Z" fill="#92140C"/>
<path d="M191.451 163.523C192.249 159.871 195.702 156.359 199.084 156.359C199.084 156.359 197.418 159.352 198.276 161.657C198.276 161.657 206.907 159.392 210.02 163.393C210.02 163.393 206.109 164.112 204.842 169.33C197.767 173.73 191.451 163.523 191.451 163.523Z" fill="#F1463B"/>
<path d="M142.24 180.795C139.337 178.44 134.448 177.852 131.803 179.967C131.803 179.967 134.967 181.264 135.745 183.609C135.745 183.609 127.593 187.221 127.653 192.3C127.653 192.3 131.185 190.434 135.435 193.717C143.687 192.769 142.24 180.795 142.24 180.795Z" fill="#F1463B"/>
<path d="M172.514 163.832C171.336 164.102 171.246 161.917 171.785 159.203C172.274 156.748 174.25 151.849 170.787 151.909C167.325 151.969 163.603 155.082 162.146 161.009C161.178 159.74 160.454 158.302 160.011 156.768C159.462 154.533 156.669 154.333 155.441 158.764C154.503 162.146 156.13 165.529 157.028 166.945C157.527 167.734 157.317 169.041 155.651 169.939C155.651 169.939 162.845 172.403 167.694 169.939C172.544 167.474 172.514 163.832 172.514 163.832Z" fill="#F1463B"/>
<path d="M163.982 182.791C164.27 182.769 164.55 182.691 164.807 182.56C165.064 182.429 165.291 182.248 165.477 182.028C165.663 181.807 165.803 181.552 165.889 181.277C165.975 181.002 166.005 180.713 165.978 180.426C165.433 175.762 163.52 171.363 160.48 167.784C159.053 168.392 157.686 169.031 156.409 169.689C159.522 173.341 161.298 177.073 161.648 180.835C161.693 181.378 161.94 181.885 162.341 182.255C162.742 182.624 163.267 182.83 163.813 182.83L163.982 182.791Z" fill="#92140C"/>
<path d="M177.163 175.357C177.262 175.851 177.528 176.296 177.918 176.616C178.307 176.936 178.794 177.112 179.298 177.113C179.438 177.128 179.578 177.128 179.717 177.113C179.998 177.058 180.265 176.949 180.503 176.791C180.741 176.632 180.945 176.429 181.105 176.192C181.264 175.954 181.375 175.688 181.432 175.408C181.488 175.128 181.489 174.839 181.433 174.559C180.514 170.333 178.442 166.444 175.447 163.324C173.81 163.593 172.134 163.942 170.378 164.391C174.08 167.824 176.365 171.486 177.163 175.357Z" fill="#92140C"/>
<path d="M163.313 166.587C165.598 169.111 169.25 173.95 170.118 179.827C170.193 180.343 170.451 180.815 170.845 181.155C171.239 181.496 171.743 181.684 172.264 181.683H172.593C173.163 181.597 173.676 181.288 174.018 180.824C174.361 180.36 174.505 179.779 174.419 179.209C173.49 173.992 171.185 169.118 167.744 165.09C166.746 165.389 165.748 165.718 164.67 166.088L163.313 166.587Z" fill="#92140C"/>
<path d="M84.6769 307.136H84.5173C84.3043 307.116 84.0973 307.054 83.9082 306.954C83.7191 306.854 83.5516 306.717 83.4153 306.552C83.2791 306.387 83.1767 306.197 83.1141 305.992C83.0515 305.788 83.0299 305.573 83.0505 305.36C83.7091 298.495 90.4542 286.551 106.369 281.782C121.795 277.152 137.949 282.371 144.654 290.083C144.81 290.243 144.931 290.432 145.011 290.64C145.091 290.848 145.127 291.07 145.118 291.293C145.109 291.516 145.055 291.734 144.959 291.935C144.862 292.136 144.726 292.315 144.558 292.461C144.39 292.607 144.194 292.717 143.981 292.785C143.769 292.853 143.545 292.877 143.324 292.855C143.102 292.833 142.887 292.767 142.692 292.659C142.497 292.551 142.326 292.405 142.19 292.229C137.251 286.541 122.743 280.255 107.267 284.905C92.8988 289.215 86.8322 299.682 86.2535 305.669C86.2126 306.063 86.0303 306.429 85.7405 306.698C85.4506 306.968 85.0727 307.123 84.6769 307.136V307.136Z" fill="#F8A19B"/>
<path d="M100.652 319.608C100.221 319.608 99.8082 319.438 99.5019 319.136C99.1956 318.833 99.0209 318.422 99.0156 317.992C99.0156 314.649 101.48 303.254 109.792 296.1C114.189 292.299 119.605 289.87 125.368 289.112C131.131 288.355 136.99 289.303 142.22 291.839C142.578 292.06 142.838 292.409 142.945 292.816C143.052 293.222 142.999 293.654 142.796 294.022C142.593 294.39 142.257 294.667 141.856 294.793C141.455 294.92 141.021 294.888 140.644 294.703C136.006 292.461 130.812 291.628 125.706 292.309C120.599 292.99 115.805 295.155 111.917 298.535C104.573 304.851 102.258 315.098 102.278 317.922C102.281 318.354 102.113 318.77 101.81 319.078C101.507 319.387 101.094 319.563 100.662 319.568L100.652 319.608Z" fill="#F8A19B"/>
<path d="M79.758 154.792C74.9387 166.147 79.3489 190.284 89.2371 205.161C99.9135 221.225 121.566 241.451 145.852 250.431C146.207 250.568 146.503 250.824 146.689 251.155C146.876 251.487 146.941 251.873 146.874 252.247C146.806 252.621 146.611 252.961 146.32 253.206C146.03 253.452 145.663 253.589 145.283 253.594C145.093 253.594 144.903 253.56 144.724 253.494C119.78 244.254 97.4889 223.47 86.5231 206.967C75.3877 190.274 71.0972 163.423 77.6228 151.729C78.0913 150.88 78.6357 150.075 79.2492 149.324C79.5924 151.127 79.7628 152.957 79.758 154.792V154.792Z" fill="#F8A19B"/>
</svg>
