<svg width="375" height="350" viewBox="0 0 375 350" fill="none" xmlns="http://www.w3.org/2000/svg">
<mask id="mask0_7095_7140" style="mask-type:alpha" maskUnits="userSpaceOnUse" x="0" y="0" width="375" height="341">
<rect width="375" height="341" fill="#C4C4C4"/>
</mask>
<g mask="url(#mask0_7095_7140)">
<path d="M31.41 44.59L26.83 40L31.41 35.41L30 34L24 40L30 46L31.41 44.59Z" fill="white"/>
<g opacity="0.4">
<path d="M128.102 51.2081L116.667 57.8035C116.729 57.3036 116.763 56.8005 116.767 56.2968V52.9841C116.767 47.0872 112.626 44.7024 107.517 47.6459C105.309 49.0037 103.423 50.8251 101.989 52.9841C101.161 45.5705 95.3441 42.8066 88.2797 46.8876C80.6466 51.2979 74.4503 62.0142 74.4503 70.8347V75.8236C74.4027 77.8006 74.8053 79.7625 75.6277 81.561L66.1287 87.0388C64.6365 88.0124 63.3947 89.3237 62.5037 90.8665C61.6127 92.4093 61.0975 94.1403 61 95.9192C61 99.192 63.2949 100.519 66.1287 98.9126L128.082 63.1417C129.573 62.1676 130.815 60.8561 131.706 59.3134C132.597 57.7708 133.112 56.0401 133.21 54.2613C133.23 50.8987 130.925 49.5717 128.102 51.2081Z" fill="#ECF8FB"/>
<path d="M174.549 70.9446L167.255 75.1553C167.296 74.8243 167.316 74.491 167.315 74.1575V72.0721C167.315 68.3204 164.681 66.7938 161.428 68.6796C160.027 69.5369 158.829 70.6874 157.916 72.0522C157.377 67.3226 153.675 65.5665 149.175 68.1707C144.306 70.9746 140.354 77.8094 140.354 83.437V86.6C140.322 87.8585 140.578 89.1076 141.103 90.2519L135.046 93.7542C134.094 94.373 133.301 95.2079 132.732 96.191C132.164 97.1741 131.835 98.2776 131.773 99.4117C131.773 101.497 133.24 102.345 135.046 101.298L174.549 78.4979C175.501 77.8769 176.294 77.0402 176.863 76.0554C177.431 75.0707 177.76 73.9659 177.822 72.8304C177.822 70.7451 176.355 69.9468 174.549 70.9446Z" fill="#ECF8FB"/>
</g>
<g opacity="0.4">
<path d="M325.102 151.414L313.667 158.009C313.729 157.509 313.763 157.006 313.767 156.502V153.19C313.767 147.293 309.626 144.908 304.517 147.852C302.309 149.209 300.423 151.031 298.989 153.19C298.161 145.776 292.344 143.012 285.28 147.093C277.647 151.503 271.45 162.22 271.45 171.04V176.029C271.403 178.006 271.805 179.968 272.628 181.767L263.129 187.244C261.637 188.218 260.395 189.529 259.504 191.072C258.613 192.615 258.098 194.346 258 196.125C258 199.398 260.295 200.725 263.129 199.118L325.082 163.347C326.573 162.373 327.815 161.062 328.706 159.519C329.597 157.976 330.112 156.246 330.21 154.467C330.23 151.104 327.925 149.777 325.102 151.414Z" fill="#D9F1F8" fill-opacity="0.5"/>
<path d="M371.549 171.15L364.255 175.361C364.296 175.03 364.316 174.697 364.315 174.363V172.278C364.315 168.526 361.681 166.999 358.428 168.885C357.027 169.742 355.829 170.893 354.916 172.258C354.377 167.528 350.675 165.772 346.175 168.376C341.306 171.18 337.354 178.015 337.354 183.643V186.806C337.322 188.064 337.578 189.313 338.103 190.457L332.046 193.96C331.094 194.579 330.301 195.414 329.732 196.397C329.164 197.38 328.835 198.483 328.773 199.617C328.773 201.703 330.24 202.551 332.046 201.503L371.549 178.703C372.501 178.083 373.294 177.246 373.863 176.261C374.431 175.276 374.76 174.171 374.822 173.036C374.822 170.951 373.355 170.152 371.549 171.15Z" fill="#D9F1F8" fill-opacity="0.5"/>
</g>
<path d="M101.506 279.852C101.625 278.381 102.187 276.981 103.118 275.836C103.993 274.685 105.206 273.838 106.587 273.411C107.765 273.076 109.021 273.139 110.16 273.592C111.298 274.045 112.255 274.861 112.882 275.915C113.414 274.857 114.267 273.995 115.319 273.454C116.372 272.912 117.568 272.72 118.737 272.905C120.158 273.167 121.462 273.868 122.467 274.909C123.528 275.931 124.249 277.255 124.534 278.701C124.874 280.549 124.611 282.458 123.782 284.144C122.798 285.859 121.42 287.315 119.763 288.392C117.075 290.237 113.54 292.553 113.54 292.553C113.54 292.553 110.302 290.418 107.425 288.935C105.649 288.066 104.107 286.783 102.93 285.193C101.893 283.613 101.394 281.74 101.506 279.852Z" fill="#F5F6F7"/>
<path d="M302.952 199.919C303.067 198.446 303.629 197.045 304.563 195.902C305.435 194.75 306.646 193.902 308.025 193.478C309.204 193.142 310.46 193.206 311.598 193.658C312.737 194.111 313.694 194.928 314.321 195.982C314.852 194.923 315.705 194.061 316.758 193.52C317.81 192.979 319.007 192.787 320.176 192.971C321.597 193.234 322.901 193.935 323.905 194.976C324.966 195.999 325.69 197.322 325.98 198.768C326.311 200.62 326.04 202.531 325.206 204.217C324.224 205.934 322.846 207.39 321.187 208.466C318.506 210.311 314.964 212.627 314.964 212.627C314.964 212.627 311.733 210.456 308.849 209.008C307.073 208.14 305.531 206.857 304.354 205.267C303.323 203.682 302.831 201.806 302.952 199.919V199.919Z" fill="#F5F6F7"/>
<path d="M121.069 261.882C121.14 260.937 121.501 260.038 122.103 259.306C122.664 258.565 123.443 258.019 124.329 257.743C124.802 257.614 125.296 257.581 125.781 257.647C126.267 257.713 126.734 257.876 127.155 258.126C127.653 258.433 128.071 258.852 128.377 259.349C128.718 258.67 129.266 258.117 129.941 257.771C130.617 257.425 131.386 257.304 132.135 257.424C133.048 257.587 133.886 258.035 134.528 258.705C135.21 259.363 135.675 260.214 135.858 261.144C136.075 262.332 135.903 263.558 135.366 264.64C134.736 265.742 133.851 266.678 132.786 267.368C131.058 268.555 128.789 270.046 128.789 270.046C128.789 270.046 126.707 268.671 124.857 267.701C123.715 267.143 122.724 266.319 121.966 265.298C121.309 264.285 120.995 263.088 121.069 261.882V261.882Z" fill="#F3F4F5"/>
<path d="M290.585 217.635C290.66 216.691 291.021 215.793 291.619 215.059C292.181 214.321 292.959 213.777 293.845 213.503C294.602 213.294 295.407 213.337 296.137 213.627C296.868 213.917 297.484 214.438 297.892 215.11C298.132 214.636 298.472 214.221 298.89 213.894C299.277 213.592 299.721 213.372 300.196 213.247C300.671 213.123 301.166 213.097 301.651 213.17C302.563 213.338 303.4 213.789 304.043 214.458C304.727 215.115 305.191 215.966 305.373 216.897C305.59 218.085 305.418 219.311 304.882 220.393C304.253 221.497 303.368 222.433 302.301 223.121C300.574 224.301 298.304 225.791 298.304 225.791C298.304 225.791 296.23 224.424 294.372 223.447C293.229 222.891 292.237 222.067 291.481 221.044C290.825 220.033 290.511 218.838 290.585 217.635V217.635Z" fill="#F3F4F5"/>
<path d="M327.122 254.219C327.193 253.274 327.554 252.374 328.156 251.643C328.717 250.902 329.495 250.355 330.382 250.079C330.855 249.95 331.348 249.917 331.834 249.983C332.32 250.049 332.787 250.212 333.208 250.463C333.705 250.769 334.124 251.188 334.43 251.686C334.769 251.005 335.316 250.451 335.993 250.105C336.669 249.758 337.438 249.638 338.188 249.761C339.099 249.93 339.935 250.377 340.581 251.042C341.263 251.699 341.727 252.55 341.91 253.481C342.125 254.669 341.952 255.894 341.419 256.976C340.788 258.081 339.9 259.017 338.831 259.705C337.111 260.892 334.834 262.382 334.834 262.382C334.834 262.382 332.76 261.007 330.91 260.038C329.768 259.479 328.777 258.656 328.018 257.635C327.362 256.622 327.047 255.424 327.122 254.219Z" fill="#F5F6F7"/>
<path d="M125.876 291.873C125.924 291.251 126.164 290.659 126.562 290.179C126.926 289.693 127.431 289.332 128.008 289.144C128.32 289.059 128.646 289.038 128.966 289.081C129.286 289.125 129.595 289.232 129.873 289.398C130.198 289.603 130.473 289.88 130.675 290.208C130.834 289.896 131.058 289.622 131.333 289.405C131.589 289.207 131.882 289.063 132.195 288.982C132.508 288.902 132.834 288.885 133.154 288.935C133.755 289.043 134.307 289.339 134.73 289.781C135.186 290.21 135.501 290.768 135.633 291.381C135.774 292.165 135.66 292.974 135.308 293.689C134.892 294.419 134.307 295.037 133.602 295.491C132.467 296.273 130.964 297.25 130.964 297.25C130.964 297.25 129.598 296.345 128.376 295.709C127.627 295.337 126.976 294.794 126.475 294.124C126.039 293.457 125.829 292.668 125.876 291.873V291.873Z" fill="#F3F4F5"/>
<path d="M86.766 116.764C86.766 116.764 83.4339 119.659 90.669 126.325C94.3287 129.81 98.2163 133.047 102.306 136.015C102.306 136.015 103.751 137.651 102.263 138.541C100.774 139.431 97.0368 140.169 97.0368 142.406C97.0368 144.642 99.2052 146.104 102.87 146.683C106.534 147.262 114.434 148.854 115.106 148.97C115.779 149.085 116.711 149.787 115.786 150.562C114.861 151.336 107.206 155.107 109.216 158.631C111.225 162.156 121.59 162.112 122.725 162.134C123.859 162.156 124.25 162.481 124.373 163.06C124.496 163.639 121.8 164.66 119.667 165.818C117.535 166.975 115.266 168.712 116.588 170.645C117.911 172.577 124.987 175.074 138.612 171.506L144.82 169.443L146.266 163.017C148.478 149.093 145.312 142.29 143.252 141.161C141.192 140.032 139.703 142.456 138.756 144.692C137.809 146.929 137.058 149.715 136.472 149.657C135.887 149.599 135.518 149.23 135.388 148.101C135.258 146.972 134.297 136.638 130.589 134.987C126.881 133.337 123.888 141.327 123.209 142.326C122.53 143.325 121.763 142.485 121.561 141.805C121.359 141.125 119.024 133.388 118.092 129.827C117.159 126.267 115.576 124.226 113.271 124.443C110.965 124.66 110.683 128.46 109.939 130.037C109.194 131.615 107.43 130.334 107.43 130.334C104.073 126.545 100.466 122.986 96.632 119.681C89.2813 113.168 86.7009 116.83 86.7009 116.83" fill="#F5F6F7"/>
<path d="M145.652 170.768C140.275 165.933 130.857 157.184 122.733 149.715C114.609 142.246 107.251 135.487 101.895 130.631L95.5487 124.885C94.8259 124.204 94.2187 123.683 93.8212 123.314L93.3731 122.909L93.2285 122.764C93.2842 122.802 93.3373 122.843 93.3875 122.887C93.4959 122.989 93.655 123.119 93.8501 123.285L95.592 124.819C97.1099 126.158 99.2927 128.105 101.981 130.522C107.366 135.357 114.739 142.102 122.863 149.563C130.987 157.025 140.405 165.803 145.754 170.659" fill="#F3F4F5"/>
<path d="M102.305 141.572C102.475 141.552 102.647 141.552 102.818 141.572H104.104C105.189 141.572 106.692 141.572 108.347 141.674L112.583 141.862L113.869 141.913C114.026 141.898 114.183 141.898 114.339 141.913C114.185 141.945 114.027 141.96 113.869 141.956C113.558 141.956 113.147 141.956 112.576 141.956C111.491 141.956 109.995 141.891 108.34 141.826L104.097 141.659L102.818 141.616C102.646 141.624 102.473 141.609 102.305 141.572V141.572Z" fill="#F3F4F5"/>
<path d="M114.579 141.357C114.521 141.357 114.456 138.252 114.434 134.431C114.412 130.61 114.434 127.498 114.499 127.498C114.564 127.498 114.615 130.602 114.637 134.423C114.658 138.245 114.629 141.357 114.579 141.357Z" fill="#F3F4F5"/>
<path d="M126.535 153.384C126.556 153.224 126.593 153.067 126.644 152.914C126.745 152.581 126.86 152.19 127.005 151.654C127.309 150.583 127.728 149.107 128.111 147.464C128.494 145.821 128.834 144.323 129.029 143.23C129.137 142.724 129.217 142.289 129.289 141.942C129.308 141.781 129.347 141.623 129.405 141.472C129.411 141.634 129.399 141.797 129.368 141.957C129.325 142.268 129.267 142.68 129.173 143.259C128.993 144.352 128.711 145.865 128.313 147.515C127.916 149.165 127.482 150.634 127.142 151.698C126.969 152.226 126.832 152.646 126.723 152.942C126.679 153.097 126.615 153.245 126.535 153.384V153.384Z" fill="#F3F4F5"/>
<path d="M115.482 156.048C115.614 155.978 115.756 155.926 115.902 155.896L117.073 155.57C118.063 155.295 119.429 154.94 120.947 154.557C122.465 154.173 123.838 153.833 124.835 153.601L126.013 153.334C126.158 153.298 126.306 153.273 126.454 153.261C126.321 153.329 126.181 153.38 126.035 153.413L124.871 153.739C123.881 154.014 122.508 154.369 120.997 154.752C119.487 155.136 118.106 155.476 117.109 155.707L115.923 155.975C115.779 156.012 115.631 156.036 115.482 156.048V156.048Z" fill="#F3F4F5"/>
<path d="M124.691 168.003C124.866 167.924 125.047 167.864 125.233 167.822L126.73 167.395C127.995 167.04 129.744 166.57 131.681 166.056C133.618 165.542 135.374 165.094 136.654 164.775L138.164 164.413C138.346 164.361 138.532 164.325 138.721 164.305C138.549 164.385 138.37 164.448 138.186 164.493L136.69 164.92C135.425 165.267 133.668 165.745 131.731 166.251C129.794 166.758 128.038 167.214 126.766 167.532L125.255 167.894C125.072 167.951 124.883 167.987 124.691 168.003V168.003Z" fill="#F3F4F5"/>
<path d="M138.365 164.298C138.387 164.094 138.428 163.893 138.488 163.697C138.589 163.285 138.719 162.735 138.886 162.083C139.218 160.715 139.673 158.827 140.114 156.728C140.555 154.629 140.917 152.711 141.162 151.329C141.285 150.663 141.386 150.113 141.459 149.686C141.487 149.483 141.53 149.282 141.589 149.085C141.589 149.292 141.572 149.497 141.538 149.701C141.488 150.091 141.415 150.656 141.307 151.351C141.097 152.747 140.765 154.665 140.317 156.764C139.869 158.863 139.392 160.759 139.023 162.119C138.835 162.8 138.676 163.343 138.56 163.719C138.508 163.916 138.443 164.109 138.365 164.298V164.298Z" fill="#F3F4F5"/>
<path d="M290.947 157.046C281.349 148.629 280.409 134.843 282.129 122.757C282.419 120.73 282.426 118.566 283.575 116.887C284.724 115.208 287.109 114.238 288.837 115.288C290.282 116.164 290.731 117.987 291.417 119.529C292.331 121.587 293.81 123.344 295.682 124.595C296.903 125.405 298.457 125.984 299.809 125.42C301.659 124.645 302.122 122.25 302.331 120.224C302.712 116.46 303.093 112.695 303.473 108.926C303.568 106.895 303.993 104.893 304.731 102.999C305.562 101.147 307.138 99.5182 309.118 99.1853C311.099 98.8524 313.347 100.22 313.535 102.239C313.526 103.083 313.456 103.925 313.325 104.758C313.258 105.181 313.32 105.615 313.503 106.002C313.686 106.39 313.982 106.713 314.351 106.929C315.132 107.255 315.999 106.77 316.664 106.205C318.963 104.389 320.661 101.914 322.266 99.4459C323.87 96.978 325.439 94.4088 327.607 92.3607C329.776 90.3126 332.537 88.8652 335.442 89.01C338.348 89.1547 341.225 91.2752 341.658 94.1917C342.092 97.1083 340.111 99.8294 338.044 101.935C334.999 105.072 331.518 107.754 327.708 109.896C326.979 110.203 326.366 110.736 325.959 111.416C325.374 112.711 326.509 114.188 327.788 114.774C329.234 115.433 330.881 115.454 332.435 115.809C333.989 116.164 335.616 117.046 336.049 118.595C336.657 120.766 334.698 122.728 332.847 123.958C329.146 126.433 325.045 128.249 320.726 129.328C319.187 129.711 317.575 130.052 316.267 130.934C314.958 131.817 314.019 133.612 314.597 135.06C315.175 136.507 316.975 137.231 318.558 137.101C320.141 136.97 321.63 136.283 323.169 135.885C326.06 135.161 329.609 135.711 331.12 138.302C331.574 139.185 331.816 140.162 331.829 141.156C331.841 142.149 331.623 143.132 331.192 144.026C330.312 145.807 329.083 147.392 327.578 148.687C322.616 153.495 316.467 156.899 309.762 158.551C303.097 160.086 297.077 160.049 290.933 157.024" fill="#F3F4F5"/>
<path d="M294.906 149.758C297.637 143.351 300.731 137.105 304.172 131.05C305.083 129.436 305.972 127.844 306.854 126.273C307.736 124.703 308.618 123.154 309.564 121.685C311.399 118.875 313.385 116.167 315.513 113.572C317.529 111.083 319.532 108.796 321.418 106.668C323.305 104.54 325.119 102.601 326.839 100.878C329.53 98.1809 332.431 95.7005 335.512 93.4605C336.604 92.6644 337.471 92.0782 338.064 91.6874L338.743 91.2459C338.818 91.1915 338.898 91.1454 338.982 91.1084C338.914 91.1719 338.842 91.23 338.765 91.2821L338.107 91.7525C337.529 92.1578 336.662 92.7657 335.599 93.5762C332.551 95.8565 329.676 98.3602 326.998 101.067C325.299 102.782 323.507 104.729 321.628 106.856C319.748 108.984 317.761 111.285 315.759 113.775C313.64 116.359 311.669 119.06 309.854 121.866C308.907 123.313 308.039 124.862 307.157 126.433L304.476 131.209C301.04 137.25 297.944 143.479 295.203 149.866" fill="#F3F4F5"/>
<path d="M309.675 121.685C309.614 121.395 309.58 121.099 309.574 120.803C309.523 120.231 309.487 119.406 309.451 118.385C309.386 116.344 309.386 113.522 309.401 110.425C309.415 107.327 309.401 104.497 309.278 102.464C309.227 101.443 309.184 100.618 309.14 100.054C309.104 99.7581 309.104 99.4592 309.14 99.1636C309.221 99.4497 309.274 99.7429 309.299 100.039C309.386 100.604 309.473 101.429 309.552 102.442C309.719 104.483 309.798 107.305 309.784 110.403C309.769 113.5 309.747 116.25 309.733 118.364V120.781C309.751 121.084 309.732 121.387 309.675 121.685V121.685Z" fill="#F3F4F5"/>
<path d="M336.128 119.63C335.779 119.66 335.429 119.66 335.08 119.63C334.408 119.63 333.432 119.63 332.232 119.63C329.833 119.63 326.515 119.746 322.836 120.036C319.157 120.325 315.883 120.759 313.505 121.107C312.312 121.28 311.336 121.447 310.693 121.555C310.351 121.633 310.003 121.681 309.652 121.7C309.979 121.569 310.318 121.472 310.664 121.411C311.322 121.259 312.276 121.049 313.461 120.839C315.839 120.412 319.143 119.956 322.807 119.659C325.932 119.402 329.068 119.303 332.203 119.363C333.403 119.363 334.372 119.449 335.051 119.507C335.413 119.512 335.774 119.554 336.128 119.63V119.63Z" fill="#F3F4F5"/>
<path d="M295.276 149.31C295.212 149.206 295.164 149.094 295.131 148.977L294.792 147.992C294.495 147.131 294.069 145.879 293.642 144.323C292.71 141.211 291.561 136.876 290.354 132.078C289.147 127.28 288.041 122.938 287.173 119.811L286.14 116.113C286.031 115.715 285.938 115.389 285.865 115.107C285.824 114.99 285.8 114.869 285.793 114.745C285.85 114.855 285.898 114.968 285.938 115.085C286.024 115.353 286.14 115.679 286.277 116.07C286.574 116.931 286.964 118.183 287.426 119.739C288.359 122.843 289.508 127.178 290.715 131.984C291.922 136.789 293.028 141.124 293.895 144.287L294.929 147.985C295.037 148.383 295.131 148.709 295.204 148.991C295.241 149.094 295.265 149.201 295.276 149.31Z" fill="#F3F4F5"/>
<path d="M330.925 141.913C330.814 141.968 330.694 142.002 330.571 142.015L329.538 142.246L325.714 143.042C322.49 143.723 318.052 144.7 313.145 145.8C308.237 146.9 303.748 147.833 300.539 148.441C298.92 148.752 297.605 148.984 296.694 149.165L295.646 149.317C295.524 149.338 295.399 149.338 295.277 149.317C295.393 149.274 295.511 149.24 295.632 149.216L296.672 148.991L300.489 148.188C303.712 147.515 308.157 146.531 313.065 145.438C317.973 144.345 322.425 143.397 325.663 142.789C327.282 142.485 328.598 142.253 329.509 142.109L330.557 141.949C330.677 141.922 330.801 141.909 330.925 141.913V141.913Z" fill="#F3F4F5"/>
<g opacity="0.4">
<path d="M0.101657 153.414L-11.3331 160.009C-11.2706 159.509 -11.2373 159.006 -11.2333 158.502V155.19C-11.2333 149.293 -15.3741 146.908 -20.4828 149.852C-22.6905 151.209 -24.5767 153.031 -26.0106 155.19C-26.8388 147.776 -32.6559 145.012 -39.7203 149.093C-47.3534 153.503 -53.5497 164.22 -53.5497 173.04V178.029C-53.5973 180.006 -53.1947 181.968 -52.3723 183.767L-61.8713 189.244C-63.3635 190.218 -64.6053 191.529 -65.4963 193.072C-66.3873 194.615 -66.9025 196.346 -67 198.125C-67 201.398 -64.7051 202.725 -61.8713 201.118L0.0816965 165.347C1.57326 164.373 2.8147 163.062 3.70564 161.519C4.59659 159.976 5.11205 158.246 5.21036 156.467C5.23031 153.104 2.92541 151.777 0.101657 153.414Z" fill="#ECF8FB"/>
<path d="M46.5489 173.15L39.255 177.361C39.2958 177.03 39.3158 176.697 39.3149 176.363V174.278C39.3149 170.526 36.6807 168.999 33.4279 170.885C32.0272 171.742 30.829 172.893 29.9156 174.258C29.3768 169.528 25.675 167.772 21.175 170.376C16.3057 173.18 12.3545 180.015 12.3545 185.643V188.806C12.3221 190.064 12.5781 191.313 13.1028 192.457L7.0462 195.96C6.09385 196.579 5.30107 197.414 4.73236 198.397C4.16366 199.38 3.8351 200.483 3.77344 201.617C3.77344 203.703 5.24019 204.551 7.0462 203.503L46.5489 180.703C47.5014 180.083 48.2942 179.246 48.8628 178.261C49.4314 177.276 49.7599 176.171 49.8216 175.036C49.8216 172.951 48.3549 172.152 46.5489 173.15Z" fill="#ECF8FB"/>
</g>
</g>
<ellipse cx="187.5" cy="334" rx="132.5" ry="16" fill="#F3F3F3"/>
<g clip-path="url(#clip0_7095_7140)">
<path d="M124.342 311.157C117.51 310.114 111.071 305.916 107.981 299.727C105.056 293.868 105.289 287.006 105.282 280.459C105.275 274.657 105.015 268.771 103.288 263.234C101.561 257.696 98.2043 252.472 93.1981 249.544C89.0859 247.14 81.3438 245.137 76.5906 244.871C72.7213 244.654 52.0826 246.724 55.3514 258.216C57.6926 266.448 69.0173 263.872 70.1474 263.541C76.2128 261.778 82.8146 265.597 86.1645 270.96C89.5143 276.322 90.3003 282.859 90.7119 289.171C91.12 295.482 91.2617 301.952 93.5557 307.844C95.1918 312.048 97.8669 315.787 100.933 319.092C103.727 322.105 106.935 324.843 110.75 326.363C114.117 327.703 117.794 328.034 121.41 328.254C127.132 328.598 132.934 328.686 138.52 327.403C144.107 326.12 149.508 323.337 153.026 318.809C154.925 316.364 156.251 313.342 156.096 310.249C155.941 307.155 154.075 304.056 151.161 303.016C146.283 301.273 142.467 300.29 139.887 303.164C133.74 310.002 129.702 311.978 124.342 311.157Z" fill="#CC190E"/>
<path d="M120.04 310.036C116.265 308.665 112.838 306.321 110.335 303.231C107.093 308.111 103.038 312.453 98.3828 316.006C99.2161 317.076 100.097 318.11 101.017 319.099C102.488 320.686 104.074 322.192 105.804 323.489C111.88 320.899 116.741 315.905 120.04 310.036Z" fill="#EF3124" fill-opacity="0.95"/>
<path d="M80.7029 245.38C79.2422 245.117 77.8692 244.941 76.6784 244.877C75.3661 244.803 72.1175 244.995 68.5282 245.728C70.6737 251.418 67.8231 257.847 67.1113 264.084C68.7036 263.929 69.9045 263.642 70.2351 263.547C71.6115 263.149 73.0182 263.038 74.4047 263.166C76.9348 257.776 78.9555 252.147 80.4196 246.376C80.5073 246.046 80.595 245.708 80.7029 245.38Z" fill="#EF3124" fill-opacity="0.95"/>
<path d="M95.2754 299.051C99.03 297.92 102.788 296.785 106.543 295.654C105.548 291.956 105.392 288.009 105.372 284.085C104.95 284.331 104.522 284.564 104.094 284.787C101.101 286.347 97.9539 287.614 94.712 288.559C93.42 288.937 92.0909 289.275 90.8359 289.758C91.0451 293.098 91.2003 296.478 91.6591 299.784C92.8904 299.679 94.1487 299.389 95.2754 299.051Z" fill="#EF3124" fill-opacity="0.95"/>
<path d="M105.127 272.969C104.87 269.666 104.364 266.394 103.379 263.237C101.861 258.368 99.085 253.745 95.0335 250.709C96.1805 255.035 93.7853 259.57 90.756 262.879C88.8466 264.966 86.6505 266.806 84.6602 268.812C85.2471 269.494 85.7835 270.213 86.2558 270.966C87.7266 273.32 88.7015 275.9 89.3695 278.588C93.2354 277.294 97.0407 275.826 100.799 274.249C102.148 273.681 103.67 273.124 105.127 272.969Z" fill="#EF3124" fill-opacity="0.95"/>
<path d="M138.608 327.409C142.343 326.551 145.993 325.018 149.056 322.749C147.278 315.644 144.61 308.654 141.027 302.255C140.656 302.502 140.305 302.806 139.974 303.174C136.523 307.01 133.737 309.316 131.008 310.454C132.516 316.276 133.804 322.151 134.874 328.071C136.122 327.905 137.37 327.693 138.608 327.409Z" fill="#EF3124" fill-opacity="0.95"/>
<path d="M264.62 249.969C269.032 251.512 271.782 256.267 271.987 260.944C272.112 263.804 271.444 266.634 270.743 269.409C266.981 284.308 262.191 298.946 256.422 313.183C253.882 319.453 250.93 325.934 245.526 329.992C242.568 332.214 238.975 333.585 235.288 333.893C232.825 334.099 230.15 333.768 228.288 332.14C225.522 329.719 225.525 325.464 225.957 321.81C228.16 303.154 235.689 285.442 245.489 269.42C247.034 266.89 248.64 264.371 249.837 261.656C250.897 259.252 251.075 256.723 251.925 254.302C253.531 249.733 260.484 248.524 264.62 249.969Z" fill="#D6251A"/>
<path d="M245.624 342.956C247.796 343.949 250.61 344.847 252.351 343.209C252.796 342.77 251.706 341.956 251.069 341.71C252.843 342.392 254.587 342.524 256.156 341.453C257.1 340.835 256.19 339.65 255.424 339.076C256.578 339.924 258.035 339.292 258.16 338.009C258.285 336.726 257.32 335.611 256.348 334.764C249.834 329.104 240.645 327.993 232.781 324.448C230.612 323.469 228.521 322.293 226.26 321.554C222.877 320.446 219.166 320.365 215.735 321.321C214.986 321.53 214.227 321.8 213.637 322.31C208.226 326.997 222.354 331.806 224.739 332.988C231.644 336.422 238.611 339.745 245.624 342.956Z" fill="#D6251A"/>
<path d="M139.924 250.621C136.371 264.078 139.114 272.138 140.102 286.024C141.091 299.906 146.95 314.081 158.373 322.013C163.841 325.812 170.261 327.99 176.687 329.729C190.404 333.437 202.541 335.818 216.585 333.65C250.083 328.48 258.119 287.3 258.058 270.622C258.001 253.944 255.609 237.378 254.01 220.781C253.116 211.498 252.431 202.033 249.017 193.354C242.439 176.622 225.235 164.658 207.274 164.324C194.408 164.084 181.717 169.825 172.916 179.135C162.974 189.653 158.771 202.597 152.061 217.552C148.236 226.082 142.309 241.582 139.924 250.621Z" fill="#EF3124" fill-opacity="0.95"/>
<path d="M172.99 103.11C174.16 101.303 175.624 99.3681 177.753 99.0439C178.967 98.8582 180.205 99.2533 181.292 99.824C185.424 101.995 187.721 106.493 189.516 110.802C191.992 116.748 194.043 123.083 193.625 129.513C193.193 136.138 190.144 142.378 186.068 147.612C181.993 152.846 176.91 157.196 171.826 161.46C169.056 163.784 166.179 166.144 162.738 167.252C158.558 168.592 154.071 168.13 154.078 163.267C154.088 158.384 154.803 153.333 155.576 148.521C157.253 138.083 160.336 127.872 164.708 118.248C167.093 113.007 169.859 107.942 172.99 103.11Z" fill="#EF3124" fill-opacity="0.95"/>
<path d="M168.942 131.103C169.148 118.981 173.307 111.052 175.2 104.676C175.621 103.258 177.021 101.097 178.071 99.0068C177.966 99.0136 177.858 99.0237 177.753 99.0406C175.625 99.3648 174.164 101.296 172.99 103.106C169.86 107.935 167.093 113.004 164.712 118.244C160.336 127.868 157.256 138.08 155.58 148.517C154.807 153.329 154.089 158.381 154.082 163.264C154.072 168.126 158.562 168.592 162.742 167.248C166.183 166.144 169.06 163.78 171.83 161.457C171.951 161.356 172.073 161.251 172.194 161.15C173.456 156.534 166.658 153.441 166.726 148.605C166.861 138.559 168.773 140.852 168.942 131.103Z" fill="#CC190E"/>
<path d="M235.104 102.708C236.41 100.992 238.012 99.1756 240.161 99.0135C241.386 98.9223 242.59 99.4052 243.632 100.06C247.589 102.539 249.539 107.195 251.003 111.629C253.024 117.748 254.751 126.325 255.821 133.45C256.802 140.014 249.246 143.162 244.786 148.075C240.326 152.985 234.929 156.939 229.538 160.802C226.6 162.909 223.554 165.047 220.039 165.887C215.771 166.907 211.328 166.107 211.706 161.258C212.084 156.392 213.18 151.408 214.314 146.667C216.776 136.384 220.619 126.436 225.709 117.174C228.479 112.129 231.62 107.287 235.104 102.708Z" fill="#EF3124" fill-opacity="0.95"/>
<path d="M235.193 116.117C235.547 112.173 235.908 108.185 237.19 104.437C237.669 103.035 239.278 101.006 240.479 99C240.375 99 240.267 99.0034 240.162 99.0101C238.016 99.1722 236.411 100.989 235.105 102.704C231.617 107.283 228.476 112.126 225.707 117.17C220.616 126.433 216.774 136.384 214.311 146.663C213.178 151.401 212.081 156.385 211.7 161.254C211.322 166.104 215.765 166.907 220.033 165.884C223.548 165.043 226.594 162.906 229.532 160.799C229.66 160.707 229.792 160.613 229.92 160.518C231.529 156.01 232.066 150.955 232.498 146.137C233.398 136.131 234.296 126.122 235.193 116.117Z" fill="#CC190E"/>
<path d="M167.099 131.846C159.276 141.804 154.671 154.254 154.128 166.907C153.855 173.256 154.621 179.769 157.387 185.49C161.418 193.82 169.406 199.74 178.076 202.961C186.746 206.183 196.114 206.983 205.357 207.257C218.588 207.648 232.291 206.919 244.175 201.094C256.063 195.269 274.172 166.664 257.517 136.26C248.929 120.581 228.452 110.711 212.893 111.491C194.663 112.406 177.951 118.032 167.099 131.846Z" fill="#EF3124" fill-opacity="0.95"/>
<path d="M199.418 141.716C199.637 142.682 199.752 143.685 199.752 144.715C199.752 152.157 193.727 158.188 186.292 158.188C181.329 158.188 176.995 155.5 174.66 151.499C176.023 157.496 181.38 161.974 187.786 161.974C195.221 161.974 201.246 155.943 201.246 148.5C201.246 146.025 200.582 143.709 199.418 141.716Z" fill="#E9F1F4"/>
<path d="M191.043 162.046C198.278 160.336 202.758 153.08 201.05 145.838C199.341 138.596 192.092 134.112 184.857 135.822C177.623 137.532 173.143 144.789 174.851 152.03C176.559 159.272 183.809 163.756 191.043 162.046Z" fill="white"/>
<path d="M187.955 162.858C180.29 162.858 174.053 156.615 174.053 148.943C174.053 141.271 180.29 135.027 187.955 135.027C195.619 135.027 201.857 141.271 201.857 148.943C201.857 156.615 195.619 162.858 187.955 162.858ZM187.955 135.912C180.776 135.912 174.937 141.757 174.937 148.943C174.937 156.128 180.776 161.974 187.955 161.974C195.133 161.974 200.973 156.128 200.973 148.943C200.973 141.757 195.133 135.912 187.955 135.912Z" fill="#CC190E"/>
<path d="M197.593 149.476C197.593 154.346 193.649 158.293 188.785 158.293C183.92 158.293 179.977 154.346 179.977 149.476C179.977 144.607 183.92 140.66 188.785 140.66C193.649 140.66 197.593 144.607 197.593 149.476Z" fill="#3C0B02"/>
<path d="M188.97 157.331C189.968 154.721 190.818 152.022 191.075 149.237C191.328 146.451 190.957 143.557 189.631 141.095C189.675 141.099 188.771 141.98 188.713 142.058C188.315 142.588 188.2 143.533 188.049 144.168C187.705 145.617 187.512 147.099 187.465 148.588C187.421 150.077 187.522 151.57 187.775 153.036C187.907 153.795 188.076 154.548 188.285 155.291C188.379 155.649 189.081 157.037 188.97 157.331Z" fill="#30211F"/>
<path d="M181.467 149.966C181.518 150.256 181.585 150.55 181.74 150.8C181.896 151.05 182.145 151.256 182.439 151.289C182.874 151.337 183.269 150.989 183.441 150.584C183.613 150.182 183.619 149.729 183.66 149.294C183.768 148.129 184.149 146.987 184.76 145.988C185.792 144.303 183.265 144.671 182.597 145.603C181.697 146.856 181.204 148.439 181.467 149.966Z" fill="white"/>
<path d="M185.883 144.276C186.227 144.327 186.582 144.181 186.845 143.952C187.108 143.722 187.293 143.422 187.459 143.114C187.546 142.952 187.621 142.736 187.492 142.604C187.448 142.557 187.384 142.533 187.32 142.513C186.757 142.344 185.765 142.554 185.384 143.047C185.023 143.516 185.273 144.185 185.883 144.276Z" fill="white"/>
<path d="M249.904 141.247C250.113 142.162 250.221 143.114 250.221 144.09C250.221 151.148 244.507 156.865 237.459 156.865C232.753 156.865 228.645 154.315 226.432 150.523C227.724 156.21 232.804 160.454 238.876 160.454C245.927 160.454 251.638 154.734 251.638 147.68C251.638 145.333 251.007 143.135 249.904 141.247Z" fill="#E9F1F4"/>
<path d="M251.767 149.001C252.267 141.963 246.972 135.853 239.942 135.352C232.911 134.852 226.807 140.152 226.307 147.189C225.807 154.227 231.102 160.337 238.132 160.837C245.163 161.338 251.267 156.038 251.767 149.001Z" fill="white"/>
<path d="M239.035 161.292C231.765 161.292 225.852 155.372 225.852 148.095C225.852 140.818 231.765 134.899 239.035 134.899C246.305 134.899 252.218 140.818 252.218 148.095C252.215 155.372 246.301 161.292 239.035 161.292ZM239.035 135.74C232.227 135.74 226.692 141.284 226.692 148.095C226.692 154.91 232.231 160.451 239.035 160.451C245.843 160.451 251.378 154.906 251.378 148.095C251.378 141.284 245.843 135.74 239.035 135.74Z" fill="#CC190E"/>
<path d="M248.17 148.605C248.17 153.221 244.432 156.966 239.817 156.966C235.206 156.966 231.465 153.221 231.465 148.605C231.465 143.989 235.203 140.244 239.817 140.244C244.432 140.244 248.17 143.989 248.17 148.605Z" fill="#3C0B02"/>
<path d="M239.995 156.054C240.943 153.579 241.749 151.02 241.989 148.379C242.232 145.738 241.878 142.993 240.619 140.66C240.66 140.663 239.803 141.5 239.749 141.571C239.371 142.075 239.26 142.969 239.118 143.574C238.794 144.948 238.609 146.353 238.565 147.764C238.521 149.176 238.619 150.591 238.858 151.982C238.983 152.705 239.142 153.417 239.344 154.123C239.435 154.457 240.103 155.774 239.995 156.054Z" fill="#30211F"/>
<path d="M232.882 149.068C232.929 149.345 232.993 149.621 233.141 149.861C233.286 150.101 233.526 150.293 233.803 150.324C234.214 150.368 234.592 150.037 234.754 149.655C234.916 149.274 234.923 148.845 234.963 148.433C235.068 147.325 235.425 146.245 236.005 145.299C236.984 143.702 234.589 144.05 233.954 144.934C233.098 146.12 232.632 147.622 232.882 149.068Z" fill="white"/>
<path d="M237.07 143.675C237.397 143.726 237.731 143.584 237.981 143.368C238.231 143.152 238.406 142.865 238.565 142.571C238.646 142.419 238.716 142.213 238.595 142.088C238.551 142.044 238.49 142.02 238.433 142.004C237.9 141.845 236.959 142.044 236.595 142.51C236.25 142.952 236.49 143.587 237.07 143.675Z" fill="white"/>
<path d="M169.777 171.939C167.038 170.331 163.965 168.714 162.751 165.779C162.14 164.304 162.086 162.663 162.106 161.065C162.194 154.47 163.516 147.649 167.44 142.355C168.732 140.609 170.304 139.032 171.211 137.06C172.119 135.084 172.193 132.501 170.655 130.965C170.064 130.374 169.295 129.996 168.647 129.469C168.118 130.073 167.602 130.698 167.099 131.339C159.276 141.298 154.671 153.748 154.128 166.401C153.855 172.749 154.621 179.263 157.387 184.983C157.815 185.868 158.291 186.726 158.807 187.56C161.3 188.198 164.076 187.961 166.633 187.401C168.836 186.918 171.042 186.199 172.81 184.797C174.578 183.396 175.843 181.205 175.654 178.956C175.391 175.788 172.513 173.546 169.777 171.939Z" fill="#CC190E"/>
<path d="M212.9 111.49C211.585 111.558 210.276 111.649 208.977 111.764C208.272 112.477 207.402 112.811 206.245 113.25C204.305 113.983 202.527 115.148 201.08 116.633C200.739 116.985 200.408 117.363 200.25 117.829C199.791 119.19 200.999 120.537 202.23 121.27C204.042 122.343 206.113 122.877 208.046 123.711C209.979 124.545 211.882 125.805 212.708 127.743C213.555 129.729 213.123 132.069 213.922 134.074C214.786 136.239 217.063 137.677 219.387 137.789C221.712 137.9 224.006 136.8 225.591 135.094C226.553 134.064 227.271 132.832 228.158 131.738C229.484 130.093 231.167 128.773 232.915 127.591C233.515 127.186 234.136 126.784 234.568 126.2C235.303 125.21 235.361 123.89 235.371 122.658C235.394 120.476 235.337 118.193 234.669 116.15C227.409 112.838 219.688 111.149 212.9 111.49Z" fill="#CC190E"/>
<path d="M212.776 162.42C212.027 162.602 211.282 163.007 210.941 163.703C210.685 164.226 210.698 164.844 210.813 165.418C211.17 167.198 212.422 168.667 213.778 169.872C215.134 171.078 216.652 172.121 217.823 173.509C219.624 172.246 221.304 170.804 222.829 169.217C223.473 168.545 224.104 167.833 224.475 166.975C224.85 166.121 225.083 164.868 224.647 164.044C224.165 163.136 221.827 161.292 219.489 162.403C218.707 162.774 217.965 163.088 217.482 163.784C216.372 162.528 214.385 162.028 212.776 162.42Z" fill="#3C0B02"/>
<path d="M134.823 253.91C126.932 273.111 128.926 295.549 137.69 314.365C141.168 321.831 147.858 327.365 155.188 331.107C162.518 334.848 170.915 335.554 175.516 328.726C178.684 324.029 178.576 317.894 177.891 312.268C175.25 290.558 165.784 270.065 153.039 252.3C150.664 248.987 146.849 244.445 142.197 244.904C137.943 245.33 136.233 250.479 134.823 253.91Z" fill="#D6251A"/>
<path d="M182.301 343.858C184.473 344.854 187.287 345.749 189.024 344.111C189.965 343.544 188.38 342.858 187.739 342.612C189.513 343.294 191.567 343.27 193.14 342.2C193.838 341.764 192.907 340.467 192.094 339.978C192.772 341.075 194.705 340.194 194.83 338.911C194.954 337.628 193.99 336.513 193.018 335.666C186.504 330.006 177.315 328.895 169.451 325.35C167.282 324.37 165.191 323.195 162.93 322.456C159.547 321.348 155.836 321.267 152.405 322.223C151.656 322.432 150.897 322.702 150.307 323.212C144.896 327.899 159.024 332.708 161.409 333.89C168.321 337.324 175.284 340.646 182.301 343.858Z" fill="#D6251A"/>
<path d="M177.772 108.843C178.073 108.37 178.42 107.881 178.943 107.682C179.847 107.337 180.812 108.002 181.473 108.708C183.743 111.139 184.809 114.428 185.811 117.599C181.422 120.865 177.344 124.528 172.992 127.821C173.815 121.266 173.95 114.584 177.772 108.843Z" fill="#770404"/>
<path d="M239.237 107.074C238.782 107.935 238.637 108.921 238.529 109.887C238.246 112.43 238.178 114.999 238.327 117.552C238.343 117.822 238.364 118.106 238.495 118.342C238.63 118.582 238.863 118.748 239.089 118.903C242.958 121.554 247.57 123.539 250.049 127.524C248.808 123.813 248.798 119.815 248.11 115.958C247.759 114.01 247.236 112.095 246.541 110.241C246.092 109.039 245.552 107.834 244.652 106.915C243.073 105.305 240.432 104.822 239.237 107.074Z" fill="#770404"/>
<path d="M232.72 203.9C230.517 199.24 223.167 192.557 212.881 195.62C208.195 197.015 204.053 199.493 202.197 204.021C201.533 205.639 201.202 207.526 201.944 209.11C202.687 210.694 204.815 211.673 206.283 210.721C205.642 212.078 206.185 213.882 207.467 214.662C208.749 215.442 210.597 215.09 211.505 213.892C209.896 215.594 212.048 218.339 214.349 217.903C217.412 217.323 217.381 214.577 218.164 214.577C221.379 214.577 223.167 224.508 223.983 226.045C227.545 232.738 233.098 237.512 240.486 239.197C247.874 240.882 256.699 236.459 261.081 230.272C264.097 226.018 264.758 220.112 262.859 215.263C261.071 210.697 254.84 204.514 250.957 210.593C248.208 214.898 250.448 216.938 243.421 217.194C236.971 217.434 235.321 209.411 232.72 203.9Z" fill="#D6251A"/>
<path d="M175.61 241.551C172.713 268.187 179.524 295.016 189.35 319.94C192.306 327.436 195.834 335.2 202.399 339.866C203.279 340.491 204.264 341.072 205.347 341.095C206.427 341.119 207.594 340.393 207.699 339.316C209.088 340.879 212.162 340.109 212.651 338.073C212.327 339.4 214.914 339.488 215.272 338.168C215.629 336.847 214.614 335.595 213.717 334.565C205.533 325.171 201.353 312.788 200.061 300.392C198.769 287.996 200.179 275.478 202.061 263.156C202.895 257.685 203.826 252.158 203.3 246.65C202.773 241.143 200.591 235.551 196.242 232.133C187.424 225.204 176.717 231.39 175.61 241.551Z" fill="#D6251A"/>
<path d="M214.435 190.22C215.332 191.943 215.623 193.905 216.199 195.762C216.726 197.447 217.491 199.058 218.47 200.53C220.092 202.964 222.474 205.088 225.358 205.561C225.959 205.659 226.603 205.679 227.146 205.406C227.946 205.004 228.347 204.052 228.34 203.154C228.334 202.259 227.996 201.401 227.659 200.574C226.337 197.335 224.886 193.972 225.159 190.484C225.23 189.576 225.419 188.674 225.416 187.762C225.412 186.85 225.186 185.891 224.549 185.24C223.844 184.514 222.781 184.298 221.877 183.838C219.61 182.687 218.503 180.117 217.572 177.75C217.066 179.415 216.378 181.049 215.282 182.396C214.182 183.744 212.634 184.784 210.91 184.99C210.016 185.098 208.626 184.899 207.965 185.598C210.701 186.432 213.042 187.539 214.435 190.22Z" fill="#FB6767"/>
<path d="M228.369 184.548C228.308 184.331 228.095 184.234 227.889 184.274C225.643 184.716 223.143 184.48 221.197 183.197C219.065 181.789 218.144 179.236 217.961 176.781C217.948 176.599 217.938 176.416 217.931 176.234C217.948 176.139 217.968 176.048 217.985 175.954C218.322 174.13 218.481 172.276 218.451 170.419C218.44 169.919 217.661 169.916 217.671 170.419C217.675 170.699 217.675 170.983 217.671 171.263C217.509 171.311 217.408 171.462 217.391 171.635C217.246 173.124 217.108 174.643 217.159 176.143C216.919 177.352 216.595 178.544 216.184 179.705C215.948 180.374 215.657 181.042 215.219 181.61C214.797 182.153 214.254 182.596 213.694 182.987C212.534 183.798 211.248 184.416 209.892 184.818C208.364 185.27 206.772 185.442 205.183 185.328C204.974 185.314 204.795 185.517 204.795 185.719C204.795 185.942 204.974 186.094 205.183 186.108C208.145 186.32 211.177 185.547 213.674 183.936C214.305 183.531 214.922 183.075 215.441 182.532C215.968 181.981 216.356 181.336 216.649 180.641C216.953 179.928 217.202 179.185 217.415 178.436C217.557 179.145 217.762 179.84 218.056 180.522C218.586 181.752 219.399 182.829 220.471 183.632C221.456 184.369 222.637 184.838 223.841 185.064C225.248 185.331 226.695 185.297 228.099 185.02C228.301 184.987 228.419 184.74 228.369 184.548Z" fill="#3C0B02"/>
<path d="M226.698 198.078C227.008 199.348 227.325 200.621 227.43 201.921C227.47 202.407 227.467 202.931 227.183 203.326C226.907 203.714 226.404 203.89 225.929 203.883C225.453 203.873 224.994 203.704 224.559 203.512C221.745 202.279 219.391 200.061 217.913 197.366C217.09 195.867 216.486 194.171 215.447 192.858C215.714 193.824 215.936 194.806 216.233 195.759C216.76 197.444 217.525 199.054 218.504 200.527C220.126 202.961 222.508 205.085 225.392 205.558C225.993 205.656 226.637 205.676 227.183 205.403C227.983 205.001 228.384 204.049 228.378 203.15C228.371 202.256 228.034 201.398 227.696 200.57C227.362 199.747 227.018 198.916 226.698 198.078Z" fill="#E29088"/>
<path d="M256.108 232.593C254.135 234.142 251.095 235.392 248.673 236.04C244.716 237.104 240.499 236.243 236.616 234.943C233.962 234.055 230.187 232.15 228.385 230.009C223.342 224.022 223.726 219.923 222.633 217.11C222.252 216.134 221.797 215.162 221.061 214.415C220.329 213.669 219.27 213.173 218.238 213.345C216.808 213.578 215.755 214.983 214.311 215.118C213.977 215.148 213.647 215.06 213.346 214.902C211.339 213.845 212.402 211.96 212.506 210.964C211.997 211.44 211.474 211.923 210.837 212.197C210.196 212.47 209.406 212.497 208.846 212.085C208.161 211.582 208.026 210.613 208.107 209.769C208.192 208.925 208.435 208.074 208.29 207.24C208.418 207.972 206.552 209.033 204.039 208.486C202.943 208.246 202.292 207.54 201.522 206.99C201.509 207.726 201.63 208.449 201.944 209.117C202.686 210.701 204.815 211.68 206.282 210.728C205.641 212.085 206.185 213.889 207.466 214.669C208.681 215.405 210.398 215.128 211.349 214.084C210.047 215.793 212.125 218.332 214.348 217.91C217.411 217.329 217.381 214.584 218.164 214.584C221.379 214.584 223.258 224.468 223.983 226.052C228.351 235.595 234.241 237.691 240.81 239.191C248.197 240.876 257.022 236.452 261.404 230.266C263.31 227.578 263.951 224.228 263.924 220.905C261.691 227.22 259.981 229.55 256.108 232.593Z" fill="#740000"/>
<path d="M213.707 336.699C212.557 336.979 211.224 337.097 210.604 336.087C210.661 336.749 210.759 337.303 210.007 337.61C209.14 337.81 208.182 337.58 207.504 337.006C207.409 337.702 206.137 341.102 202.217 336.986C195.524 329.959 191.756 319.011 187.782 310.157C185.93 306.034 179.055 283.025 176.623 275.153C178.991 290.45 183.667 305.517 189.354 319.943C192.31 327.44 195.838 335.203 202.403 339.869C203.283 340.494 204.268 341.075 205.351 341.099C206.431 341.122 207.598 340.396 207.703 339.319C209.092 340.882 212.166 340.113 212.655 338.076C212.331 339.403 214.918 339.491 215.276 338.171C215.529 337.232 215.087 336.324 214.487 335.507C214.362 335.979 214.439 336.52 213.707 336.699Z" fill="#740000"/>
<path d="M177.851 312.268C176.816 303.761 174.728 295.444 171.813 287.401C173.56 293.618 174.883 299.956 175.76 306.355C176.09 308.752 176.357 311.173 176.262 313.591C176.003 320.345 171.975 328.645 164.705 329.932C167.465 329.445 170.399 330.502 173.061 329.624C174.421 329.175 175.551 328.25 176.418 327.098C178.61 322.665 178.459 317.265 177.851 312.268Z" fill="#740000"/>
<path d="M239.345 330.88C238.9 330.999 238.468 331.144 238.057 331.346C238.495 331.218 238.924 331.059 239.345 330.88Z" fill="#740000"/>
<path d="M247.03 328.723C251.193 324.684 253.71 319.085 255.913 313.642C257.272 310.282 258.578 306.902 259.829 303.498C257.387 308.594 254.435 313.47 251.426 318.265C249.655 321.088 247.847 323.911 245.56 326.332C243.826 328.165 241.714 329.884 239.346 330.884C240.513 330.58 241.761 330.492 242.918 330.212C244.338 329.867 245.735 329.395 247.03 328.723Z" fill="#740000"/>
<path opacity="0.17" d="M139.747 253.309C140.351 254.326 141.505 254.852 142.547 255.41C148.255 258.472 152.151 264.047 155.339 269.687C156.054 270.953 156.81 272.3 158.075 273.016C159.037 271.196 158.483 268.964 157.792 267.022C155.933 261.815 153.204 256.922 149.753 252.607C148.555 251.111 147.199 249.632 145.411 248.956C143.111 248.089 137.794 250.013 139.747 253.309Z" fill="white"/>
</g>
<defs>
<clipPath id="clip0_7095_7140">
<rect width="217" height="251" fill="white" transform="translate(55 99)"/>
</clipPath>
</defs>
</svg>
