<svg width="375" height="434" viewBox="0 0 375 434" fill="none" xmlns="http://www.w3.org/2000/svg">
<g clip-path="url(#clip0_6674_7309)">
<path d="M119.829 366.837C108.024 365.033 96.8948 357.775 91.5548 347.073C86.5004 336.943 86.9027 325.078 86.891 313.757C86.8794 303.726 86.4305 293.549 83.4457 283.973C80.4609 274.398 74.6604 265.365 66.0091 260.303C58.9027 256.146 45.5236 252.684 37.3096 252.222C30.6229 251.849 -5.04304 255.428 0.605921 275.297C4.65172 289.532 24.222 285.077 26.1749 284.505C36.6567 281.457 48.0653 288.061 53.8542 297.332C59.6431 306.604 61.0014 317.908 61.7126 328.821C62.418 339.733 62.6629 350.921 66.6271 361.109C69.4545 368.378 74.0774 374.842 79.3766 380.558C84.2035 385.766 89.7476 390.501 96.3409 393.129C102.159 395.447 108.513 396.019 114.763 396.399C124.65 396.994 134.677 397.146 144.331 394.927C153.985 392.708 163.318 387.897 169.398 380.068C172.681 375.84 174.972 370.615 174.704 365.266C174.435 359.918 171.212 354.558 166.175 352.76C157.745 349.747 151.152 348.048 146.692 353.017C136.07 364.84 129.092 368.256 119.829 366.837Z" fill="#CC190E"/>
<path d="M112.395 364.898C105.872 362.528 99.9489 358.476 95.6233 353.133C90.021 361.57 83.0137 369.079 74.9688 375.221C76.4087 377.072 77.9302 378.859 79.5217 380.57C82.0635 383.314 84.8034 385.918 87.794 388.16C98.2933 383.682 106.694 375.046 112.395 364.898Z" fill="#EF3124" fill-opacity="0.95"/>
<path d="M44.4155 253.104C41.8913 252.648 39.5186 252.345 37.4607 252.234C35.193 252.105 29.579 252.438 23.3762 253.705C27.0839 263.544 22.1578 274.661 20.9277 285.445C23.6793 285.176 25.7547 284.68 26.326 284.516C28.7045 283.827 31.1355 283.635 33.5315 283.857C37.9038 274.538 41.3957 264.805 43.9258 254.826C44.0774 254.254 44.229 253.67 44.4155 253.104Z" fill="#EF3124" fill-opacity="0.95"/>
<path d="M69.5996 345.905C76.088 343.949 82.5823 341.987 89.0707 340.031C87.351 333.638 87.0828 326.812 87.0478 320.028C86.3191 320.454 85.5787 320.857 84.8384 321.242C79.6674 323.94 74.2284 326.129 68.626 327.764C66.3933 328.418 64.0964 329.002 61.9277 329.837C62.2892 335.611 62.5573 341.456 63.3502 347.172C65.478 346.991 67.6525 346.489 69.5996 345.905Z" fill="#EF3124" fill-opacity="0.95"/>
<path d="M86.6226 300.806C86.1795 295.096 85.3051 289.438 83.6028 283.979C80.9795 275.56 76.1816 267.566 69.1802 262.317C71.1623 269.797 67.0232 277.638 61.7881 283.36C58.4885 286.969 54.6934 290.151 51.2539 293.619C52.2683 294.798 53.1952 296.042 54.0113 297.344C56.5531 301.414 58.2379 305.874 59.3921 310.522C66.073 308.286 72.6488 305.746 79.1431 303.019C81.475 302.038 84.1042 301.075 86.6226 300.806Z" fill="#EF3124" fill-opacity="0.95"/>
<path d="M144.482 394.939C150.935 393.456 157.243 390.805 162.536 386.881C159.464 374.596 154.853 362.51 148.662 351.446C148.021 351.872 147.414 352.398 146.843 353.034C140.879 359.667 136.064 363.655 131.348 365.622C133.954 375.688 136.18 385.848 138.028 396.083C140.185 395.797 142.342 395.429 144.482 394.939Z" fill="#EF3124" fill-opacity="0.95"/>
<path d="M362.244 261.039C369.87 263.707 374.621 271.928 374.976 280.015C375.192 284.96 374.038 289.853 372.825 294.652C366.325 320.413 358.047 345.724 348.078 370.34C343.688 381.183 338.587 392.387 329.248 399.405C324.136 403.247 317.927 405.618 311.555 406.149C307.3 406.505 302.677 405.933 299.459 403.119C294.678 398.932 294.684 391.576 295.43 385.258C299.237 352.999 312.249 322.375 329.184 294.67C331.854 290.297 334.629 285.941 336.699 281.247C338.529 277.089 338.838 272.716 340.307 268.53C343.082 260.63 355.097 258.54 362.244 261.039Z" fill="#D6251A"/>
<path d="M329.417 421.82C333.172 423.537 338.034 425.09 341.042 422.258C341.811 421.499 339.928 420.092 338.826 419.666C341.893 420.845 344.907 421.073 347.618 419.222C349.25 418.154 347.676 416.104 346.352 415.112C348.346 416.577 350.865 415.485 351.08 413.267C351.296 411.048 349.629 409.121 347.95 407.655C336.693 397.87 320.813 395.949 307.224 389.818C303.475 388.125 299.861 386.093 295.955 384.814C290.108 382.899 283.695 382.759 277.766 384.411C276.472 384.773 275.16 385.241 274.14 386.122C264.789 394.226 289.204 402.541 293.326 404.584C305.259 410.522 317.297 416.268 329.417 421.82Z" fill="#D6251A"/>
<path d="M146.756 262.166C140.617 285.433 145.357 299.37 147.065 323.379C148.773 347.382 158.899 371.893 178.638 385.608C188.088 392.177 199.182 395.943 210.288 398.95C233.991 405.361 254.966 409.477 279.235 405.729C337.124 396.79 351.01 325.586 350.905 296.748C350.806 267.911 346.673 239.266 343.91 210.569C342.365 194.518 341.182 178.152 335.282 163.146C323.914 134.215 294.183 113.529 263.145 112.95C240.911 112.536 218.98 122.462 203.77 138.559C186.59 156.747 179.326 179.127 167.731 204.987C161.12 219.735 150.877 246.535 146.756 262.166Z" fill="#EF3124" fill-opacity="0.95"/>
<path d="M203.898 7.10585C205.921 3.98212 208.451 0.636519 212.129 0.0759991C214.228 -0.245132 216.368 0.438001 218.245 1.42475C225.386 5.17906 229.356 12.9563 232.458 20.4065C236.737 30.6886 240.281 41.642 239.558 52.759C238.812 64.2146 233.542 75.0047 226.5 84.0547C219.457 93.1048 210.672 100.625 201.887 107.999C197.101 112.016 192.128 116.098 186.182 118.013C178.959 120.331 171.205 119.531 171.217 111.123C171.234 102.68 172.47 93.9456 173.805 85.6253C176.703 67.5778 182.031 49.9214 189.586 33.281C193.708 24.2192 198.488 15.4611 203.898 7.10585Z" fill="#EF3124" fill-opacity="0.95"/>
<path d="M196.902 55.509C197.258 34.5479 204.446 20.8385 207.716 9.81498C208.445 7.3627 210.864 3.6259 212.678 0.0117188C212.497 0.0233962 212.31 0.0409125 212.13 0.0701062C208.451 0.630626 205.927 3.97039 203.898 7.09996C198.488 15.4494 193.708 24.2133 189.592 33.2751C182.031 49.9155 176.708 67.5719 173.811 85.6194C172.476 93.9397 171.234 102.674 171.223 111.117C171.205 119.525 178.964 120.331 186.187 118.007C192.134 116.098 197.106 112.011 201.893 107.994C202.102 107.818 202.312 107.637 202.522 107.462C204.702 99.4806 192.956 94.1323 193.072 85.7712C193.305 68.401 196.611 72.3655 196.902 55.509Z" fill="#CC190E"/>
<path d="M311.241 6.41088C313.497 3.4448 316.266 0.303552 319.98 0.0232922C322.096 -0.134354 324.177 0.700587 325.979 1.8333C332.817 6.11895 336.186 14.1706 338.716 21.8369C342.208 32.4167 345.193 47.2471 347.041 59.5668C348.738 70.9174 335.679 76.3591 327.972 84.8545C320.266 93.344 310.938 100.181 301.622 106.861C296.545 110.504 291.28 114.2 285.206 115.654C277.831 117.417 270.154 116.033 270.806 107.649C271.459 99.2353 273.354 90.6173 275.313 82.4197C279.569 64.6407 286.209 47.4398 295.006 31.4241C299.792 22.701 305.219 14.3282 311.241 6.41088Z" fill="#EF3124" fill-opacity="0.95"/>
<path d="M311.393 29.5966C312.005 22.777 312.629 15.8814 314.844 9.40038C315.672 6.9773 318.452 3.46822 320.528 0C320.347 0 320.161 0.00583875 319.98 0.0175162C316.272 0.297776 313.497 3.43902 311.241 6.40511C305.213 14.3224 299.786 22.6952 295 31.4183C286.203 47.434 279.563 64.6408 275.307 82.4139C273.348 90.6057 271.454 99.2237 270.795 107.643C270.142 116.028 277.82 117.417 285.194 115.648C291.269 114.194 296.533 110.498 301.61 106.855C301.832 106.697 302.059 106.534 302.281 106.37C305.062 98.5756 305.989 89.835 306.735 81.5031C308.291 64.2029 309.842 46.8968 311.393 29.5966Z" fill="#CC190E"/>
<path d="M193.72 56.7934C180.201 74.0119 172.243 95.5394 171.305 117.417C170.832 128.394 172.156 139.657 176.936 149.548C183.902 163.952 197.707 174.187 212.689 179.757C227.672 185.328 243.861 186.711 259.834 187.184C282.698 187.862 306.378 186.6 326.916 176.529C347.46 166.457 378.754 116.997 349.973 64.4247C335.13 37.3154 299.744 20.2487 272.858 21.5975C241.354 23.1798 212.474 32.9071 193.72 56.7934Z" fill="#EF3124" fill-opacity="0.95"/>
<path d="M249.567 73.8601C249.946 75.53 250.144 77.2641 250.144 79.0449C250.144 91.9135 239.733 102.342 226.884 102.342C218.308 102.342 210.817 97.6939 206.783 90.775C209.138 101.145 218.396 108.887 229.466 108.887C242.315 108.887 252.727 98.4588 252.727 85.5902C252.727 81.3103 251.578 77.305 249.567 73.8601Z" fill="#E9F1F4"/>
<path d="M235.097 109.012C247.599 106.056 255.341 93.5079 252.389 80.9864C249.437 68.4648 236.909 60.711 224.407 63.6677C211.904 66.6244 204.163 79.172 207.115 91.6935C210.067 104.215 222.595 111.969 235.097 109.012Z" fill="white"/>
<path d="M229.758 110.416C216.513 110.416 205.734 99.6206 205.734 86.3549C205.734 73.0893 216.513 62.2935 229.758 62.2935C243.004 62.2935 253.783 73.0893 253.783 86.3549C253.783 99.6206 243.004 110.416 229.758 110.416ZM229.758 63.8232C217.353 63.8232 207.262 73.9301 207.262 86.3549C207.262 98.7798 217.353 108.887 229.758 108.887C242.164 108.887 252.255 98.7798 252.255 86.3549C252.255 73.9301 242.164 63.8232 229.758 63.8232Z" fill="#CC190E"/>
<path d="M246.415 87.2774C246.415 95.6969 239.6 102.522 231.194 102.522C222.788 102.522 215.973 95.6969 215.973 87.2774C215.973 78.858 222.788 72.0325 231.194 72.0325C239.6 72.0325 246.415 78.858 246.415 87.2774Z" fill="#3C0B02"/>
<path d="M231.514 100.858C233.239 96.345 234.708 91.6798 235.151 86.8629C235.589 82.0459 234.947 77.0421 232.656 72.7856C232.732 72.7915 231.17 74.3154 231.071 74.4497C230.383 75.3664 230.184 77.0012 229.922 78.0989C229.328 80.6037 228.995 83.1669 228.914 85.7418C228.838 88.3167 229.013 90.8974 229.45 93.4315C229.677 94.7452 229.969 96.0472 230.33 97.3317C230.493 97.9507 231.706 100.35 231.514 100.858Z" fill="#30211F"/>
<path d="M218.548 88.1241C218.635 88.6262 218.752 89.1342 219.02 89.5662C219.288 89.9983 219.72 90.3545 220.227 90.4129C220.979 90.4946 221.661 89.8932 221.958 89.1925C222.256 88.4977 222.267 87.7154 222.337 86.9622C222.524 84.9478 223.183 82.9743 224.238 81.246C226.022 78.3325 221.655 78.9689 220.501 80.5804C218.944 82.7466 218.093 85.4849 218.548 88.1241Z" fill="white"/>
<path d="M226.179 78.2859C226.774 78.3735 227.386 78.1224 227.84 77.7254C228.295 77.3283 228.616 76.8087 228.901 76.2774C229.053 75.9971 229.181 75.6234 228.96 75.3957C228.884 75.314 228.773 75.2731 228.662 75.2381C227.689 74.9461 225.975 75.3081 225.316 76.1606C224.692 76.9722 225.124 78.1283 226.179 78.2859Z" fill="white"/>
<path d="M336.815 73.0486C337.176 74.6309 337.363 76.2774 337.363 77.9648C337.363 90.1678 327.487 100.053 315.309 100.053C307.177 100.053 300.076 95.6445 296.252 89.0876C298.485 98.9201 307.264 106.259 317.758 106.259C329.942 106.259 339.811 96.3685 339.811 84.1714C339.811 80.1135 338.721 76.3124 336.815 73.0486Z" fill="#E9F1F4"/>
<path d="M340.035 86.455C340.899 74.2867 331.75 63.7211 319.6 62.8562C307.451 61.9913 296.902 71.1546 296.038 83.323C295.175 95.4913 304.324 106.057 316.473 106.922C328.623 107.787 339.172 98.6234 340.035 86.455Z" fill="white"/>
<path d="M318.032 107.707C305.469 107.707 295.25 97.4721 295.25 84.8896C295.25 72.3071 305.469 62.0718 318.032 62.0718C330.595 62.0718 340.815 72.3071 340.815 84.8896C340.809 97.4721 330.59 107.707 318.032 107.707ZM318.032 63.5256C306.268 63.5256 296.702 73.1129 296.702 84.8896C296.702 96.6722 306.274 106.254 318.032 106.254C329.797 106.254 339.363 96.6664 339.363 84.8896C339.363 73.1129 329.797 63.5256 318.032 63.5256Z" fill="#CC190E"/>
<path d="M333.82 85.7714C333.82 93.753 327.36 100.228 319.385 100.228C311.416 100.228 304.951 93.753 304.951 85.7714C304.951 77.7899 311.41 71.3147 319.385 71.3147C327.36 71.3147 333.82 77.7899 333.82 85.7714Z" fill="#3C0B02"/>
<path d="M319.694 98.6516C321.333 94.3718 322.726 89.946 323.14 85.3801C323.559 80.8142 322.947 76.0673 320.773 72.0327C320.843 72.0386 319.362 73.4866 319.269 73.6092C318.616 74.4791 318.424 76.0264 318.179 77.0716C317.619 79.4479 317.298 81.8768 317.223 84.3174C317.147 86.758 317.316 89.2045 317.73 91.61C317.946 92.8595 318.22 94.0915 318.569 95.3118C318.727 95.8898 319.881 98.167 319.694 98.6516Z" fill="#30211F"/>
<path d="M307.399 86.5713C307.481 87.05 307.592 87.5288 307.848 87.9434C308.099 88.3579 308.513 88.6907 308.991 88.7433C309.702 88.8192 310.355 88.247 310.635 87.5872C310.915 86.9274 310.926 86.1859 310.996 85.4736C311.177 83.5585 311.795 81.6901 312.798 80.0552C314.488 77.2935 310.349 77.8949 309.253 79.4246C307.772 81.474 306.968 84.0723 307.399 86.5713Z" fill="white"/>
<path d="M314.64 77.2466C315.205 77.3342 315.782 77.089 316.214 76.7153C316.645 76.3416 316.948 75.8454 317.222 75.3374C317.362 75.0746 317.485 74.7185 317.275 74.5024C317.199 74.4265 317.094 74.3857 316.995 74.3565C316.074 74.0821 314.447 74.4265 313.818 75.2323C313.223 75.9972 313.637 77.0948 314.64 77.2466Z" fill="white"/>
<path d="M198.348 126.117C193.615 123.338 188.304 120.541 186.205 115.467C185.15 112.916 185.057 110.078 185.092 107.316C185.243 95.9132 187.528 84.1189 194.308 74.9638C196.541 71.9451 199.258 69.2184 200.826 65.8086C202.394 62.3929 202.522 57.9263 199.864 55.2697C198.844 54.2479 197.515 53.5939 196.395 52.6831C195.48 53.7282 194.588 54.8084 193.72 55.9178C180.201 73.1362 172.243 94.6637 171.305 116.541C170.832 127.518 172.156 138.781 176.936 148.672C177.676 150.202 178.498 151.685 179.39 153.127C183.698 154.231 188.496 153.822 192.915 152.853C196.722 152.018 200.535 150.774 203.589 148.351C206.644 145.928 208.83 142.139 208.504 138.25C208.049 132.773 203.076 128.896 198.348 126.117Z" fill="#CC190E"/>
<path d="M272.869 21.5975C270.596 21.7142 268.334 21.8719 266.089 22.0704C264.871 23.3024 263.367 23.8804 261.367 24.6394C258.015 25.9064 254.943 27.9208 252.442 30.4899C251.853 31.0971 251.282 31.751 251.008 32.5568C250.215 34.9098 252.302 37.2395 254.43 38.5065C257.56 40.3632 261.14 41.2857 264.48 42.7279C267.821 44.1701 271.109 46.3479 272.537 49.6993C274 53.1325 273.254 57.1788 274.636 60.647C276.128 64.3896 280.063 66.8769 284.08 67.0696C288.096 67.2623 292.06 65.3589 294.8 62.4103C296.462 60.6295 297.704 58.4983 299.237 56.6066C301.528 53.7631 304.437 51.4802 307.457 49.4366C308.494 48.736 309.567 48.0411 310.313 47.031C311.584 45.3203 311.683 43.0373 311.701 40.9062C311.741 37.1344 311.642 33.1874 310.488 29.6549C297.943 23.9271 284.599 21.0077 272.869 21.5975Z" fill="#CC190E"/>
<path d="M272.653 109.658C271.359 109.973 270.071 110.674 269.482 111.876C269.039 112.781 269.062 113.85 269.261 114.842C269.879 117.919 272.041 120.459 274.385 122.544C276.728 124.628 279.352 126.432 281.375 128.832C284.488 126.648 287.391 124.155 290.026 121.411C291.139 120.249 292.23 119.017 292.871 117.534C293.518 116.057 293.92 113.891 293.168 112.466C292.334 110.895 288.295 107.707 284.255 109.628C282.902 110.271 281.62 110.814 280.786 112.016C278.868 109.844 275.434 108.98 272.653 109.658Z" fill="#3C0B02"/>
<path d="M137.942 267.853C124.306 301.052 127.751 339.85 142.897 372.384C148.907 385.293 160.467 394.863 173.135 401.332C185.803 407.801 200.313 409.022 208.265 397.216C213.739 389.094 213.553 378.485 212.369 368.758C207.804 331.22 191.446 295.785 169.422 265.068C165.318 259.34 158.724 251.487 150.685 252.281C143.334 253.016 140.378 261.92 137.942 267.853Z" fill="#D6251A"/>
<path d="M219.989 423.379C223.744 425.102 228.606 426.649 231.608 423.817C233.234 422.836 230.495 421.651 229.387 421.225C232.453 422.404 236.004 422.363 238.72 420.513C239.927 419.759 238.318 417.517 236.913 416.671C238.085 418.568 241.425 417.044 241.641 414.826C241.857 412.607 240.189 410.68 238.51 409.215C227.253 399.429 211.373 397.508 197.784 391.377C194.036 389.684 190.421 387.652 186.515 386.373C180.668 384.458 174.256 384.318 168.327 385.971C167.033 386.333 165.721 386.8 164.701 387.681C155.35 395.785 179.765 404.1 183.886 406.143C195.831 412.081 207.864 417.827 219.989 423.379Z" fill="#D6251A"/>
<path d="M212.165 17.0201C212.684 16.2026 213.284 15.356 214.188 15.0115C215.75 14.416 217.418 15.5662 218.56 16.7865C222.483 20.9904 224.326 26.6773 226.057 32.1599C218.473 37.806 211.425 44.141 203.904 49.8338C205.327 38.5008 205.56 26.9459 212.165 17.0201Z" fill="#770404"/>
<path d="M318.382 13.9604C317.595 15.4493 317.344 17.1542 317.158 18.8241C316.668 23.2206 316.552 27.6639 316.808 32.078C316.837 32.5451 316.872 33.0356 317.1 33.4443C317.333 33.8588 317.735 34.1449 318.126 34.4135C324.812 38.9969 332.781 42.4301 337.066 49.3198C334.921 42.9031 334.903 35.99 333.714 29.3221C333.108 25.9532 332.204 22.6426 331.003 19.4371C330.228 17.3585 329.295 15.2741 327.739 13.686C325.01 10.9009 320.446 10.0659 318.382 13.9604Z" fill="#770404"/>
<path d="M307.118 181.381C303.311 173.323 290.609 161.768 272.834 167.064C264.736 169.475 257.578 173.761 254.371 181.591C253.223 184.388 252.652 187.651 253.934 190.39C255.217 193.128 258.895 194.821 261.431 193.175C260.323 195.522 261.262 198.64 263.477 199.989C265.692 201.338 268.887 200.73 270.455 198.658C267.675 201.6 271.394 206.347 275.37 205.594C280.663 204.59 280.611 199.843 281.963 199.843C287.519 199.843 290.609 217.015 292.019 219.671C298.175 231.244 307.771 239.5 320.538 242.413C333.305 245.327 348.556 237.678 356.128 226.981C361.34 219.624 362.483 209.412 359.201 201.028C356.111 193.134 345.343 182.443 338.633 192.953C333.882 200.397 337.753 203.924 325.61 204.368C314.464 204.782 311.613 190.91 307.118 181.381Z" fill="#D6251A"/>
<path d="M208.428 246.483C203.421 292.539 215.191 338.928 232.173 382.024C237.279 394.986 243.377 408.409 254.722 416.478C256.243 417.558 257.946 418.562 259.817 418.603C261.682 418.644 263.7 417.389 263.88 415.526C266.282 418.23 271.593 416.898 272.438 413.378C271.879 415.672 276.35 415.824 276.968 413.541C277.586 411.258 275.831 409.092 274.28 407.311C260.138 391.068 252.915 369.657 250.682 348.223C248.449 326.789 250.886 305.145 254.139 283.839C255.579 274.38 257.188 264.822 256.278 255.299C255.369 245.776 251.597 236.107 244.083 230.199C228.844 218.217 210.341 228.914 208.428 246.483Z" fill="#D6251A"/>
<path d="M275.523 157.728C277.074 160.706 277.575 164.098 278.572 167.309C279.481 170.223 280.805 173.008 282.495 175.554C285.299 179.763 289.415 183.436 294.4 184.253C295.437 184.423 296.551 184.458 297.489 183.985C298.871 183.29 299.565 181.644 299.553 180.09C299.541 178.543 298.958 177.06 298.375 175.63C296.09 170.03 293.583 164.215 294.056 158.183C294.178 156.613 294.505 155.054 294.499 153.477C294.493 151.901 294.102 150.243 293 149.116C291.782 147.861 289.946 147.487 288.383 146.693C284.466 144.702 282.554 140.258 280.945 136.166C280.07 139.044 278.881 141.87 276.986 144.2C275.086 146.529 272.41 148.328 269.431 148.684C267.886 148.871 265.484 148.526 264.342 149.735C269.07 151.177 273.115 153.092 275.523 157.728Z" fill="#FB6767"/>
<path d="M299.599 147.919C299.494 147.545 299.127 147.376 298.771 147.446C294.889 148.211 290.569 147.802 287.205 145.583C283.521 143.149 281.929 138.735 281.615 134.49C281.591 134.175 281.574 133.859 281.562 133.544C281.591 133.38 281.626 133.223 281.655 133.059C282.238 129.906 282.512 126.701 282.46 123.49C282.442 122.626 281.096 122.62 281.113 123.49C281.119 123.974 281.119 124.465 281.113 124.949C280.833 125.031 280.658 125.294 280.629 125.592C280.379 128.166 280.14 130.794 280.227 133.386C279.813 135.477 279.254 137.538 278.542 139.546C278.134 140.702 277.633 141.858 276.875 142.839C276.146 143.779 275.208 144.544 274.24 145.221C272.235 146.623 270.013 147.691 267.67 148.386C265.029 149.168 262.278 149.466 259.532 149.268C259.17 149.244 258.861 149.595 258.861 149.945C258.861 150.33 259.17 150.593 259.532 150.616C264.65 150.984 269.891 149.647 274.205 146.862C275.295 146.162 276.362 145.373 277.26 144.433C278.169 143.482 278.84 142.366 279.347 141.164C279.871 139.932 280.303 138.647 280.67 137.351C280.915 138.577 281.271 139.78 281.778 140.959C282.693 143.084 284.098 144.947 285.952 146.337C287.654 147.61 289.694 148.421 291.776 148.812C294.207 149.274 296.708 149.215 299.133 148.736C299.482 148.678 299.687 148.252 299.599 147.919Z" fill="#3C0B02"/>
<path d="M296.713 171.315C297.25 173.51 297.798 175.711 297.979 177.959C298.048 178.8 298.043 179.705 297.553 180.388C297.075 181.06 296.206 181.363 295.384 181.352C294.562 181.334 293.769 181.042 293.017 180.709C288.155 178.578 284.086 174.742 281.533 170.083C280.111 167.49 279.067 164.559 277.271 162.288C277.732 163.958 278.117 165.657 278.63 167.304C279.539 170.217 280.863 173.002 282.553 175.548C285.357 179.758 289.473 183.43 294.457 184.248C295.495 184.417 296.609 184.452 297.553 183.979C298.935 183.284 299.628 181.638 299.617 180.085C299.605 178.537 299.022 177.054 298.439 175.624C297.862 174.199 297.267 172.763 296.713 171.315Z" fill="#E29088"/>
<path d="M347.537 230.993C344.127 233.673 338.874 235.833 334.688 236.954C327.85 238.793 320.563 237.304 313.853 235.056C309.265 233.521 302.742 230.228 299.629 226.526C290.913 216.174 291.578 209.086 289.689 204.222C289.03 202.534 288.243 200.853 286.972 199.563C285.707 198.272 283.877 197.414 282.093 197.712C279.621 198.115 277.802 200.543 275.307 200.777C274.73 200.83 274.159 200.678 273.64 200.403C270.171 198.576 272.008 195.318 272.188 193.595C271.308 194.419 270.404 195.254 269.303 195.727C268.195 196.199 266.831 196.246 265.863 195.534C264.68 194.664 264.446 192.988 264.586 191.528C264.732 190.069 265.152 188.597 264.901 187.155C265.123 188.422 261.899 190.256 257.556 189.31C255.661 188.895 254.536 187.675 253.207 186.723C253.183 187.996 253.393 189.245 253.936 190.402C255.218 193.14 258.897 194.833 261.433 193.187C260.325 195.534 261.263 198.652 263.479 200C265.577 201.273 268.545 200.795 270.189 198.99C267.938 201.945 271.529 206.336 275.371 205.606C280.665 204.601 280.612 199.855 281.965 199.855C287.52 199.855 290.767 216.945 292.021 219.683C299.57 236.183 309.749 239.809 321.099 242.401C333.866 245.315 349.117 237.666 356.689 226.97C359.983 222.322 361.091 216.53 361.044 210.785C357.185 221.703 354.229 225.732 347.537 230.993Z" fill="#740000"/>
<path d="M274.263 411.001C272.276 411.486 269.973 411.69 268.9 409.944C268.999 411.089 269.168 412.046 267.868 412.577C266.37 412.922 264.714 412.525 263.543 411.532C263.379 412.735 261.182 418.615 254.408 411.497C242.841 399.347 236.33 380.418 229.462 365.108C226.262 357.979 214.381 318.194 210.178 304.584C214.27 331.034 222.35 357.086 232.179 382.029C237.286 394.991 243.384 408.414 254.728 416.484C256.25 417.564 257.952 418.568 259.823 418.609C261.689 418.65 263.706 417.394 263.887 415.532C266.288 418.235 271.599 416.904 272.445 413.383C271.885 415.678 276.356 415.83 276.974 413.547C277.411 411.924 276.648 410.353 275.61 408.94C275.394 409.757 275.528 410.692 274.263 411.001Z" fill="#740000"/>
<path d="M212.3 368.758C210.511 354.05 206.902 339.669 201.865 325.761C204.885 336.51 207.17 347.47 208.686 358.534C209.257 362.68 209.718 366.866 209.555 371.047C209.106 382.724 202.145 397.076 189.582 399.3C194.351 398.46 199.423 400.287 204.022 398.769C206.372 397.992 208.324 396.393 209.823 394.402C213.612 386.735 213.35 377.399 212.3 368.758Z" fill="#740000"/>
<path d="M318.569 400.941C317.799 401.145 317.053 401.396 316.342 401.747C317.1 401.525 317.84 401.25 318.569 400.941Z" fill="#740000"/>
<path d="M331.848 397.21C339.042 390.227 343.391 380.546 347.198 371.134C349.547 365.325 351.803 359.48 353.966 353.594C349.745 362.405 344.645 370.836 339.444 379.127C336.384 384.009 333.259 388.89 329.307 393.076C326.31 396.247 322.661 399.219 318.568 400.947C320.585 400.421 322.742 400.269 324.742 399.785C327.196 399.189 329.61 398.372 331.848 397.21Z" fill="#740000"/>
<path opacity="0.17" d="M146.454 266.813C147.497 268.571 149.491 269.482 151.292 270.445C161.156 275.741 167.889 285.38 173.398 295.131C174.634 297.321 175.94 299.65 178.126 300.888C179.788 297.741 178.832 293.882 177.637 290.524C174.424 281.521 169.708 273.061 163.744 265.599C161.675 263.012 159.331 260.455 156.242 259.287C152.266 257.786 143.078 261.115 146.454 266.813Z" fill="white"/>
</g>
<defs>
<clipPath id="clip0_6674_7309">
<rect width="375" height="434" fill="white"/>
</clipPath>
</defs>
</svg>
